<?xml version="1.0" encoding="UTF-8"?>
<svg width="700pt" height="700pt" version="1.1" viewBox="0 0 700 700" xmlns="http://www.w3.org/2000/svg" xmlns:xlink="http://www.w3.org/1999/xlink">
 <defs>
  <symbol id="v" overflow="visible">
   <path d="m18.766-1.125c-0.96875 0.5-1.9805 0.875-3.0312 1.125-1.043 0.25781-2.1367 0.39062-3.2812 0.39062-3.3984 0-6.0898-0.94531-8.0781-2.8438-1.9922-1.9062-2.9844-4.4844-2.9844-7.7344 0-3.2578 0.99219-5.8359 2.9844-7.7344 1.9883-1.9062 4.6797-2.8594 8.0781-2.8594 1.1445 0 2.2383 0.13281 3.2812 0.39062 1.0508 0.25 2.0625 0.625 3.0312 1.125v4.2188c-0.98047-0.65625-1.9453-1.1406-2.8906-1.4531-0.94922-0.3125-1.9492-0.46875-3-0.46875-1.875 0-3.3516 0.60547-4.4219 1.8125-1.0742 1.1992-1.6094 2.8555-1.6094 4.9688 0 2.1055 0.53516 3.7617 1.6094 4.9688 1.0703 1.1992 2.5469 1.7969 4.4219 1.7969 1.0508 0 2.0508-0.14844 3-0.45312 0.94531-0.3125 1.9102-0.80078 2.8906-1.4688z"/>
  </symbol>
  <symbol id="b" overflow="visible">
   <path d="m13.734-11.141c-0.4375-0.19531-0.87109-0.34375-1.2969-0.4375-0.41797-0.10156-0.83984-0.15625-1.2656-0.15625-1.2617 0-2.2305 0.40625-2.9062 1.2188-0.67969 0.80469-1.0156 1.9531-1.0156 3.4531v7.0625h-4.8906v-15.312h4.8906v2.5156c0.625-1 1.3438-1.7266 2.1562-2.1875 0.82031-0.46875 1.8008-0.70312 2.9375-0.70312 0.16406 0 0.34375 0.011719 0.53125 0.03125 0.19531 0.011719 0.47656 0.039062 0.84375 0.078125z"/>
  </symbol>
  <symbol id="d" overflow="visible">
   <path d="m17.641-7.7031v1.4062h-11.453c0.125 1.1484 0.53906 2.0078 1.25 2.5781 0.70703 0.57422 1.7031 0.85938 2.9844 0.85938 1.0312 0 2.082-0.14844 3.1562-0.45312 1.082-0.3125 2.1914-0.77344 3.3281-1.3906v3.7656c-1.1562 0.4375-2.3125 0.76562-3.4688 0.98438-1.1562 0.22656-2.3125 0.34375-3.4688 0.34375-2.7734 0-4.9297-0.70312-6.4688-2.1094-1.5312-1.4062-2.2969-3.3789-2.2969-5.9219 0-2.5 0.75391-4.4609 2.2656-5.8906 1.5078-1.4375 3.582-2.1562 6.2188-2.1562 2.4062 0 4.332 0.73047 5.7812 2.1875 1.4453 1.4492 2.1719 3.3828 2.1719 5.7969zm-5.0312-1.625c0-0.92578-0.27344-1.6719-0.8125-2.2344-0.54297-0.57031-1.25-0.85938-2.125-0.85938-0.94922 0-1.7188 0.26562-2.3125 0.79688s-0.96484 1.2969-1.1094 2.2969z"/>
  </symbol>
  <symbol id="c" overflow="visible">
   <path d="m9.2188-6.8906c-1.0234 0-1.793 0.17188-2.3125 0.51562-0.51172 0.34375-0.76562 0.85547-0.76562 1.5312 0 0.625 0.20703 1.1172 0.625 1.4688 0.41406 0.34375 0.98828 0.51562 1.7188 0.51562 0.92578 0 1.7031-0.32812 2.3281-0.98438 0.63281-0.66406 0.95312-1.4922 0.95312-2.4844v-0.5625zm7.4688-1.8438v8.7344h-4.9219v-2.2656c-0.65625 0.92969-1.3984 1.6055-2.2188 2.0312-0.82422 0.41406-1.8242 0.625-3 0.625-1.5859 0-2.8711-0.45703-3.8594-1.375-0.99219-0.92578-1.4844-2.1289-1.4844-3.6094 0-1.7891 0.61328-3.1016 1.8438-3.9375 1.2383-0.84375 3.1797-1.2656 5.8281-1.2656h2.8906v-0.39062c0-0.76953-0.30859-1.332-0.92188-1.6875-0.61719-0.36328-1.5703-0.54688-2.8594-0.54688-1.0547 0-2.0312 0.10547-2.9375 0.3125-0.89844 0.21094-1.7305 0.52344-2.5 0.9375v-3.7344c1.0391-0.25 2.0859-0.44141 3.1406-0.57812 1.0625-0.13281 2.125-0.20312 3.1875-0.20312 2.7578 0 4.75 0.54688 5.9688 1.6406 1.2266 1.0859 1.8438 2.8555 1.8438 5.3125z"/>
  </symbol>
  <symbol id="e" overflow="visible">
   <path d="m7.7031-19.656v4.3438h5.0469v3.5h-5.0469v6.5c0 0.71094 0.14062 1.1875 0.42188 1.4375s0.83594 0.375 1.6719 0.375h2.5156v3.5h-4.1875c-1.9375 0-3.3125-0.39844-4.125-1.2031-0.80469-0.8125-1.2031-2.1797-1.2031-4.1094v-6.5h-2.4219v-3.5h2.4219v-4.3438z"/>
  </symbol>
  <symbol id="l" overflow="visible">
   <path d="m12.766-13.078v-8.2031h4.9219v21.281h-4.9219v-2.2188c-0.66797 0.90625-1.4062 1.5703-2.2188 1.9844s-1.7578 0.625-2.8281 0.625c-1.8867 0-3.4336-0.75-4.6406-2.25-1.2109-1.5-1.8125-3.4258-1.8125-5.7812 0-2.3633 0.60156-4.2969 1.8125-5.7969 1.207-1.5 2.7539-2.25 4.6406-2.25 1.0625 0 2 0.21484 2.8125 0.64062 0.82031 0.42969 1.5664 1.0859 2.2344 1.9688zm-3.2188 9.9219c1.0391 0 1.8359-0.37891 2.3906-1.1406 0.55078-0.76953 0.82812-1.8828 0.82812-3.3438 0-1.457-0.27734-2.5664-0.82812-3.3281-0.55469-0.76953-1.3516-1.1562-2.3906-1.1562-1.043 0-1.8398 0.38672-2.3906 1.1562-0.55469 0.76172-0.82812 1.8711-0.82812 3.3281 0 1.4609 0.27344 2.5742 0.82812 3.3438 0.55078 0.76172 1.3477 1.1406 2.3906 1.1406z"/>
  </symbol>
  <symbol id="k" overflow="visible">
   <path d="m10.5-3.1562c1.0508 0 1.8516-0.37891 2.4062-1.1406 0.55078-0.76953 0.82812-1.8828 0.82812-3.3438 0-1.457-0.27734-2.5664-0.82812-3.3281-0.55469-0.76953-1.3555-1.1562-2.4062-1.1562-1.0547 0-1.8594 0.38672-2.4219 1.1562-0.55469 0.77344-0.82812 1.8828-0.82812 3.3281 0 1.4492 0.27344 2.5586 0.82812 3.3281 0.5625 0.77344 1.3672 1.1562 2.4219 1.1562zm-3.25-9.9219c0.67578-0.88281 1.4219-1.5391 2.2344-1.9688 0.82031-0.42578 1.7656-0.64062 2.8281-0.64062 1.8945 0 3.4453 0.75 4.6562 2.25 1.207 1.5 1.8125 3.4336 1.8125 5.7969 0 2.3555-0.60547 4.2812-1.8125 5.7812-1.2109 1.5-2.7617 2.25-4.6562 2.25-1.0625 0-2.0078-0.21094-2.8281-0.625-0.8125-0.42578-1.5586-1.0859-2.2344-1.9844v2.2188h-4.8906v-21.281h4.8906z"/>
  </symbol>
  <symbol id="f" overflow="visible">
   <path d="m0.34375-15.312h4.8906l4.125 10.391 3.5-10.391h4.8906l-6.4375 16.766c-0.64844 1.6953-1.4023 2.8828-2.2656 3.5625-0.86719 0.6875-2 1.0312-3.4062 1.0312h-2.8438v-3.2188h1.5312c0.83203 0 1.4375-0.13672 1.8125-0.40625 0.38281-0.26172 0.67969-0.73047 0.89062-1.4062l0.14062-0.42188z"/>
  </symbol>
  <symbol id="j" overflow="visible">
   <path d="m20.922-1.5156c-1.3125 0.63672-2.6797 1.1172-4.0938 1.4375-1.4062 0.3125-2.8672 0.46875-4.375 0.46875-3.3984 0-6.0898-0.94531-8.0781-2.8438-1.9922-1.9062-2.9844-4.4844-2.9844-7.7344 0-3.2891 1.0078-5.8789 3.0312-7.7656 2.0312-1.8828 4.8047-2.8281 8.3281-2.8281 1.3516 0 2.6484 0.13281 3.8906 0.39062 1.25 0.25 2.4258 0.625 3.5312 1.125v4.2188c-1.1484-0.64453-2.2812-1.125-3.4062-1.4375-1.125-0.32031-2.25-0.48438-3.375-0.48438-2.1055 0-3.7266 0.58984-4.8594 1.7656-1.125 1.168-1.6875 2.8398-1.6875 5.0156 0 2.1562 0.54688 3.8242 1.6406 5 1.0938 1.1797 2.6445 1.7656 4.6562 1.7656 0.53906 0 1.0469-0.03125 1.5156-0.09375 0.47656-0.070313 0.89844-0.17969 1.2656-0.32812v-3.9688h-3.2031v-3.5156h8.2031z"/>
  </symbol>
  <symbol id="u" overflow="visible">
   <path d="m12.766-2.5938c-0.66797 0.88672-1.4062 1.543-2.2188 1.9688-0.8125 0.41797-1.7578 0.625-2.8281 0.625-1.8672 0-3.4062-0.73438-4.625-2.2031-1.2188-1.4766-1.8281-3.3516-1.8281-5.625 0-2.2891 0.60938-4.1641 1.8281-5.625 1.2188-1.4688 2.7578-2.2031 4.625-2.2031 1.0703 0 2.0156 0.21484 2.8281 0.64062 0.8125 0.41797 1.5508 1.0742 2.2188 1.9688v-2.2656h4.9219v13.766c0 2.457-0.77734 4.3359-2.3281 5.6406-1.5547 1.3008-3.8086 1.9531-6.7656 1.9531-0.94922 0-1.8711-0.074219-2.7656-0.21875-0.89844-0.14844-1.7969-0.37109-2.7031-0.67188v-3.8125c0.86328 0.48828 1.7031 0.85156 2.5156 1.0938 0.82031 0.23828 1.6484 0.35938 2.4844 0.35938 1.6016 0 2.7734-0.35156 3.5156-1.0469 0.75-0.69922 1.125-1.7969 1.125-3.2969zm-3.2188-9.5312c-1.0117 0-1.8047 0.375-2.375 1.125-0.5625 0.74219-0.84375 1.7969-0.84375 3.1719 0 1.3984 0.26953 2.4609 0.8125 3.1875 0.55078 0.71875 1.3516 1.0781 2.4062 1.0781 1.0195 0 1.8125-0.36719 2.375-1.1094 0.5625-0.75 0.84375-1.8008 0.84375-3.1562 0-1.375-0.28125-2.4297-0.84375-3.1719-0.5625-0.75-1.3555-1.125-2.375-1.125z"/>
  </symbol>
  <symbol id="i" overflow="visible">
   <path d="m14.312-14.828v3.7188c-1.043-0.4375-2.0547-0.76562-3.0312-0.98438-0.98047-0.21875-1.9023-0.32812-2.7656-0.32812-0.92969 0-1.6211 0.11719-2.0781 0.34375-0.44922 0.23047-0.67188 0.58984-0.67188 1.0781 0 0.38672 0.17188 0.68359 0.51562 0.89062 0.34375 0.21094 0.95703 0.36719 1.8438 0.46875l0.85938 0.125c2.5078 0.32422 4.1953 0.85156 5.0625 1.5781 0.86328 0.73047 1.2969 1.8711 1.2969 3.4219 0 1.6367-0.60547 2.8672-1.8125 3.6875-1.1992 0.8125-2.9922 1.2188-5.375 1.2188-1.0234 0-2.0742-0.078125-3.1562-0.23438-1.0742-0.15625-2.1797-0.39453-3.3125-0.71875v-3.7188c0.96875 0.48047 1.9609 0.83984 2.9844 1.0781 1.0312 0.23047 2.0781 0.34375 3.1406 0.34375 0.95703 0 1.6758-0.12891 2.1562-0.39062 0.47656-0.26953 0.71875-0.66406 0.71875-1.1875 0-0.4375-0.16797-0.75781-0.5-0.96875-0.33594-0.21875-0.99609-0.38281-1.9844-0.5l-0.85938-0.10938c-2.1797-0.26953-3.7031-0.77344-4.5781-1.5156-0.875-0.73828-1.3125-1.8594-1.3125-3.3594 0-1.625 0.55078-2.8281 1.6562-3.6094 1.1133-0.78906 2.8203-1.1875 5.125-1.1875 0.89453 0 1.8359 0.074219 2.8281 0.21875 1 0.13672 2.082 0.35156 3.25 0.64062z"/>
  </symbol>
  <symbol id="t" overflow="visible">
   <path d="m14.953-3.7188h-8.2188l-1.3125 3.7188h-5.2812l7.5625-20.406h6.2656l7.5625 20.406h-5.2812zm-6.9062-3.7812h5.5781l-2.7812-8.125z"/>
  </symbol>
  <symbol id="a" overflow="visible">
   <path d="m9.6406-12.188c-1.0859 0-1.9141 0.39062-2.4844 1.1719-0.57422 0.78125-0.85938 1.9062-0.85938 3.375s0.28516 2.5938 0.85938 3.375c0.57031 0.77344 1.3984 1.1562 2.4844 1.1562 1.0625 0 1.875-0.38281 2.4375-1.1562 0.57031-0.78125 0.85938-1.9062 0.85938-3.375s-0.28906-2.5938-0.85938-3.375c-0.5625-0.78125-1.375-1.1719-2.4375-1.1719zm0-3.5c2.6328 0 4.6914 0.71484 6.1719 2.1406 1.4766 1.418 2.2188 3.3867 2.2188 5.9062 0 2.5117-0.74219 4.4805-2.2188 5.9062-1.4805 1.418-3.5391 2.125-6.1719 2.125-2.6484 0-4.7148-0.70703-6.2031-2.125-1.4922-1.4258-2.2344-3.3945-2.2344-5.9062 0-2.5195 0.74219-4.4883 2.2344-5.9062 1.4883-1.4258 3.5547-2.1406 6.2031-2.1406z"/>
  </symbol>
  <symbol id="h" overflow="visible">
   <path d="m2.5781-20.406h8.7344c2.5938 0 4.582 0.57812 5.9688 1.7344 1.3945 1.1484 2.0938 2.7891 2.0938 4.9219 0 2.1367-0.69922 3.7812-2.0938 4.9375-1.3867 1.1562-3.375 1.7344-5.9688 1.7344h-3.4844v7.0781h-5.25zm5.25 3.8125v5.7031h2.9219c1.0195 0 1.8047-0.25 2.3594-0.75 0.5625-0.5 0.84375-1.2031 0.84375-2.1094 0-0.91406-0.28125-1.6172-0.84375-2.1094-0.55469-0.48828-1.3398-0.73438-2.3594-0.73438z"/>
  </symbol>
  <symbol id="g" overflow="visible">
   <path d="m2.3594-15.312h4.8906v15.031c0 2.0508-0.49609 3.6172-1.4844 4.7031-0.98047 1.082-2.4062 1.625-4.2812 1.625h-2.4219v-3.2188h0.85938c0.92578 0 1.5625-0.21094 1.9062-0.625 0.35156-0.41797 0.53125-1.2461 0.53125-2.4844zm0-5.9688h4.8906v4h-4.8906z"/>
  </symbol>
  <symbol id="s" overflow="visible">
   <path d="m12.422-21.281v3.2188h-2.7031c-0.6875 0-1.1719 0.125-1.4531 0.375-0.27344 0.25-0.40625 0.6875-0.40625 1.3125v1.0625h4.1875v3.5h-4.1875v11.812h-4.8906v-11.812h-2.4375v-3.5h2.4375v-1.0625c0-1.6641 0.46094-2.8984 1.3906-3.7031 0.92578-0.80078 2.3672-1.2031 4.3281-1.2031z"/>
  </symbol>
  <symbol id="r" overflow="visible">
   <path d="m16.547-12.766c0.61328-0.94531 1.3477-1.6719 2.2031-2.1719 0.85156-0.5 1.7891-0.75 2.8125-0.75 1.7578 0 3.0977 0.54688 4.0156 1.6406 0.92578 1.0859 1.3906 2.6562 1.3906 4.7188v9.3281h-4.9219v-7.9844-0.35938c0.007813-0.13281 0.015625-0.32031 0.015625-0.5625 0-1.082-0.16406-1.8633-0.48438-2.3438-0.3125-0.48828-0.82422-0.73438-1.5312-0.73438-0.92969 0-1.6484 0.38672-2.1562 1.1562-0.51172 0.76172-0.77344 1.8672-0.78125 3.3125v7.5156h-4.9219v-7.9844c0-1.6953-0.14844-2.7852-0.4375-3.2656-0.29297-0.48828-0.8125-0.73438-1.5625-0.73438-0.9375 0-1.6641 0.38672-2.1719 1.1562-0.51172 0.76172-0.76562 1.8594-0.76562 3.2969v7.5312h-4.9219v-15.312h4.9219v2.2344c0.60156-0.86328 1.2891-1.5156 2.0625-1.9531 0.78125-0.4375 1.6406-0.65625 2.5781-0.65625 1.0625 0 2 0.25781 2.8125 0.76562 0.8125 0.51172 1.4258 1.2305 1.8438 2.1562z"/>
  </symbol>
  <symbol id="q" overflow="visible">
   <path d="m17.75-9.3281v9.3281h-4.9219v-7.1094c0-1.3438-0.03125-2.2656-0.09375-2.7656s-0.16797-0.86719-0.3125-1.1094c-0.1875-0.3125-0.44922-0.55469-0.78125-0.73438-0.32422-0.17578-0.69531-0.26562-1.1094-0.26562-1.0234 0-1.8242 0.39844-2.4062 1.1875-0.58594 0.78125-0.875 1.8711-0.875 3.2656v7.5312h-4.8906v-21.281h4.8906v8.2031c0.73828-0.88281 1.5195-1.5391 2.3438-1.9688 0.83203-0.42578 1.75-0.64062 2.75-0.64062 1.7695 0 3.1133 0.54688 4.0312 1.6406 0.91406 1.0859 1.375 2.6562 1.375 4.7188z"/>
  </symbol>
  <symbol id="p" overflow="visible">
   <path d="m2.5781-20.406h5.875l7.4219 14v-14h4.9844v20.406h-5.875l-7.4219-14v14h-4.9844z"/>
  </symbol>
  <symbol id="o" overflow="visible">
   <path d="m2.1875-5.9688v-9.3438h4.9219v1.5312c0 0.83594-0.007813 1.875-0.015625 3.125-0.011719 1.25-0.015625 2.0859-0.015625 2.5 0 1.2422 0.03125 2.1328 0.09375 2.6719 0.070313 0.54297 0.17969 0.93359 0.32812 1.1719 0.20703 0.32422 0.47266 0.57422 0.79688 0.75 0.32031 0.16797 0.69141 0.25 1.1094 0.25 1.0195 0 1.8203-0.39062 2.4062-1.1719 0.58203-0.78125 0.875-1.8672 0.875-3.2656v-7.5625h4.8906v15.312h-4.8906v-2.2188c-0.74219 0.89844-1.5234 1.5586-2.3438 1.9844-0.82422 0.41406-1.7344 0.625-2.7344 0.625-1.7617 0-3.1055-0.53906-4.0312-1.625-0.92969-1.082-1.3906-2.6602-1.3906-4.7344z"/>
  </symbol>
  <symbol id="n" overflow="visible">
   <path d="m17.75-9.3281v9.3281h-4.9219v-7.1406c0-1.3203-0.03125-2.2344-0.09375-2.7344s-0.16797-0.86719-0.3125-1.1094c-0.1875-0.3125-0.44922-0.55469-0.78125-0.73438-0.32422-0.17578-0.69531-0.26562-1.1094-0.26562-1.0234 0-1.8242 0.39844-2.4062 1.1875-0.58594 0.78125-0.875 1.8711-0.875 3.2656v7.5312h-4.8906v-15.312h4.8906v2.2344c0.73828-0.88281 1.5195-1.5391 2.3438-1.9688 0.83203-0.42578 1.75-0.64062 2.75-0.64062 1.7695 0 3.1133 0.54688 4.0312 1.6406 0.91406 1.0859 1.375 2.6562 1.375 4.7188z"/>
  </symbol>
  <symbol id="m" overflow="visible">
   <path d="m14.719-14.828v3.9844c-0.65625-0.45703-1.3242-0.79688-2-1.0156-0.66797-0.21875-1.3594-0.32812-2.0781-0.32812-1.3672 0-2.4336 0.40234-3.2031 1.2031-0.76172 0.79297-1.1406 1.9062-1.1406 3.3438 0 1.4297 0.37891 2.543 1.1406 3.3438 0.76953 0.79297 1.8359 1.1875 3.2031 1.1875 0.75781 0 1.4844-0.10938 2.1719-0.32812 0.6875-0.22656 1.3203-0.56641 1.9062-1.0156v4c-0.76172 0.28125-1.5391 0.48828-2.3281 0.625-0.78125 0.14453-1.5742 0.21875-2.375 0.21875-2.7617 0-4.9219-0.70703-6.4844-2.125-1.5547-1.4141-2.3281-3.3828-2.3281-5.9062 0-2.5312 0.77344-4.5039 2.3281-5.9219 1.5625-1.4141 3.7227-2.125 6.4844-2.125 0.80078 0 1.5938 0.074219 2.375 0.21875 0.78125 0.13672 1.5547 0.35156 2.3281 0.64062z"/>
  </symbol>
 </defs>
 <g>
  <path d="m322.32 244.8c-1.4844-0.003906-2.5352 1.7305-3.6055 2.5586-0.47656 0.37109 0.085938 1.043 0.57031 0.71875 0.53125-0.35156 1.0039-0.77734 1.4883-1.1875 0.58203-0.48047 1.3828-0.86328 1.8047-1.4844 0.14453-0.20703 0.046875-0.60547-0.25781-0.60547z"/>
  <path d="m329.36 240.77c-1.6562 0.76172-3.1875 1.8633-4.8281 2.6953-0.41406 0.21094-0.13281 0.875 0.29297 0.66797 1.625-0.80078 3.5156-1.5898 4.8398-2.8672 0.22266-0.22266 0.019531-0.64453-0.30469-0.49609z"/>
  <path d="m332.34 244.16c-0.21094-0.27344-0.37109-0.59766-0.52734-0.91406-0.13281-0.27344-0.375-0.66797-0.46094-0.95312-0.050781-0.15625-0.25781-0.066407-0.25391 0.074219 0.011719 0.39062-0.074219 0.66797 0.015625 1.0742 0.078125 0.35156 0.20703 0.67578 0.37891 0.99219 0.38672 0.69531 0.92578 1.2227 1.6367 1.5742 0.30859 0.15234 0.60938-0.26953 0.39062-0.51953-0.37891-0.45312-0.82031-0.85938-1.1797-1.3281z"/>
  <path d="m335.51 248.56c0.75781 1.4492 2.1797 2.4766 3.1875 3.7422 0.14453 0.19141 0.41406 0.003906 0.34766-0.20703-0.52734-1.5664-2.2891-2.3203-3.0898-3.7305-0.14844-0.26563-0.58984-0.089844-0.44531 0.19531z"/>
  <path d="m341.49 255.24c-0.28516-0.10156-0.46484 0.33203-0.17188 0.4375 2.0898 0.74609 3.8477 2.0234 5.5938 3.3477 0.28125 0.21094 0.60547-0.22266 0.33203-0.42969-1.8008-1.3398-3.6133-2.625-5.7539-3.3555z"/>
  <path d="m349.91 259.77c-0.25391-0.11719-0.41016 0.28125-0.15625 0.40234 1.6406 0.82812 3.2812 1.7969 5.0195 2.3906 0.20703 0.074219 0.39844-0.21875 0.19531-0.33984-1.5742-1.0039-3.3594-1.6797-5.0586-2.4531z"/>
  <path d="m359.2 262.96c-0.47656-0.066407-0.56641 0.66797-0.09375 0.73828 0.77734 0.11719 1.5586 0.0625 2.3398 0.027343 1.2617-0.054687 2.25 0.16406 3.4219 0.59375 0.24609 0.09375 0.52734-0.21875 0.33203-0.4375-1.5156-1.6445-4.0781-0.66406-6-0.92187z"/>
  <path d="m375.09 268.16c-2.1836-1.3555-4.8984-1.5234-7.207-2.6133-0.25391-0.11719-0.38672 0.26172-0.15625 0.39062 2.2188 1.2422 4.7812 1.6914 7.1133 2.6719 0.25781 0.10938 0.5-0.28516 0.25-0.44922z"/>
  <path d="m375.91 269.62c-0.28516-0.29297-0.78906 0.09375-0.50391 0.39844 0.66797 0.69922 1.457 1.1328 2.3398 1.4844 0.92969 0.37109 1.9219 0.75781 2.9023 0.96875 0.25391 0.054688 0.36328-0.30078 0.17969-0.44141-1.4961-1.1289-3.5508-1.0078-4.918-2.4102z"/>
  <path d="m383.54 273.65c-0.33203-0.050782-0.37891 0.44141-0.066407 0.50391 1.7188 0.33984 3.6172 0.81641 5.3711 0.75781 0.21094-0.003906 0.23047-0.32031 0.050782-0.39062-1.625-0.66406-3.625-0.59375-5.3555-0.87109z"/>
  <path d="m396.65 274.91c-1.3711 0.039063-2.7344 0.3125-4.0898 0.50781-0.39062 0.0625-0.30859 0.67578 0.09375 0.62109 1.3555-0.18359 2.7383-0.30078 4.0664-0.64453 0.30469-0.074219 0.25-0.49609-0.070312-0.48438z"/>
  <path d="m399.92 275.45c-0.37891-0.050781-0.44141 0.50781-0.078125 0.58984 1.3906 0.29297 2.8047 0.35938 4.2188 0.46875 0.34766 0.023438 0.54297-0.52734 0.16406-0.62891-1.4141-0.37109-2.8594-0.24219-4.3047-0.42969z"/>
  <path d="m407.24 277.62c1.0938 0.35156 2.2852 0.39844 3.3594-0.054688 0.21875-0.089844 0.16797-0.42188-0.0625-0.44922-1.0117-0.11719-2.0156 0.09375-3.0195-0.19141-0.45703-0.12891-0.74219 0.54297-0.27734 0.69531z"/>
  <path d="m332.81 207.75c-0.039062 2.0547 0.45312 4.1836 0.81641 6.1953 0.074219 0.40234 0.67188 0.32031 0.63281-0.089844-0.20703-2.0312-0.33203-4.2188-0.93359-6.1758-0.070313-0.25391-0.50781-0.19141-0.51562 0.070312z"/>
  <path d="m333.88 197.11c-0.96875 1.9609-0.98047 5.0234-0.011718 6.9961 0.14062 0.29297 0.58203 0.10156 0.46484-0.20312-0.77344-1.9258-0.58203-4.6328 0.14453-6.5391 0.16016-0.40234-0.41797-0.62109-0.59766-0.25391z"/>
  <path d="m340.48 190.86c-1.8711 0.62109-2.8555 2.4531-4.2266 3.7344-0.28125 0.26172 0.089844 0.73438 0.375 0.46875 1.3984-1.2773 2.3867-2.7383 4.082-3.6797 0.31641-0.16797 0.12109-0.64062-0.23047-0.52344z"/>
  <path d="m348.62 185.48c-1.6797 0.25391-2.7227 1.8477-4.3633 2.1797-0.44922 0.089844-0.35156 0.78906 0.10156 0.69922 1.6562-0.32031 2.7422-1.7812 4.3672-2.1797 0.4375-0.097656 0.35938-0.76953-0.10547-0.69922z"/>
  <path d="m395.22 351.24c-0.57031 0.34766 0.015625 1.293 0.59766 0.99609 2.7148-1.3906 7.4805-5.5039 3.293-8.0625-2.2852-1.3984-6.3125-1.1367-8.8711-1.5977-5.6211-1.0078-11.301-1.2539-16.945-2.0391-0.39844-0.054687-0.44922 0.50781-0.078125 0.60938 4.8828 1.2656 10.27 1.4336 15.289 2.0898 2.3984 0.3125 4.6758 0.86328 7.0859 1.043 2.3789-0.050782 3.168 1.668 2.375 5.168-0.80078 0.72266-1.8164 1.2305-2.7461 1.793z"/>
  <path d="m291.45 329.51c-5.6914-2.4531-11.68-2.5078-17.734-3.2539-6.8164-0.82422-13.227-2.1406-20.066-0.79688-6.2812 1.2383-12.254 5.9883-17.82 8.9414-7.707 4.1055-14.875 8.418-23.766 9.3398-0.26953 0.023438-0.19531 0.41406 0.0625 0.40234 5.3438-0.15625 10.207-1.793 14.902-4.0195 2.4531 0.77344 3.7617 2.9844 6.0703 3.8633 2.2969 0.89453 4.5742 1.5352 6.9844 2.0625 4.7812 1.0312 10.527 1.8633 15.32 0.49219 2.9531-0.84375 3.9102-3.8711 3.7344-6.5859-0.33984-4.9883-5.3828-8.6914-8.7734-11.957 3.375-1.2031 6.875-1.9648 10.59-1.9648 7.7266 0.015625 16.156 1.5352 23.789 2.7656 0-0.003906 6.1641 0.88672 4.5586 2.0898-1.3047 0.98438-2.918 1.7422-4.3281 2.5938-2.9844 1.793-5.4492 3.8906-8.8594 4.9609-0.63672 0.20703-0.32422 1.2031 0.32031 1.1211 2.9961-0.42188 5.1133-2.1016 7.6211-3.6719 2.5195-1.5742 5.5898-3.1914 7.6758-5.3711 0.30078-0.30859 0.074219-0.85156-0.28125-1.0117zm-35.465 5.9844c2.6836 3.5039 3.3672 8.7266-2.1562 10.266-2.2109 0.62891-4.8789 0.18359-7.1523 0.023438-4.082-0.29297-8.1641-1.0703-12.023-2.418-2.5078-0.875-4.1055-2.9844-6.5469-3.7539 7.1172-3.5508 13.82-8.3164 21.055-11.145 2.2578 2.3711 4.8125 4.4102 6.8242 7.0273z"/>
  <path d="m227.51 322.48c-4.9062 4.207-14.867 5.8125-20.074 1.6289-0.34766-0.28125-0.027344-0.85547 0.39062-0.69531 3.6797 1.4727 6.2891 2.1016 10.246 1.3906 2.6133-0.46875 6.0703-0.93359 8.1875-2.6836 0-0.15234-5.3711-2.1289-5.7695-2.1836-1.4492-0.17188-2.9062-0.23438-4.3633-0.089844-1.3438 0.12891-2.6953 0.32031-4.043 0.51562-1.4336 0.21875-2.8516 0.44141-4.2969 0.63672-0.42969 0.050781-0.52734-0.59375-0.09375-0.67188 1.9375-0.33203 3.8398-0.66797 5.7109-0.89453l0.011719-0.011719c4.8477-0.61719 9.5078-0.55469 14.078 2.2109 0.30469 0.1875 0.25781 0.64063 0.015625 0.84766z"/>
  <path d="m261.17 308.91c-3.9414 0.47656-8.5 2.1953-12.027 3.9023-0.50391 0.24609-0.17188 0.94141 0.34766 0.78516 3.9531-1.2031 7.8281-2.5664 11.84-3.6406 2.2305-0.59375 4.1719-0.75781 6.1211-2.1172 0.18359-0.12891 0.19531-0.46875-0.003907-0.58984-4.9336-2.8906-10.074-2.7422-15.5-1.332-6.5312 1.6953-14.051 4.8438-19.023 9.4766-0.14453 0.13281 0.027344 0.36328 0.19531 0.24609 6.4922-4.7266 15.215-8.6133 23.18-9.8672 1.8594-0.29297 3.7344-0.17969 5.5938 0.054687 5.0547 0.64453 1.7578 2.7773-0.72266 3.082z"/>
  <path d="m302.88 319.31c2.7031-0.27344 5.9883 0.78906 8.6406 0.21094 2.3906-0.51953 4.6016-1.5195 6.9766-2.0938 0.40234-0.10156 0.56641-0.48828 0.33984-0.83594-2.2617-3.4766-7.7969-3.5547-11.457-3.7578-6.4961-0.35938-12.48 0.44141-18.16 3.8086-0.28516 0.16797-0.10547 0.63672 0.21094 0.48828 7.3477-3.5391 20.047-6.0469 27.629-1.0977 1.043 0.68359-2.8438 1.5977-2.8711 1.6055-3.125 1.0977-6.4102 0.52734-9.5977 0.41016-4.8281-0.17969-9.4531 2.207-14.273 1.4102-0.46094-0.078126-0.66797 0.66797-0.20703 0.79687 4.3594 1.25 8.3867-0.50391 12.77-0.94531z"/>
  <path d="m253.86 301.37c-4.9688 0.40234-9.8711 1.2227-14.852 1.5-3.9258 0.22266-8.5195 1.8828-12.285 0.3125-0.32422-0.13281-0.52734 0.35938-0.20703 0.50391 3.2031 1.4062 6.8359 0.50391 10.176 0.074219 5.75-0.74609 11.523-0.67578 17.254-1.8438 0.34375-0.074219 0.27344-0.57812-0.085937-0.54688z"/>
  <path d="m432.72 360.39c-3.6797 0.13281-7.3359-0.3125-11.004-0.58984-0.17969-0.011719-0.20703 0.24219-0.035156 0.27344 2.9102 0.56641 5.5547 1.6367 8.5469 1.668 2.1914 0.023437 4.3789-0.09375 6.5586-0.29688 1.5391-0.14453 7.7188-0.59766 7.1953-3.5156-0.58203-3.2812-5.4805-5.3203-8.1875-6.4336-4.8828-2.0117-11.066 1.7344-15.383 3.6406-0.37109 0.16406-0.125 0.72266 0.25391 0.57812 4.1484-1.6523 9.5742-5.0352 14.145-3.6172 1.625 0.50391 8.8086 3.7109 7.957 6.1094-0.83984 2.3633-8.0977 2.1172-10.047 2.1836z"/>
  <path d="m549.36 300.89c-0.015625 0.011719-0.039063 0.027344-0.0625 0.039063-7.6562-6.0078-16.453-10.289-25.793-13.098-13.027-3.9219-26.711-5.5898-39.602-9.8516-12.758-4.1992-26.332-6.4609-38.668-11.832-10.613-4.6211-19.684-12.02-30.055-17.07 3.9219-3.1094 2.207-3.6016-0.37109-6.707-0.78906-0.95703-2.6328 0.37891-2.9531 1.1523-0.65625 1.6055 0.10156 3.332 1.1328 4.7422-0.074219 0.09375-0.085937 0.23047 0.042969 0.30859l0.39844 0.24609c0.066407 0.074219 0.125 0.14062 0.18359 0.21875-0.99609 0.6875-2.2109 1.2773-3.207 1.8203-4.0781 2.2109-8.6406 3.4453-13.07 4.8672 0.50781-1.3594 0.90625-2.5195 1.1641-3.2656 0.61719-1.8203 1.293-3.6133 2.0312-5.3711 2.543-1.6055 4.9453-3.4258 7.0234-5.2344 1.3555-1.1719 2.9023-2.75 2.7422-4.6719-0.14062-1.6953-2.1836-1.8633-3.3555-1.3906-2.5742 1.0195-4.2227 4.7773-5.4805 7-0.57812 1.0312-1.1094 2.0703-1.6172 3.1289-4.3555 2.4805-8.6641 3.9922-13.457 5.4258 1.3164-2.1719 2.4375-4.4961 3.5-6.8828 0.15234-0.33984 0.32422-0.67578 0.48828-1.0312 0.67578-0.37891 1.3438-0.77344 1.9922-1.1641 5.4805-3.293 12.324-8.1367 6.3672-14.465-0.15234-0.16406-0.33984-0.17188-0.53906-0.0625-2.1797 1.3164-3.0117 5.6797-4.5039 7.707-1.6523 2.2461-2.9219 4.6797-4.1367 7.1641-3.8867 2.1602-8.0234 3.875-12.152 5.5156-2.2383 0.89453-4.6211 1.1797-7.0156 1.293 0.36328-0.39062 0.72656-0.76172 1.0625-1.1133 3.6445-3.6641 7.4297-7.6445 9.1602-12.594 0.73438-2.1172 1.3555-3.9688 2.3867-5.75 1.043-0.46875 2.0898-0.92969 3.1602-1.3477 5.5781-2.1992 12.047-4.6719 5.3711-10.32-1.1797-0.99609-2.2383-0.30859-2.5195 0.95703-0.875 3.9805-4.5859 6.6797-7.1016 10-4.3516 1.9023-8.6445 4.3281-13.133 5.9688 0.011719-0.011718 0.011719-0.023437 0.023438-0.035156 3.8086-3.832 7.7891-7.9023 9.7109-13.016 0.035156-0.09375 0.09375-0.29688 0.17188-0.56641 1.1016 0.71094 2.4805 0.75 4.1055-0.52734 3.0898-2.418 2.7344-6.7969-1.0547-8.2422-0.25781-0.09375-0.52734-0.011719-0.6875 0.19531-1.3398 1.6367-2.1445 3.5625-2.8516 5.5156-3.3281-4.5703-6.4961-9.2852-10.062-13.688-3.9883-4.8984-8.0586-9.5078-12.512-13.996-3.1602-3.1797-6.0195-7.0273-10.254-8.8086-6.9102-2.9062-14.184 6.2344-16.777 11.344-3.8398 7.5781-3.8984 17.383-1.7148 25.418-1.6016 0.15625-3.4102 1.1523-4.5625 1.8047-0.67578 0.37109-1.5742 1.0195-2.0781 1.6133-0.66016 0.79688-1.6914 3.0352-2.6836 3.5273-1.2773-0.33203-2.5547-0.66797-3.832-1.0586-2.9297-0.89453-6.0469-1.5859-8.8828-0.10547-4.1328 2.1602-2.7031 10.445-2.3125 14.012 0.22266 2.1094 0.8125 5.9805 2.5703 7.9727-1.4492-0.085938-2.9102-0.16406-4.4336 0.039062-3.6719 0.50391-7.4258 0.14062-11.055-0.57812-7.4023-1.4961-13.66-6.1836-18.375-11.918-7.6758-9.3242-10.926-20.312-22.746-24.941 0.37891-0.074219 0.75781-0.125 1.1133-0.15625 0.37109-0.027344 0.37109-0.66016-0.011719-0.66016-0.10547 0-0.20703 0.011718-0.30859 0.011718 0.015625-0.050781 0.027344-0.10547 0.027344-0.16406-0.41016-3.6016-0.42188-9.0547-4.2266-10.969-5.9766-3.0117-12.078-0.17188-17.812 2.0625-0.19531 0.085938-0.34766 0.28125-0.37109 0.48047-0.49219 4.6641 5.3594 8.6406 8.6758 10.875 2.4258 1.6289 4.5469 2.0625 6.5703 1.6055 0.19531 0.99609 0.44141 1.9805 0.77344 2.9844 1.3438 4.1445 0.81641 8.0547-0.29297 12.164-1.1406 4.2617-2.9023 8.3047-3.9297 12.594-1.3672 5.7109-2.5703 10.602-5.0234 15.961-1.7148 3.7109-2.1094 7.0664-3.0312 10.73-0.074218 0.039063-0.14062 0.10547-0.15234 0.21875-0.035156 0.23438-0.0625 0.48047-0.10547 0.72656-0.0625 0.25781-0.12891 0.51562-0.20312 0.77344-0.035157 0.11328-0.011719 0.21875 0.027343 0.29688-0.44141 2.3984-1.1719 4.9062-1.6562 7.2109-0.72266 3.4375 0.33594 9.0039-3.2461 10.824-0.11719 0.015626-0.23047 0.0625-0.33984 0.17188-2.6836 2.6055-5.0078 5.0117-8.2266 6.9766-1.9492 1.1719-3.8867 2.6055-4.2383 4.9297-0.21875 1.4062 1.3281 2.8672 2.1719 3.7109 0.33984 0.33984 3.9922 3.457 2.3789 4.1484-1.9766 0.82813-3.9766 1.6445-5.9414 2.5078-2.625 1.1641-5.207 2.543-7.4922 4.25-2.9414 2.2109-5.3945 4.9766-6.7461 8.5508-0.73438 1.9141-1.0078 3.8984-0.93359 5.8867 0.14062 4.1992 1.8477 8.3789 4.0898 11.832 7.4922 11.586 22.32 18.898 34.938 23.16 6.6523 2.25 13.625 3.5391 20.641 3.8086 8.9414 0.33984 17.566-3.5781 25.406-7.4297 3.7969 3.8203 9.7148 5.1445 14.836 6.1211 6.9844 1.3281 14.078 1.2891 21.074 0.10547 7.7891-1.3164 15.281-4.2383 22.41-7.6445-0.050781 0.20703 0 0.46484 0.18359 0.60547 13.109 9.793 31.051 11.609 46.777 9.1445 3.6445-0.57812 7.2227-1.4609 10.711-2.6211 21.035 8.1211 45.719 7.1914 66.73-1.0703h0.011719c15.746 2.8633 33.531-4.4844 47.695-10.465 5.7188-2.418 11.586-4.5352 17.348-6.8672 5.332-2.1523 10.586-4.4727 15.559-7.3633 5.5312-3.2305 10.91-7.4609 14.078-12.996 1.2266-2.1172 2.1094-4.4453 2.5664-6.9766 1.1992-6.7148-2.5703-20.996-11.625-18.34zm-145.56-60.32c0.53906-0.875 1.1523-1.6914 1.7852-2.4922 1.457-1.832 4.1484-0.30859 2.9062 1.3672-1.3789 1.8555-3.5859 3.2305-5.4766 4.5078-0.50391 0.33984-1.0078 0.66797-1.5195 0.97266 0.71094-1.4766 1.4531-2.9375 2.3047-4.3555zm-6.8086-9.4297c0.39062-0.88672 0.91797-3.5781 1.8867-1.3789 0.53125 1.2383 2.2109 2.7617 1.3086 4.3359-1.5781 2.7422-4.625 4.7305-7.2188 6.4414-0.54688 0.35938-1.1016 0.71094-1.668 1.0547 1.8789-3.5117 4.0664-6.8164 5.6914-10.453zm-12.387-3.4414c1.7305-2.0039 3.5508-3.8711 4.9297-6.1445 2.1445-3.5273 5.0742 1.8125 1.5352 3.8516-2.1836 1.2422-4.6523 2.0664-6.9883 2.9609 0.16016-0.22656 0.32812-0.44141 0.52344-0.66797zm-1.3789-12.625c2.4531 2.5195-1.6562 7.2539-4.2969 5.6992 0.78516-2.6055 2.4609-7.5859 4.2969-5.6992zm168.56 89.523c-1.9219 1.3164-2.8281 3.2305-3.5039 5.2969-1.0078 3.0469-1.5273 6.4414-4.1172 8.8086-5.3984 4.9297-16.715 3.7734-23.477 4.5742-3.5547 0.42578-7.1133 0.80469-10.672 1.1641-15.758 1.5742-31.578 2.543-47.426 2.9609-6.0078-7.2031-14.598-11.555-21.723-17.586-0.99609-0.85156-1.9766-1.7422-2.9102-2.6758-2.8398-2.8281-8.1211-9.0664-0.88672-10.023 7.332-0.98047 15.422 1.2539 22.605 2.4453 12.902 2.1289 27.027 2.7031 40.098 2.0781 6.9102-0.33984 12.523-2.6758 17.09-6.8828 1.8359-1.6953 3.5-3.6836 5.0195-5.9688 10.719 3.4141 20.918 8.0703 29.902 15.809zm-138.88-58.195c-1.0078-1.9805-0.37891-2.7891 1.8945-2.4297 1.5078 2.0039 0.83594 3.4375-0.53125 4.582-0.17188-0.19531-0.34766-0.40234-0.52734-0.61719-0.27344-0.51172-0.55469-1.0195-0.83594-1.5352zm-35.039-26.898c-0.023437 0.039063-0.035156 0.085938-0.054687 0.125-0.29688-0.39062-0.56641-0.81641-0.80469-1.2656 0.28906 0.37891 0.57031 0.76172 0.85938 1.1406zm-58.336 5.6445c1.5508-2.9336 5.5156-6.0938 9.1172-4.9727 4.1445 1.293 6.9336 6.3008 9.6836 9.6562-3.625-0.46484-7.2695-0.8125-10.613-1.6562-2.9609-0.75-5.918-1.3789-8.8477-2.0898 0.23438-0.24609 0.45312-0.55078 0.66016-0.9375zm-77.156-13.953c-0.039063-0.13281-0.085938-0.25781-0.11719-0.40234-0.066406-0.23047-0.41406-0.19531-0.37891 0.0625 0.023437 0.125 0.050781 0.23438 0.0625 0.35938-0.050782 0.085938-0.050782 0.19531 0.042968 0.28125-0.63672 0.14453-1.3164 0.23047-2.0781 0.17188-1.5977-0.09375-3.1406-1.3477-4.4062-2.1992-2.9609-2.0156-6.5312-4.7812-7.3789-8.4375-0.29297-1.2266 5.0898-2.6133 5.8867-2.8945 3.2812-1.1406 6.6875-1.7812 10.02-0.55469 4.0273 1.4844 4.0703 6.5469 4.5469 10.188-3.3945-2.207-7.5078-6.5508-11.883-5.6172-0.30078 0.0625-0.58203 0.33984-0.50391 0.67578 0.62109 2.9531 2.7344 5.1875 5.3086 6.6602 1.0625 0.60547 2.3242 0.61719 3.6133 0.42969-0.76172 0.60547-1.5859 1.0938-2.5078 1.3984-0.085938-0.039062-0.16016-0.082031-0.22656-0.12109zm4.6758-3.1328c-0.27344 0.28125-0.54688 0.55469-0.81641 0.82422-0.95703 0.20703-1.9258 0.39062-2.918 0.37109-2.582-0.050781-5.0391-3.5664-5.8125-6.0195 3.3828-0.25391 6.7383 2.8438 9.5469 4.8242zm-15.539 57.039c0.3125-3.0742 1.6367-5.9961 2.8398-8.832 2.2969-5.3828 3.8516-10.32 5.3945-15.961 1.3086-4.7656 3.1406-9.3516 4.3633-14.145 0.53906-2.0664 0.86328-4.4141 0.69922-6.5508-0.23438-2.8633-1.293-4.9062-2.1406-7.4492 0.050782-0.023438 0.09375-0.035157 0.12891-0.039063 2.8828 2.0391 6.0938 3.457 9.1055 5.2852 4.5312 2.7539 5.9023 8.3086 7.668 12.938 2.5664 6.7188 7.3203 12.336 12.926 16.742 2.8555 2.2383 6.0312 4.0195 9.3789 5.3984-0.6875 1.1328-1.7695 1.8086-2.7266 2.6641-0.44141 0.37891-0.86328 0.8125-1.1914 1.3398-0.90625 1.4297-1.3672 3.207-1.9922 4.7656-2.543 6.2266-14.168 1.0312-19.227 0.28125-5.4375-0.8125-12.543-1.5352-18.289 0.40234-2.4062 0.80078-4.5742 2.0898-6.2734 4.0195-0.58203 0.66016-0.88672 1.0938-1.0352 1.293 0-0.050781 0-0.10156-0.003906-0.15234 0.09375-0.34375 0.26953-1 0.375-2zm-3.5156 21.688c1.1211-0.78906 1.3281-2.2734 1.3438-3.5156 0.11719-4.832 2.0898-10.176 1.8867-15.012 1.9414-2.4297 4.25-4.0938 6.7891-5.1523 9.3125-3.9414 21.758 0.011719 30.852 2.9414 3.2188 1.043 5.9414-0.32031 7.75-3.0078 0.94531-1.4062 1.4375-3.207 2.0664-4.7656 0.42188-1.0586 1.1406-1.8203 1.9102-2.5195 0.93359-0.84375 1.9414-1.6172 2.5977-2.75 2.3477 0.88672 4.7695 1.5625 7.2031 2.0703 8.8594 1.7969 16.953-1.1328 25.594-2.3203 10.617-1.4609 18.688 1.6367 26.898 7.9844 2.8438 2.1953 5.7383 4.4062 9.1289 5.6602 3.1797 1.1719 6.8281 1.0938 10.141 1.6172 8.8047 1.3906 12.867 10.523 22.008 11.246 4.543 0.34766 8.9375-0.16797 13.5 0.52734 4.5977 0.67578 9.1172 1.625 13.789 1.7578 0.39844 0.011718 0.73828-0.20703 0.80469-0.62891 0.50391-3.375 1.1094-6.7422 1.7188-10.109 0.32031-1.7461 0.91797-3.8867 0.50391-5.6602-0.81641-3.4648-7.9648-4.5078-10.527-5.8242-0.29687-0.15625-0.51953 0.35938-0.20312 0.49219 2.4531 1.0312 9.832 4.1055 9.2773 7.4609-0.29688 1.7812-1.25 12.836-3.0781 12.789-4.6484-0.10547-9.2969-1.1914-13.883-1.8633-5.3359-0.77344-10.914 0.46484-16.082-0.99219-4.5352-1.2773-7.8008-6.0195-11.77-8.3789-3.1484-1.8711-6.6523-2.2969-10.219-2.6836-9.4688-1.043-14.98-7.9648-22.953-12.266-5.3945-2.9102-12.324-3.3164-18.77-2.5039 0.8125-0.54297 1.4375-1.3984 1.625-2.418 0.0625-0.29297-0.30859-0.37891-0.47656-0.19531-0.46875 0.52734-0.75 1.2031-1.2227 1.7461-0.73438 0.86328-1.7461 1.1211-2.832 0.85156-0.25781-0.0625-0.37109 0.37891-0.11719 0.46484 0 0.003906 0.011718 0.003906 0.023437 0.003906-1.625 0.30078-3.1992 0.67188-4.6797 1.0938-9.8398 2.7734-20.02 1.3398-29.18-2.8633-9.082-4.168-15.949-12.398-19.527-21.559-1.5977-4.0664-3.0117-7.5586-6.0938-10.742-2.5195-2.6133-6.9219-4.168-10.258-5.9453 1.1641-0.50391 2.2969-1.2891 3.4219-2.3086 0.042969-0.011719 0.089843-0.023437 0.125-0.035156 14.438 5.2695 17.543 20.816 28.129 30.387 4.0391 3.6523 9.0312 5.9648 14.285 7.2539 2.7539 0.66797 5.6016 0.79688 8.418 0.77344 1.9258-0.015625 3.832-0.33203 5.7305-0.52734 0.93359-0.10156 1.8438 0.0625 2.7344 0.18359 0.63672 0.28516 1.3945 0.37109 2.2578 0.16406 0.09375-0.015625 0.11328-0.11328 0.074219-0.17188 0.023437 0 0.035156-0.011719 0.050781-0.015625 0.011719 0 0.023438 0 0.023438-0.011719 0.20703-0.085937 0.29297-0.25781 0.29297-0.42969 0-0.023438-0.011718-0.039063-0.011718-0.0625-0.011719-0.015626-0.011719-0.050782-0.011719-0.074219-0.050781-0.16406-0.17188-0.29688-0.39062-0.33203-0.003906 0-0.015625-0.011719-0.027344-0.011719-0.035156 0-0.0625-0.011719-0.09375-0.011719-0.82422 0.0625-1.6445 0.050781-2.457 0.011719-3.0977-2.5312-3-9.9922-2.9297-13.086 0.039062-1.625 0.11719-3.2422 0.33984-4.8555 0.80469-5.8242 7.5781-3.6953 11.02-2.6445 0.69922 0.21875 1.3984 0.39062 2.1016 0.58203 0.035156 0.074219 0.074219 0.14453 0.11719 0.20703 0.10156 0.21875 0.29688 0.27344 0.52734 0.21875 0.14062-0.039063 0.24609-0.09375 0.35156-0.14453 4.3945 1.1719 8.8477 2.0664 13.305 3.0469 7.7734 1.6953 16.031 0.34766 22.535 5.8633 0.36328 0.30859 0.82422-0.29297 0.45313-0.59375-3.9219-3.3281-8.9023-4.4688-14.027-5.1953-0.011719-0.027344-0.015625-0.0625-0.039063-0.085937-1.4102-1.7188-2.832-3.7344-4.4062-5.5898 0.054688-0.035156 0.10547-0.039063 0.15625-0.085937 0.23438-0.15625-0.011719-0.56641-0.25781-0.4375-0.14453 0.085937-0.26953 0.0625-0.37109-0.027344-0.042969-0.050782-0.089844-0.09375-0.125-0.14062-0.050781-0.074219-0.10547-0.17188-0.14062-0.28125 0.17188 0.039062 0.38672-0.0625 0.37891-0.29688-0.15625-1.9023 0.085938-3.9297-0.82422-5.6797-0.14453-0.26953-0.63672-0.17188-0.55859 0.15234 0.28125 1.1641 0.39062 2.3203 0.51562 3.4648-0.14062-0.23438-0.56641-0.15234-0.51562 0.17188 0.042968 0.28125 0.10547 0.88672 0.23438 1.4961-1.6641-1.6875-3.5156-3.0859-5.7188-3.7734-0.10547-0.035156-0.21875-0.035156-0.33594-0.050781-1.7852-7.8906-1.5117-16.289 1.3594-23.883 1.6953-4.4844 4.5625-8.1523 8.7031-10.613 6.2031-3.6836 10.527-0.71094 14.543 4.168 5.4805 6.668 11.625 12.691 16.832 19.633 2.1016 2.8047 4.2734 5.6016 6.3945 8.4062 0.34766 1.3281 0.95703 2.8047 1.8203 3.9102-0.76562 2.0898-1.5859 4.1367-3.0391 5.875-2.9023 3.4609-5.8398 6.8438-9.1055 9.9023-0.49219 0.125-0.98438 0.23047-1.4766 0.33203-5.3555 1.0312-10.605 0.46484-15.566 3.1211-3.9219 2.1055-6.5234 6.7422-0.35938 6.3008 7.707-0.54297 13.531-3.9648 18.945-8.9922 0.71094-0.17188 1.4102-0.37891 2.1211-0.64844 4.043-1.4961 7.8672-3.5039 11.75-5.3711-0.22266 0.42188-0.44141 0.83984-0.61719 1.293-2.4648 6.4844-5.9453 10.965-10.836 15.91-0.42188 0.42969-0.86328 0.85156-1.3047 1.2656-3.6523 0.0625-7.3086 0.035156-10.645 1.3477-5.5156 2.1719-3.5352 7.8516 2.0234 6.7422 3.5117-0.6875 7.0156-4.0547 9.8516-6.9648 2.8945-0.20703 5.7734-0.50391 8.6367-1.3906 3.7031-1.1523 7.3633-2.9102 10.824-4.8281-1.2383 2.5664-2.4883 5.1133-4.082 7.4766-0.62891 0.17188-1.2656 0.35938-1.9023 0.54688-3.1602 0.90625-7.3086 2.0547-9.6211 4.5859-0.71094 0.78516-2.8633 4.1484-0.88672 4.8555 2.3359 0.83594 5.125-1.3555 6.957-2.6055 2.6133-1.7578 4.5977-3.9531 6.2656-6.3906 1.9336-0.49219 3.8867-0.94531 5.7695-1.4492 2.5938-0.6875 5.1953-1.8828 7.6992-3.3281-1.1016 2.582-2.0625 5.2188-3.0469 7.8633-0.035156 0.10547-0.085938 0.20703-0.11719 0.30859-0.42188 0.14453-0.83984 0.28125-1.2617 0.42969-2.9297 1.0547-15.715 7.0742-10.125 11.266 5.4141 4.0664 9.9219-4.5703 12.422-10.773 1.7461-0.63672 3.5352-1.2031 5.3477-1.8047 4.2852-1.3984 8.5117-3 12.164-5.6406 0.09375 0.085938 0.17188 0.17188 0.26953 0.25781 0.84375 0.78516 1.9609 1.1719 3.0781 1.4102 7.9258 4.9688 15.766 10.148 24.102 14.391 11.77 5.9961 25.316 8.2422 37.891 12.051 13.559 4.1172 27.676 6.4414 41.02 10.543-1.7461 2.0391-3.3359 3.9219-5.0898 5.5781-2.1016 2.0039-4.4453 3.6836-7.582 4.918-7.3867 2.9023-16.738 1.6055-24.477 1.3164-5.4648-0.19531-10.961-0.35938-16.406-0.85156h-0.027344c-1.8086-0.16406-3.6133-0.37109-5.4023-0.61719-0.86328-0.125-1.7188-0.24609-2.5703-0.37891-0.011719 0-0.023438 0-0.035157-0.011719-6.8984-1.0195-13.68-2.1914-20.703-2.2969-6.625-0.09375-7.2188 4.0781-3.7852 8.7148 1.2812 1.7305 2.7266 3.3164 4.2734 4.793 6.8984 6.6211 15.938 11.168 22.746 17.863-0.79687 0.015625-1.5859 0.039062-2.375 0.0625-10.523 0.23047-21.039 0.125-31.551-0.20703-10.035-0.30859-19.953 0.11328-29.926-1.3398-9.0703-1.3281-18.09-3.4883-27.031-5.4922-4.8906-1.0938-9.8633-2.2969-14.426-4.3867-1.4609-0.66797-3.0742-0.80078-4.6914-0.92578-9.6211-2.7734-19.23-5.4766-28.609-9.0781-1.832-0.69922-3.6641-1.3828-5.5039-2.0273-12.387-4.375-24.91-7.2422-38.238-5.8008-8.5117 0.91797-16.648 1.4727-25.168 0.26953-3.9805-0.56641-7.8906-1.5625-11.691-2.8711-3.5273-1.2148-6.5391-3.7969-9.9805-4.9492-0.78516-0.25781-2.3477-0.67188-3.5625-1.2383-1.4766-0.60938-2.4062-1.4961-0.85938-2.5977zm135.86-49.141c-1.2148 1.0586-2.4766 2.0781-3.8203 3.0234-2.625 1.8711-5.9453 2.5938-9.043 3.2812-1.6133 0.35938-3.293 0.66016-4.9375 0.55469-1.25-0.085938 1.8203-2.7383 1.7969-2.7148 1.6445-1.5977 4.0547-2.2734 6.1953-2.7656 3.3125-0.76172 6.5664-0.88672 9.8086-1.3789zm2.7148 13.137c-1.4219 1.25-2.8945 2.418-4.4258 3.5156-1.7266 1.25-4.5977 3.3281-6.7422 1.2031-2.6641-2.6367 4.5312-3.9922 5.5039-4.1484 1.8945-0.30078 3.7773-0.44531 5.6641-0.57031zm16.922 2.6016c-0.10547 0.13281-0.19531 0.27344-0.30078 0.39844-2.2188 2.7383-5.0781 4.8672-8.2109 6.4219-1.7031 0.83984-2.6836 0.015624-1.4219-1.8555 0.72266-1.0703 2.25-1.8633 3.3359-2.4414 2.0742-1.1094 4.3164-1.8828 6.5977-2.5234zm11.609 4.4375c-0.95703 2.2734-2.0938 4.4336-3.5625 6.4531-0.54688 0.58203-1.0742 1.1719-1.6133 1.7578-1.9492 2.2109-3.6328 1.6289-5.0508-1.7461 0.72656-1.0469 2.1016-1.9023 3.1289-2.6641 2.2539-1.6367 4.6289-2.8086 7.0977-3.8008zm163.01 66.113c-0.48828 1.043-1.0547 2.0508-1.6797 3.0195-0.53906 0.83594-1.1211 1.6172-1.7578 2.3633 0.15625-1.082 0.15625-2.1797 0.16406-2.9023 0.078125-3.6523-0.97266-7.2539-1.0859-10.773-0.074219-2.418 0.30078-4.8047 1.7969-7.1172 0.24609-0.39062-0.22266-0.93359-0.61719-0.59375-1.7969 1.6367-2.3867 3.7852-2.4531 6.0469-0.039062 1.2773 0.10156 2.5938 0.27344 3.8711 0.19141 1.4297 1.9922 10.309 0.51562 13.059-0.24219 0.25781-0.5 0.49219-0.75781 0.73828-0.17969 0.074218-0.38672 0.09375-0.62109 0.074218-0.47656-0.0625-0.59375 0.54688-0.25781 0.76172-4.8984 4.3906-11.199 7.5195-16.945 10.137-1.5469 0.69922-3.0898 1.3711-4.6523 2.0156-7.4219 3.1289-15.023 5.8242-22.422 8.9805-13.66 5.8359-27.094 11.043-42.207 9.7109-0.054687 0-0.125 0-0.21875 0.023438 1.3594-0.54297 2.7031-1.1406 4.0273-1.7578 10.125-4.7539 18.008-12.879 27.289-18.848 0.074218 0.074219 0.16406 0.11719 0.28125 0.050781 0.15234-0.074219 0.29687-0.14062 0.44141-0.21875 0.015625-0.003906 0.027344-0.015625 0.039062-0.039062 0.085938-0.011719 0.18359-0.027344 0.33203-0.085938 1.293-0.48047 2.6758-0.66016 4.0586-0.8125 2.7109-0.30859 5.7773-0.34766 8.3945 0.56641 2.543 0.88672-2.4531 3.0234-2.8281 3.1797-1.4219 0.58203-2.8828 1.082-4.3242 1.6133-4.168 1.5352-8.0352 3.4766-12.312 4.7656-0.56641 0.17188-0.25781 0.99609 0.26953 0.95703 1.9023-0.15625 22.77-6.7656 21.074-10.062-1.4609-2.8164-8.6172-2.7266-12.828-1.5 0.95703-0.55469 1.9375-1.0938 2.9336-1.5859 5.9961-2.9844 13.074-4.4023 19.641-5.4336 1.7266-0.26953 3.4492-0.4375 5.1797-0.49219 2.2383-0.10547 4.4844-0.039063 6.7266 0.13281 0.26953 0.015625 4.4141 0.51562 4.4141 0.57812 0.089844 0.69922-4.3242 2.6094-5.3359 2.9414-0.83984 0.28516-0.28516 1.5117 0.54687 1.2656 2.3594-0.71094 3.9688-2.0391 5.8984-3.5273 0.17188-0.13281 0.28125-0.37891 0.23438-0.60547-0.015625-0.17188-0.050781-0.33984-0.085937-0.51562-0.050782-0.29688-0.26953-0.48047-0.55859-0.54688-4.3555-0.875-8.7148-1.0586-13.035-0.75-6.5781 0.44141-13.094 2.0391-19.477 4.0664-11.379 3.6133-20.203 12.707-29.785 19.461-11.484 8.0977-26.074 11.316-39.832 12.902-13.059 1.5-25.855-0.41406-38.238-4.4531 3.7695-1.3281 7.4219-2.9727 10.898-4.918 7.9414-4.418 13.355-11.688 21.332-15.949 5.8242-1.043 11.562-0.95703 17.555-1.2773 4.1055-0.23047 8.2148-0.17188 12.32 0 2.2695 0.09375 4.6992 0.11719 6.8867 0.75 0.11719 1.5234 0.21875 3.0469 0.32422 4.5703-1.082 0.69922-2.1953 1.3672-3.3164 1.9922-0.57031 0.33203-0.23047 1.1797 0.41016 0.94531 4.2852-1.625 9.4961-8.3047 1.3203-9.0234-10.852-0.95703-22.527-1.4297-33.375 0.75 0.042969-0.30859-0.15234-0.66016-0.52734-0.56641-1.5234 0.39844-2.918 0.98438-4.2383 1.7188-0.25781 0.074219-0.51562 0.13281-0.76172 0.20703-0.16797 0.050781-0.20703 0.19531-0.19141 0.33984-5.0469 3.0977-8.9414 8.0625-13.742 11.562-5.0625 3.6836-10.836 6.3398-16.824 8.2422-0.14453-0.050781-0.29297-0.089843-0.42969-0.14062-0.32422-0.11719-0.55859 0.19531-0.5 0.44141-2.1406 0.64844-4.3008 1.2031-6.457 1.6758-8.4492 1.8438-17.238 1.9414-25.77 0.67188-4.1562-0.62891-8.2109-1.7812-12.141-3.2539-2.918-1.0859-8.7188-5.2344-10.641-4.8438 0.30078-0.0625 0.58203-0.41406 0.40234-0.71875-0.09375-0.16797-0.17187-0.32031-0.26953-0.48047 0.86328-0.42578 1.7305-0.84375 2.582-1.2773 2.1328-1.082 4.2227-2.2383 6.3008-3.4375 3.9609 1.0078 8.1875 0.26953 12.246 0.56641 5.1016 0.37109 10.449 1.5234 15.559 1.1328 0.23438-0.011719 0.48047-0.29688 0.41016-0.54297-1.4219-5.0977-8.3906-7.3086-12.711-9.8555 2.0898-1.0078 4.2227-1.9375 6.4297-2.7148 0.71094-0.25781 0.23437-1.2812-0.46484-1.0703-8.4297 2.6055-15.703 7.8281-23.336 12.078-7.5938 4.2383-15.52 7.8516-23.832 10.41-13.531 4.1758-29.953 4.3398-42.141-3.625 0.19141-0.21875 0.16406-0.52734 0.015625-0.72656 3.6523-2.3594 6.8281-5.4766 9.9023-8.7344 3.6523 0.86328 6.8828 2.8125 10.574 3.5859 3.5508 0.75 7.5078-0.11719 10.914-1.0195 3.1602-0.83984 8.1602 0.32031 9.1992-3.7109 0.85156-3.3281-4.25-7.1016-6.5508-8.3906-4.3867-2.4297-9.6953-2.1719-14.285-0.44141 0.60547-0.52734 1.2266-1.0312 1.8555-1.5117 6.2539-4.7422 12.203-8.3438 20.301-7.3867 3.7109 0.44141 7.3477 1.668 10.914 2.6953 1.3828 0.40234 2.6953 0.91797 4.0156 1.4727 5.1133 2.1602 3.3828 6.418 0.73828 9.5859-0.26172 0.32031 0.23047 0.82422 0.53906 0.51562 3.5234-3.4766 5.0273-7.3359 0.28125-10.297-5.8867-3.6719-16.121-5.5039-22.895-4.8906-6.9258 0.61719-13.945 6.6602-19 10.965-7.3242 6.2383-12.48 14.254-20.957 19.191-9.7656 4.3945-19.234 6.6992-30.312 4.9297-9.9609-1.5859-19.633-5.5312-28.312-10.602-8.0938-4.7305-16.574-11.414-20.125-20.34-0.90234-2.2617-1.3047-4.3398-1.3164-6.2656-0.039063-6.5117 4.5195-11.168 10.199-14.695 3.7344-2.3242 7.9648-4.1562 11.688-5.7109 0.28125-0.11719 0.44141-0.48047 0.30078-0.76172-1.2148-2.3242-7.2578-6.5742-4.1992-9.5977 1.4961-1.4844 3.457-2.4414 5.2422-3.5391 1.9805-1.2266 3.4766-3.1289 5.0898-4.793 0.80469 0.75 1.6445 1.3047 2.5195 1.7578 2.1328 1.1094 4.457 1.6133 6.8594 2.8633 5.0234 2.6094 10.051 4.4648 15.586 5.6992 13.586 3.0352 26.453-0.53125 40.047-0.18359 8.2539 0.21875 16.367 2.6328 24.293 5.4922 4.9336 1.7695 9.7891 3.7188 14.543 5.4023 10.098 3.5781 20.59 7.1406 31.129 9.1797 0.050781 0.011719 0.09375 0.011719 0.12891 0 3.293 1.0703 6.5977 2.1328 10.012 2.9453 9.5469 2.25 19.191 4.4414 28.895 5.8633 9.9453 1.4727 20.008 0.83984 30.023 1.1406 9.9688 0.30078 19.941 0.30078 29.914 0.125 17.797-0.32031 35.59-1.4375 53.312-3.2656 3.3828-0.33984 6.7695-0.71094 10.152-1.1133 6.6289-0.78516 13.887-0.28516 20.043-3.2305 1.9023-0.90625 3.7461-2.6055 4.7539-4.4453 1.1328-2.0781 1.3711-4.3945 1.9492-6.5352 0.54688-2.0664 1.4219-3.9609 3.7031-5.3086 0.52734-0.30859 0.20703-1.1641-0.36328-0.89453-0.90625-0.8125-1.8242-1.5859-2.7617-2.3477 6.0547-0.77344 8.7695 7.6445 9.5195 12.453 0.50391 3.4102-0.1875 6.7891-1.5977 9.8555zm-208.1 28.297c4.6094-2.6641 9.1406-5.4766 13.883-7.8516 1.6172 1.0938 3.375 1.9531 5.0859 2.8789 1.7969 0.96875 3.5 2.0039 5.1445 3.207 1.0312 0.72266 1.832 1.6367 2.4062 2.7383-1.2383 0.21875-2.4648 0.23047-3.7031 0.035156-4.4062-0.39062-8.4609-0.80469-12.906-1.0312-3.332-0.16016-6.582 0.29297-9.9102 0.023437zm-57.59-3.707c2.5664-2.7539 5.0977-5.543 7.8125-8.0234 0.09375 0.074219 0.20703 0.11328 0.34766 0.0625 4.5078-1.5859 9.4062-2.1602 13.867-0.074218 3.4219 1.6172 10.871 8.6367 2.5195 9.9609-4.2344 0.66797-8.5781 1.6562-12.875 1.6055-4.125-0.050781-7.7617-2.4258-11.672-3.5312z"/>
  <use x="70" y="644" xlink:href="#v"/>
  <use x="90.550781" y="644" xlink:href="#b"/>
  <use x="104.359375" y="644" xlink:href="#d"/>
  <use x="123.347656" y="644" xlink:href="#c"/>
  <use x="142.242188" y="644" xlink:href="#e"/>
  <use x="155.628906" y="644" xlink:href="#d"/>
  <use x="174.617188" y="644" xlink:href="#l"/>
  <use x="204.410156" y="644" xlink:href="#k"/>
  <use x="224.453125" y="644" xlink:href="#f"/>
  <use x="252.453125" y="644" xlink:href="#j"/>
  <use x="275.433594" y="644" xlink:href="#c"/>
  <use x="294.328125" y="644" xlink:href="#u"/>
  <use x="314.371094" y="644" xlink:href="#c"/>
  <use x="333.265625" y="644" xlink:href="#i"/>
  <use x="359.679688" y="644" xlink:href="#t"/>
  <use x="381.351562" y="644" xlink:href="#b"/>
  <use x="395.15625" y="644" xlink:href="#f"/>
  <use x="413.410156" y="644" xlink:href="#a"/>
  <use x="442.394531" y="644" xlink:href="#h"/>
  <use x="462.914062" y="644" xlink:href="#b"/>
  <use x="476.726562" y="644" xlink:href="#c"/>
  <use x="495.617187" y="644" xlink:href="#i"/>
  <use x="512.285156" y="644" xlink:href="#a"/>
  <use x="531.523437" y="644" xlink:href="#g"/>
  <use x="541.117187" y="644" xlink:href="#a"/>
  <use x="70" y="672" xlink:href="#s"/>
  <use x="82.183594" y="672" xlink:href="#b"/>
  <use x="95.992188" y="672" xlink:href="#a"/>
  <use x="115.226562" y="672" xlink:href="#r"/>
  <use x="154.152344" y="672" xlink:href="#e"/>
  <use x="167.535156" y="672" xlink:href="#q"/>
  <use x="187.46875" y="672" xlink:href="#d"/>
  <use x="216.207031" y="672" xlink:href="#p"/>
  <use x="239.640625" y="672" xlink:href="#a"/>
  <use x="258.878906" y="672" xlink:href="#o"/>
  <use x="278.8125" y="672" xlink:href="#n"/>
  <use x="308.492188" y="672" xlink:href="#h"/>
  <use x="329.015625" y="672" xlink:href="#b"/>
  <use x="342.820312" y="672" xlink:href="#a"/>
  <use x="362.058594" y="672" xlink:href="#g"/>
  <use x="371.65625" y="672" xlink:href="#d"/>
  <use x="390.648438" y="672" xlink:href="#m"/>
  <use x="407.242188" y="672" xlink:href="#e"/>
 </g>
</svg>
