<?xml version="1.0" encoding="UTF-8"?>
<svg width="700pt" height="700pt" version="1.1" viewBox="0 0 700 700" xmlns="http://www.w3.org/2000/svg" xmlns:xlink="http://www.w3.org/1999/xlink">
 <defs>
  <symbol id="v" overflow="visible">
   <path d="m18.766-1.125c-0.96875 0.5-1.9805 0.875-3.0312 1.125-1.043 0.25781-2.1367 0.39062-3.2812 0.39062-3.3984 0-6.0898-0.94531-8.0781-2.8438-1.9922-1.9062-2.9844-4.4844-2.9844-7.7344 0-3.2578 0.99219-5.8359 2.9844-7.7344 1.9883-1.9062 4.6797-2.8594 8.0781-2.8594 1.1445 0 2.2383 0.13281 3.2812 0.39062 1.0508 0.25 2.0625 0.625 3.0312 1.125v4.2188c-0.98047-0.65625-1.9453-1.1406-2.8906-1.4531-0.94922-0.3125-1.9492-0.46875-3-0.46875-1.875 0-3.3516 0.60547-4.4219 1.8125-1.0742 1.1992-1.6094 2.8555-1.6094 4.9688 0 2.1055 0.53516 3.7617 1.6094 4.9688 1.0703 1.1992 2.5469 1.7969 4.4219 1.7969 1.0508 0 2.0508-0.14844 3-0.45312 0.94531-0.3125 1.9102-0.80078 2.8906-1.4688z"/>
  </symbol>
  <symbol id="b" overflow="visible">
   <path d="m13.734-11.141c-0.4375-0.19531-0.87109-0.34375-1.2969-0.4375-0.41797-0.10156-0.83984-0.15625-1.2656-0.15625-1.2617 0-2.2305 0.40625-2.9062 1.2188-0.67969 0.80469-1.0156 1.9531-1.0156 3.4531v7.0625h-4.8906v-15.312h4.8906v2.5156c0.625-1 1.3438-1.7266 2.1562-2.1875 0.82031-0.46875 1.8008-0.70312 2.9375-0.70312 0.16406 0 0.34375 0.011719 0.53125 0.03125 0.19531 0.011719 0.47656 0.039062 0.84375 0.078125z"/>
  </symbol>
  <symbol id="d" overflow="visible">
   <path d="m17.641-7.7031v1.4062h-11.453c0.125 1.1484 0.53906 2.0078 1.25 2.5781 0.70703 0.57422 1.7031 0.85938 2.9844 0.85938 1.0312 0 2.082-0.14844 3.1562-0.45312 1.082-0.3125 2.1914-0.77344 3.3281-1.3906v3.7656c-1.1562 0.4375-2.3125 0.76562-3.4688 0.98438-1.1562 0.22656-2.3125 0.34375-3.4688 0.34375-2.7734 0-4.9297-0.70312-6.4688-2.1094-1.5312-1.4062-2.2969-3.3789-2.2969-5.9219 0-2.5 0.75391-4.4609 2.2656-5.8906 1.5078-1.4375 3.582-2.1562 6.2188-2.1562 2.4062 0 4.332 0.73047 5.7812 2.1875 1.4453 1.4492 2.1719 3.3828 2.1719 5.7969zm-5.0312-1.625c0-0.92578-0.27344-1.6719-0.8125-2.2344-0.54297-0.57031-1.25-0.85938-2.125-0.85938-0.94922 0-1.7188 0.26562-2.3125 0.79688s-0.96484 1.2969-1.1094 2.2969z"/>
  </symbol>
  <symbol id="c" overflow="visible">
   <path d="m9.2188-6.8906c-1.0234 0-1.793 0.17188-2.3125 0.51562-0.51172 0.34375-0.76562 0.85547-0.76562 1.5312 0 0.625 0.20703 1.1172 0.625 1.4688 0.41406 0.34375 0.98828 0.51562 1.7188 0.51562 0.92578 0 1.7031-0.32812 2.3281-0.98438 0.63281-0.66406 0.95312-1.4922 0.95312-2.4844v-0.5625zm7.4688-1.8438v8.7344h-4.9219v-2.2656c-0.65625 0.92969-1.3984 1.6055-2.2188 2.0312-0.82422 0.41406-1.8242 0.625-3 0.625-1.5859 0-2.8711-0.45703-3.8594-1.375-0.99219-0.92578-1.4844-2.1289-1.4844-3.6094 0-1.7891 0.61328-3.1016 1.8438-3.9375 1.2383-0.84375 3.1797-1.2656 5.8281-1.2656h2.8906v-0.39062c0-0.76953-0.30859-1.332-0.92188-1.6875-0.61719-0.36328-1.5703-0.54688-2.8594-0.54688-1.0547 0-2.0312 0.10547-2.9375 0.3125-0.89844 0.21094-1.7305 0.52344-2.5 0.9375v-3.7344c1.0391-0.25 2.0859-0.44141 3.1406-0.57812 1.0625-0.13281 2.125-0.20312 3.1875-0.20312 2.7578 0 4.75 0.54688 5.9688 1.6406 1.2266 1.0859 1.8438 2.8555 1.8438 5.3125z"/>
  </symbol>
  <symbol id="e" overflow="visible">
   <path d="m7.7031-19.656v4.3438h5.0469v3.5h-5.0469v6.5c0 0.71094 0.14062 1.1875 0.42188 1.4375s0.83594 0.375 1.6719 0.375h2.5156v3.5h-4.1875c-1.9375 0-3.3125-0.39844-4.125-1.2031-0.80469-0.8125-1.2031-2.1797-1.2031-4.1094v-6.5h-2.4219v-3.5h2.4219v-4.3438z"/>
  </symbol>
  <symbol id="l" overflow="visible">
   <path d="m12.766-13.078v-8.2031h4.9219v21.281h-4.9219v-2.2188c-0.66797 0.90625-1.4062 1.5703-2.2188 1.9844s-1.7578 0.625-2.8281 0.625c-1.8867 0-3.4336-0.75-4.6406-2.25-1.2109-1.5-1.8125-3.4258-1.8125-5.7812 0-2.3633 0.60156-4.2969 1.8125-5.7969 1.207-1.5 2.7539-2.25 4.6406-2.25 1.0625 0 2 0.21484 2.8125 0.64062 0.82031 0.42969 1.5664 1.0859 2.2344 1.9688zm-3.2188 9.9219c1.0391 0 1.8359-0.37891 2.3906-1.1406 0.55078-0.76953 0.82812-1.8828 0.82812-3.3438 0-1.457-0.27734-2.5664-0.82812-3.3281-0.55469-0.76953-1.3516-1.1562-2.3906-1.1562-1.043 0-1.8398 0.38672-2.3906 1.1562-0.55469 0.76172-0.82812 1.8711-0.82812 3.3281 0 1.4609 0.27344 2.5742 0.82812 3.3438 0.55078 0.76172 1.3477 1.1406 2.3906 1.1406z"/>
  </symbol>
  <symbol id="k" overflow="visible">
   <path d="m10.5-3.1562c1.0508 0 1.8516-0.37891 2.4062-1.1406 0.55078-0.76953 0.82812-1.8828 0.82812-3.3438 0-1.457-0.27734-2.5664-0.82812-3.3281-0.55469-0.76953-1.3555-1.1562-2.4062-1.1562-1.0547 0-1.8594 0.38672-2.4219 1.1562-0.55469 0.77344-0.82812 1.8828-0.82812 3.3281 0 1.4492 0.27344 2.5586 0.82812 3.3281 0.5625 0.77344 1.3672 1.1562 2.4219 1.1562zm-3.25-9.9219c0.67578-0.88281 1.4219-1.5391 2.2344-1.9688 0.82031-0.42578 1.7656-0.64062 2.8281-0.64062 1.8945 0 3.4453 0.75 4.6562 2.25 1.207 1.5 1.8125 3.4336 1.8125 5.7969 0 2.3555-0.60547 4.2812-1.8125 5.7812-1.2109 1.5-2.7617 2.25-4.6562 2.25-1.0625 0-2.0078-0.21094-2.8281-0.625-0.8125-0.42578-1.5586-1.0859-2.2344-1.9844v2.2188h-4.8906v-21.281h4.8906z"/>
  </symbol>
  <symbol id="f" overflow="visible">
   <path d="m0.34375-15.312h4.8906l4.125 10.391 3.5-10.391h4.8906l-6.4375 16.766c-0.64844 1.6953-1.4023 2.8828-2.2656 3.5625-0.86719 0.6875-2 1.0312-3.4062 1.0312h-2.8438v-3.2188h1.5312c0.83203 0 1.4375-0.13672 1.8125-0.40625 0.38281-0.26172 0.67969-0.73047 0.89062-1.4062l0.14062-0.42188z"/>
  </symbol>
  <symbol id="j" overflow="visible">
   <path d="m20.922-1.5156c-1.3125 0.63672-2.6797 1.1172-4.0938 1.4375-1.4062 0.3125-2.8672 0.46875-4.375 0.46875-3.3984 0-6.0898-0.94531-8.0781-2.8438-1.9922-1.9062-2.9844-4.4844-2.9844-7.7344 0-3.2891 1.0078-5.8789 3.0312-7.7656 2.0312-1.8828 4.8047-2.8281 8.3281-2.8281 1.3516 0 2.6484 0.13281 3.8906 0.39062 1.25 0.25 2.4258 0.625 3.5312 1.125v4.2188c-1.1484-0.64453-2.2812-1.125-3.4062-1.4375-1.125-0.32031-2.25-0.48438-3.375-0.48438-2.1055 0-3.7266 0.58984-4.8594 1.7656-1.125 1.168-1.6875 2.8398-1.6875 5.0156 0 2.1562 0.54688 3.8242 1.6406 5 1.0938 1.1797 2.6445 1.7656 4.6562 1.7656 0.53906 0 1.0469-0.03125 1.5156-0.09375 0.47656-0.070313 0.89844-0.17969 1.2656-0.32812v-3.9688h-3.2031v-3.5156h8.2031z"/>
  </symbol>
  <symbol id="u" overflow="visible">
   <path d="m12.766-2.5938c-0.66797 0.88672-1.4062 1.543-2.2188 1.9688-0.8125 0.41797-1.7578 0.625-2.8281 0.625-1.8672 0-3.4062-0.73438-4.625-2.2031-1.2188-1.4766-1.8281-3.3516-1.8281-5.625 0-2.2891 0.60938-4.1641 1.8281-5.625 1.2188-1.4688 2.7578-2.2031 4.625-2.2031 1.0703 0 2.0156 0.21484 2.8281 0.64062 0.8125 0.41797 1.5508 1.0742 2.2188 1.9688v-2.2656h4.9219v13.766c0 2.457-0.77734 4.3359-2.3281 5.6406-1.5547 1.3008-3.8086 1.9531-6.7656 1.9531-0.94922 0-1.8711-0.074219-2.7656-0.21875-0.89844-0.14844-1.7969-0.37109-2.7031-0.67188v-3.8125c0.86328 0.48828 1.7031 0.85156 2.5156 1.0938 0.82031 0.23828 1.6484 0.35938 2.4844 0.35938 1.6016 0 2.7734-0.35156 3.5156-1.0469 0.75-0.69922 1.125-1.7969 1.125-3.2969zm-3.2188-9.5312c-1.0117 0-1.8047 0.375-2.375 1.125-0.5625 0.74219-0.84375 1.7969-0.84375 3.1719 0 1.3984 0.26953 2.4609 0.8125 3.1875 0.55078 0.71875 1.3516 1.0781 2.4062 1.0781 1.0195 0 1.8125-0.36719 2.375-1.1094 0.5625-0.75 0.84375-1.8008 0.84375-3.1562 0-1.375-0.28125-2.4297-0.84375-3.1719-0.5625-0.75-1.3555-1.125-2.375-1.125z"/>
  </symbol>
  <symbol id="i" overflow="visible">
   <path d="m14.312-14.828v3.7188c-1.043-0.4375-2.0547-0.76562-3.0312-0.98438-0.98047-0.21875-1.9023-0.32812-2.7656-0.32812-0.92969 0-1.6211 0.11719-2.0781 0.34375-0.44922 0.23047-0.67188 0.58984-0.67188 1.0781 0 0.38672 0.17188 0.68359 0.51562 0.89062 0.34375 0.21094 0.95703 0.36719 1.8438 0.46875l0.85938 0.125c2.5078 0.32422 4.1953 0.85156 5.0625 1.5781 0.86328 0.73047 1.2969 1.8711 1.2969 3.4219 0 1.6367-0.60547 2.8672-1.8125 3.6875-1.1992 0.8125-2.9922 1.2188-5.375 1.2188-1.0234 0-2.0742-0.078125-3.1562-0.23438-1.0742-0.15625-2.1797-0.39453-3.3125-0.71875v-3.7188c0.96875 0.48047 1.9609 0.83984 2.9844 1.0781 1.0312 0.23047 2.0781 0.34375 3.1406 0.34375 0.95703 0 1.6758-0.12891 2.1562-0.39062 0.47656-0.26953 0.71875-0.66406 0.71875-1.1875 0-0.4375-0.16797-0.75781-0.5-0.96875-0.33594-0.21875-0.99609-0.38281-1.9844-0.5l-0.85938-0.10938c-2.1797-0.26953-3.7031-0.77344-4.5781-1.5156-0.875-0.73828-1.3125-1.8594-1.3125-3.3594 0-1.625 0.55078-2.8281 1.6562-3.6094 1.1133-0.78906 2.8203-1.1875 5.125-1.1875 0.89453 0 1.8359 0.074219 2.8281 0.21875 1 0.13672 2.082 0.35156 3.25 0.64062z"/>
  </symbol>
  <symbol id="t" overflow="visible">
   <path d="m14.953-3.7188h-8.2188l-1.3125 3.7188h-5.2812l7.5625-20.406h6.2656l7.5625 20.406h-5.2812zm-6.9062-3.7812h5.5781l-2.7812-8.125z"/>
  </symbol>
  <symbol id="a" overflow="visible">
   <path d="m9.6406-12.188c-1.0859 0-1.9141 0.39062-2.4844 1.1719-0.57422 0.78125-0.85938 1.9062-0.85938 3.375s0.28516 2.5938 0.85938 3.375c0.57031 0.77344 1.3984 1.1562 2.4844 1.1562 1.0625 0 1.875-0.38281 2.4375-1.1562 0.57031-0.78125 0.85938-1.9062 0.85938-3.375s-0.28906-2.5938-0.85938-3.375c-0.5625-0.78125-1.375-1.1719-2.4375-1.1719zm0-3.5c2.6328 0 4.6914 0.71484 6.1719 2.1406 1.4766 1.418 2.2188 3.3867 2.2188 5.9062 0 2.5117-0.74219 4.4805-2.2188 5.9062-1.4805 1.418-3.5391 2.125-6.1719 2.125-2.6484 0-4.7148-0.70703-6.2031-2.125-1.4922-1.4258-2.2344-3.3945-2.2344-5.9062 0-2.5195 0.74219-4.4883 2.2344-5.9062 1.4883-1.4258 3.5547-2.1406 6.2031-2.1406z"/>
  </symbol>
  <symbol id="h" overflow="visible">
   <path d="m2.5781-20.406h8.7344c2.5938 0 4.582 0.57812 5.9688 1.7344 1.3945 1.1484 2.0938 2.7891 2.0938 4.9219 0 2.1367-0.69922 3.7812-2.0938 4.9375-1.3867 1.1562-3.375 1.7344-5.9688 1.7344h-3.4844v7.0781h-5.25zm5.25 3.8125v5.7031h2.9219c1.0195 0 1.8047-0.25 2.3594-0.75 0.5625-0.5 0.84375-1.2031 0.84375-2.1094 0-0.91406-0.28125-1.6172-0.84375-2.1094-0.55469-0.48828-1.3398-0.73438-2.3594-0.73438z"/>
  </symbol>
  <symbol id="g" overflow="visible">
   <path d="m2.3594-15.312h4.8906v15.031c0 2.0508-0.49609 3.6172-1.4844 4.7031-0.98047 1.082-2.4062 1.625-4.2812 1.625h-2.4219v-3.2188h0.85938c0.92578 0 1.5625-0.21094 1.9062-0.625 0.35156-0.41797 0.53125-1.2461 0.53125-2.4844zm0-5.9688h4.8906v4h-4.8906z"/>
  </symbol>
  <symbol id="s" overflow="visible">
   <path d="m12.422-21.281v3.2188h-2.7031c-0.6875 0-1.1719 0.125-1.4531 0.375-0.27344 0.25-0.40625 0.6875-0.40625 1.3125v1.0625h4.1875v3.5h-4.1875v11.812h-4.8906v-11.812h-2.4375v-3.5h2.4375v-1.0625c0-1.6641 0.46094-2.8984 1.3906-3.7031 0.92578-0.80078 2.3672-1.2031 4.3281-1.2031z"/>
  </symbol>
  <symbol id="r" overflow="visible">
   <path d="m16.547-12.766c0.61328-0.94531 1.3477-1.6719 2.2031-2.1719 0.85156-0.5 1.7891-0.75 2.8125-0.75 1.7578 0 3.0977 0.54688 4.0156 1.6406 0.92578 1.0859 1.3906 2.6562 1.3906 4.7188v9.3281h-4.9219v-7.9844-0.35938c0.007813-0.13281 0.015625-0.32031 0.015625-0.5625 0-1.082-0.16406-1.8633-0.48438-2.3438-0.3125-0.48828-0.82422-0.73438-1.5312-0.73438-0.92969 0-1.6484 0.38672-2.1562 1.1562-0.51172 0.76172-0.77344 1.8672-0.78125 3.3125v7.5156h-4.9219v-7.9844c0-1.6953-0.14844-2.7852-0.4375-3.2656-0.29297-0.48828-0.8125-0.73438-1.5625-0.73438-0.9375 0-1.6641 0.38672-2.1719 1.1562-0.51172 0.76172-0.76562 1.8594-0.76562 3.2969v7.5312h-4.9219v-15.312h4.9219v2.2344c0.60156-0.86328 1.2891-1.5156 2.0625-1.9531 0.78125-0.4375 1.6406-0.65625 2.5781-0.65625 1.0625 0 2 0.25781 2.8125 0.76562 0.8125 0.51172 1.4258 1.2305 1.8438 2.1562z"/>
  </symbol>
  <symbol id="q" overflow="visible">
   <path d="m17.75-9.3281v9.3281h-4.9219v-7.1094c0-1.3438-0.03125-2.2656-0.09375-2.7656s-0.16797-0.86719-0.3125-1.1094c-0.1875-0.3125-0.44922-0.55469-0.78125-0.73438-0.32422-0.17578-0.69531-0.26562-1.1094-0.26562-1.0234 0-1.8242 0.39844-2.4062 1.1875-0.58594 0.78125-0.875 1.8711-0.875 3.2656v7.5312h-4.8906v-21.281h4.8906v8.2031c0.73828-0.88281 1.5195-1.5391 2.3438-1.9688 0.83203-0.42578 1.75-0.64062 2.75-0.64062 1.7695 0 3.1133 0.54688 4.0312 1.6406 0.91406 1.0859 1.375 2.6562 1.375 4.7188z"/>
  </symbol>
  <symbol id="p" overflow="visible">
   <path d="m2.5781-20.406h5.875l7.4219 14v-14h4.9844v20.406h-5.875l-7.4219-14v14h-4.9844z"/>
  </symbol>
  <symbol id="o" overflow="visible">
   <path d="m2.1875-5.9688v-9.3438h4.9219v1.5312c0 0.83594-0.007813 1.875-0.015625 3.125-0.011719 1.25-0.015625 2.0859-0.015625 2.5 0 1.2422 0.03125 2.1328 0.09375 2.6719 0.070313 0.54297 0.17969 0.93359 0.32812 1.1719 0.20703 0.32422 0.47266 0.57422 0.79688 0.75 0.32031 0.16797 0.69141 0.25 1.1094 0.25 1.0195 0 1.8203-0.39062 2.4062-1.1719 0.58203-0.78125 0.875-1.8672 0.875-3.2656v-7.5625h4.8906v15.312h-4.8906v-2.2188c-0.74219 0.89844-1.5234 1.5586-2.3438 1.9844-0.82422 0.41406-1.7344 0.625-2.7344 0.625-1.7617 0-3.1055-0.53906-4.0312-1.625-0.92969-1.082-1.3906-2.6602-1.3906-4.7344z"/>
  </symbol>
  <symbol id="n" overflow="visible">
   <path d="m17.75-9.3281v9.3281h-4.9219v-7.1406c0-1.3203-0.03125-2.2344-0.09375-2.7344s-0.16797-0.86719-0.3125-1.1094c-0.1875-0.3125-0.44922-0.55469-0.78125-0.73438-0.32422-0.17578-0.69531-0.26562-1.1094-0.26562-1.0234 0-1.8242 0.39844-2.4062 1.1875-0.58594 0.78125-0.875 1.8711-0.875 3.2656v7.5312h-4.8906v-15.312h4.8906v2.2344c0.73828-0.88281 1.5195-1.5391 2.3438-1.9688 0.83203-0.42578 1.75-0.64062 2.75-0.64062 1.7695 0 3.1133 0.54688 4.0312 1.6406 0.91406 1.0859 1.375 2.6562 1.375 4.7188z"/>
  </symbol>
  <symbol id="m" overflow="visible">
   <path d="m14.719-14.828v3.9844c-0.65625-0.45703-1.3242-0.79688-2-1.0156-0.66797-0.21875-1.3594-0.32812-2.0781-0.32812-1.3672 0-2.4336 0.40234-3.2031 1.2031-0.76172 0.79297-1.1406 1.9062-1.1406 3.3438 0 1.4297 0.37891 2.543 1.1406 3.3438 0.76953 0.79297 1.8359 1.1875 3.2031 1.1875 0.75781 0 1.4844-0.10938 2.1719-0.32812 0.6875-0.22656 1.3203-0.56641 1.9062-1.0156v4c-0.76172 0.28125-1.5391 0.48828-2.3281 0.625-0.78125 0.14453-1.5742 0.21875-2.375 0.21875-2.7617 0-4.9219-0.70703-6.4844-2.125-1.5547-1.4141-2.3281-3.3828-2.3281-5.9062 0-2.5312 0.77344-4.5039 2.3281-5.9219 1.5625-1.4141 3.7227-2.125 6.4844-2.125 0.80078 0 1.5938 0.074219 2.375 0.21875 0.78125 0.13672 1.5547 0.35156 2.3281 0.64062z"/>
  </symbol>
 </defs>
 <g>
  <path d="m547.19 324.99c-3.8086-5.207-7.9258-10.164-12.926-14.211-2.8047-3.875-7.6562-4.4258-12.449-4.832-0.09375-0.0625-0.21875-0.11719-0.34766-0.125-1.1523-0.074219-2.3086-0.15234-3.4453-0.24609-0.63672-0.085937-1.2891-0.17188-1.9023-0.29688-0.11328-0.023438-0.19531 0.039062-0.25781 0.125-13.492-1.2031-26.887-3.7461-39.355-9.1992-5.5156-2.4062-9.3359-6.5234-14.258-9.7344-2.0156-1.3164-7.1133-1.5859-11.105-2.7383-0.085937-0.28516-0.29688-0.53906-0.66797-0.55469-0.32031-0.023438-0.66016-0.011719-0.98047-0.011719-0.45312-0.17188-0.86328-0.37891-1.2422-0.60547 2.6953-1.6055 5.7383-4.9375 4.9062-7.9648-1.3281-4.6992-7.0039-0.54297-8.2539 1.5234-1.418 2.4062-0.83594 4.418 0.61719 5.9688-2.1211 0.73828-4.543 0.46875-6.6875 0.074218-2.9531-0.53906-5.7617-1.5391-8.6367-2.3477 0.30078-1.4062 0.46875-2.8008 0.49219-4.0312 0-0.46484 0.023438-0.91797 0.039063-1.3672 0.35938-0.15625 0.69922-0.33203 1.0312-0.52734 2.25-1.25 11.441-11.723 4.3125-12.09-5.0391-0.25781-6.4102 5.8242-7.0156 11.598-4.3008 1.4297-9.3867 0.53906-13.977-0.52734-0.41016-0.10547-0.96484-0.21875-1.625-0.34766 1.707-2.4297 2.5195-5.5547 3.0859-8.4688 0.89453-0.33203 1.7969-0.66016 2.7383-0.96875 3.8594-1.2812 6.707-4.3398 6.9883-8.457 0.17188-2.4062-0.8125-5.1523-3.3438-5.6914-3.0195-0.63672-4.7773 3.8086-5.6055 5.8516-1.1211 2.7031-1.5977 5.5781-2.1953 8.3984-1.5195 0.51562-2.9844 0.95703-4.1172 1.3906-4.2617 1.6562-8.293 1.1641-12.668 0.19531-1.2266-0.28125-2.4922-0.59766-3.7734-0.88672 0.77344-1.7188 1.3789-3.4258 1.8945-4.8281 0.8125-2.1719 1.4961-4.4258 2.3359-6.5977 0.81641-0.20703 1.6445-0.42969 2.457-0.6875 4.0938-1.2539 13.973-4.6641 13.184-10.176-0.93359-6.793-12.73 3.3672-14.055 4.8555-1.2891 1.4219-2.25 3.0977-3.0469 4.8984-6.6094 1.6055-13.699 1.4844-20.363 1.4727-3.7188-0.011719-7.3203-0.60547-10.898-1.3047 4.1445-5.2305 7.7461-10.977 10.836-13.887 2.9102-2.7617 6.2148-5.0977 9.0234-7.9844 1.4961-1.5273 2.6367-3.7109 3.8594-5.8359 0.125 0.17188 0.25781 0.33203 0.39844 0.45312 3.2188 7.5664 13.211 9.1914 20.996 10.703 7.5195 1.4609 13.562 5.2344 18.762 10.734 4.2852 4.5234 8.7656 7.9727 14.789 9.7891 6.4297 1.9336 13.293 0.32031 19.527 3.0352 3.9922 1.7461 6.8438 5.207 8.1914 9.2695 1.2266 3.6523-0.45312 6.6484-0.42969 10.207 0 4.3633 3.5391 4.4062 7.2617 4.6328 6.7422 0.42188 13.02-0.13281 18.738-3.9648 0.49219-0.33203 0.074218-1.0586-0.46484-0.79688-6.6289 3.3828-13.098 3.5898-20.332 2.9414-4.6914-0.42188-3.168-4.4414-2.8711-7.6992 0.23438-2.4297-0.16406-4.6719-0.98438-6.957-3.5938-10.051-14.117-10.188-22.887-10.93-7.4609-0.63672-13.492-4.1172-18.652-9.3867-3.9219-3.9922-7.2617-6.8711-12.246-9.4883-8.0352-4.1992-23.016-2.7031-27.781-11.352 1.7812 0.34766 3.9922-0.23438 5.4531-0.63672 2.1172-0.57813 11.34-6.4844 5.2852-8.5859-4.793-1.6641-8.293 0.39062-11.258 3.6133-0.16406-0.61719-0.51562-1.0586-1.3672-1.2266-5.5039-1.082-7.2031-10.062-9.168-14.301-1.8711-4.0078-4.7227-7.9922-7.7891-11.199-3.6016-3.7695-9.1914-2.3906-12.473-6.832-2.9414-3.9922-6.1953-7.6328-9.8672-10.949-3.8086-3.4258-3.1484-10.32-4.418-14.93-0.6875-2.5703-1.7422-6.1328-4.3125-7.3984-2.5703-1.2773-5.8867-0.28125-8.9922 0.17188-0.75-0.44141-1.6133-0.59375-2.6445-0.33984-0.42187 0.10156-0.77344 0.24609-1.1094 0.42188-0.19531-0.027344-0.41406-0.074219-0.59375-0.125-0.050782-0.011719-0.074219 0.039062-0.035157 0.0625 0.11719 0.074219 0.25781 0.13281 0.37109 0.19531-4.5703 2.8281 0.98438 12.738 4.9688 18.234-1.8828-0.46484-3.9805-0.027344-5.9766 1.3047-2.1406 1.4297-2.7656 5.2461-3.6641 7.3477-1.9922 4.5742-4.5234 8.9219-7.1016 13.188-2.3984 3.9805-5.6172 7.3477-7.9141 11.402-2.418 4.2656-4.1367 9.2109-7.8008 12.645-3.8398 3.6133-5.5781 6.1641-3.0703 11.484 0.19531 0.42578 0.90625 0.125 0.75-0.30859-1.2656-3.3047-1.5234-6.3047 1.2812-8.8633 1.4102-1.2891 2.8516-2.3203 3.9414-3.9297 3.5-5.1758 5.75-10.988 9.5664-15.926 3.4492-4.4258 6.2539-9.1055 8.9102-14.066 1.1406-2.168 2.4531-4.5078 3.2188-6.8555 1.3477-4.1289 5.6992-8.1875 9.1289-5.7305 0.57812 0.72656 1.0703 1.293 1.4375 1.6445 0.015625 0.035156 0.0625 0.023437 0.085938 0.039063 0.21875 0.33203 0.41016 0.69531 0.62891 1.1016 0.023438 0.0625 0.0625 0.10547 0.10547 0.13281 0.14453 0.16406 0.33984 0.18359 0.51562 0.125 0.023437 0 0.0625-0.015624 0.085937-0.027343 0.023438-0.011719 0.039063-0.011719 0.050781-0.023438 0.23047-0.11328 0.40234-0.33984 0.32031-0.66016-0.86328-3.4258-0.62891-17.18-4.418-21.578 1.4297-0.125 2.8945-0.37109 4.3633-0.44141 6.4102-0.30859 7.375 9.0547 7.8516 13.738 0.875 8.5508 8.2773 13.121 13.184 19.582 1.8633 2.4531 3.7734 3.5508 6.7578 4.3359 6.1211 1.6172 8.7656 6.0312 12.039 11 2.7266 4.1719 3.6953 9.2383 6.4102 13.469 0.75 1.1406 1.8633 2.6875 3.0703 3.3672 0.49219 0.26953 1.0938 0.41016 1.6055 0.66016-0.039062 0.085937-0.0625 0.17187-0.0625 0.27344 0.039063 0.6875 0.11328 1.3477 0.23438 1.9648-0.0625 0.085937-0.085937 0.16406-0.10547 0.24609-2.6641 3.4883-4.9766 7.5078-7.6562 9.8047-4.5469 3.8867-8.6875 7.5703-12.152 12.5-1.6562 2.3594-3.2812 4.793-5.0391 7.0664-4.9297-0.98438-9.8164-2.0273-14.879-1.8828-4.7773 0.14453-12.152 5.8477-6.1953 10.332 8.1719 6.1562 15.309 0.70703 21.391-6.5234 0.6875 0.16406 1.3984 0.33203 2.0898 0.48047 4.4961 0.99609 9.043 0.76172 13.648 0.75 5.4336-0.015625 10.852-0.32031 16.16-1.418-1.3672 3.4766-2.3125 7.2852-3.7422 10.602-3.4062-0.67578-6.8438-0.96875-10.109 0.42188-1.8203 0.76172-5.6055 2.4688-4.8789 5.1445 0.78906 2.8516 4.9062 3.6719 7.4102 3.5898 4.0312-0.14062 6.6875-3.6016 8.5391-7.3477 2.7617 0.62891 5.4258 1.4102 7.5664 1.6797 5.0625 0.63672 9.0273-0.72266 13.332-2.3281-0.60547 2.6445-1.4609 5.207-3.1602 7.4922-5.7188-0.92969-15.238-1.6289-16.18 3.5156-1.2422 6.9648 13.977 0.44141 15.797-0.88672 0.33984-0.25781 0.64844-0.53906 0.96484-0.82422 5.6406 1.0938 11.207 2.8164 16.684 1.1328-0.12891 1.5352-0.23438 2.9961-0.34766 4.25-1.0938-0.25781-2.1836-0.46875-3.3047-0.60547-4.7773-0.56641-13.996 6.1562-6.8945 9.5469 6.1562 2.9453 9.8789-1.7969 11.465-7.0156 0.99219 0.29688 1.9766 0.61719 2.9102 0.89453 3.5391 1.0703 7.2109 2.2227 10.836 1.8633-2.0625 0.54687-4.0781 1.25-5.9375 1.8945-0.88672 0.32031-1.5469 0.89453-2.1719 1.5508-2.3594 2.4688-4.9727 3.0078-8.1328 3.332-0.51562 0.0625-0.91797 0.47656-0.76172 1.0078 2.0391 7.668-4.0938 5.6914-8.8203 4.1289-2.1836-0.71875-4.3945-1.3281-6.5977-1.9141-3.0078-0.8125-5.9883-1.5859-8.9414-2.5938-11.414-3.8789-22.871-7.6562-34.305-11.492-4.9883-1.6797-10.035-3.2695-14.965-5.1172-5.2266-1.9414-10.051-4.918-15.043-7.375-3.0859-1.5117-7.0273-3.625-10.762-4.043 4.1758-1.7695 8.3164-4.1445 11.363-7.375 1.8438-1.9531 3.3047-4.2188 4.1367-6.8438 2.7031-8.6016-3.8789-15.223-11.188-18.762-0.0625-0.039063-0.11328-0.074219-0.17188-0.10156-0.0625-0.011718-0.10547-0.027343-0.14453-0.039062-2.0156-0.94531-4.0781-1.668-6.0078-2.1211-0.17188-0.039062-0.32031-0.003906-0.45312 0.050782-7.0508-2.0273-14.168-3.0859-21.59-1.0469-6.7695 1.8438-12.312 6.6133-17.461 11.246-7.1172-1.3555-11.73-6.7383-17.73-10.434-4.957-3.0703-12.246-2.625-17.77-2.1172-3.5625 0.32031-6.0078 2.2383-7.8516 5.1523-0.27344 0.42188-0.51562 0.86328-0.75 1.293-0.0625-0.23047-0.27344-0.42188-0.57812-0.33203-6.2383 2.0039-15.281 1.2031-19.98 6.5234-3.8594 4.3633-5.1875 13.234-4.4727 18.832 0.75 6.043 8.3555 7.5195 11.426 11.918 3.1289 4.4648-0.10547 11.426-1.3906 16.039-1.0547 3.7344-1.2891 7.5781-1.2031 11.434-0.89453-0.125-1.8047-0.23047-2.6953-0.28516-3.5625-0.25781-5.5391 1.5234-6.6875 4.0781-0.30859-0.027344-0.58984 0.33984-0.32031 0.61719 0.015624 0.003906 0.015624 0.015625 0.039062 0.027344-0.027344 0.074219-0.050781 0.14453-0.09375 0.20703-0.015625-0.26953-0.37891-0.25781-0.42188 0.011719-0.11719 0.91797-0.21875 1.8438-0.33203 2.7656-0.46484 2.4062-0.61719 4.9727-0.8125 7.0039-0.015625 0.10547 0.023437 0.18359 0.09375 0.23438-0.09375 0.93359-0.15234 1.8711-0.21875 2.8242-0.074219-1.3906-0.21875-2.7617-0.45312-4.1172-0.015625-0.12891-0.21875-0.125-0.25781 0-0.98438 5.0508-1.1094 10.395-1.5 15.566-0.039062 0.59375-0.10547 1.1797-0.14453 1.7695-0.58203 6.3164-0.92578 12.59-0.33203 18.91 0.050781 0.50391 0.10547 0.99609 0.16406 1.4961 0.17188 1.3438 0.42188 2.6758 0.71875 3.9688 1.668 7.0039 5.2305 13.223 10.785 18.117 15.102 13.289 39.48 14.41 58.363 13.41 0.34766-0.023438 0.66797-0.29297 0.66797-0.66797-0.085937-4.1172 2.5078-2.1836 4.6914-0.51562 1.1016 0.85156 3.5391 0.21094 4.6328-0.25781 2.6836-1.1758 5.9648-2.4023 8.2109-4.2969 2.2734-1.9258 2.918-3.8594 4.1328-6.0703 2.1953-0.99219 4.375-2.1523 6.5234-3.5234 3.293-0.64453 6.5508-1.4375 9.918-1.6875 4.9297-0.34766 10.801-1.7578 15.27 0.62891 2.8711 2.6953 5.4805 5.6289 7.9961 8.7031 1.3477 1.668 2.6562 3.4062 4.0273 5.1055 3.9492 6.4414 7.9336 9.6562 15.73 8.8242 0.30859-0.035156 0.52734-0.23438 0.62891-0.48047 4.9492 4.1953 11.855 5.0391 18.391 5.1016 7.7656 0.0625 15.566 0.18359 23.348 0.14062 3.1094 1.4102 6.1953 3.4062 9.5977 3.625 5.8125 0.35156 11.535-0.32422 17.266-1.2109 4.9727-0.77344 9.7266-1.3672 13.895-4.3398 2.3984-1.7188 3.1289-4.5625 4.0039-7.2969 0.49219-0.48047 0.96484-0.96875 1.4375-1.4375 1.4297 1.8711 3.9414 2.2188 6.4727 2.2734 5.9961 0.12891 12.566 0.23438 18.328-1.5625 7.1172-2.2344 13.887-7.2852 20.262-11.094 5.3438-3.1992 10.41-6.2617 15.973-8.4336 0.61719-0.24219 1.2383-0.47656 1.8633-0.68359 1.9766-0.69922 4.0195-1.2656 6.1719-1.6758 7.0156-1.3711 13.355-3.9102 19.359-7.8125 2.7656-1.793 5.875-4.0039 8.3047-6.6602 1.5-1.6562 2.7539-3.4766 3.4648-5.4922 2.4609-6.7656-0.5625-12.086-4.5586-17.566zm-115.37-57.137c0.29688-0.63672 0.57813-1.2773 0.85156-1.9141 1.0312-2.4297 2.4297-2.6484 4.1602-0.67188-0.24609 1.1094-0.93359 2.1523-1.5352 3.1094-1.2422 1.9766-2.75 3.3086-4.4062 4.2188 0.17969-1.6094 0.47656-3.1914 0.92969-4.7422zm-14.871-5.8594c0.42969-2.3359 1.0312-4.5742 1.8203-6.8203 0.27344-0.77344 2.7891-7.1406 5.2539-3.875 1.9023 2.5195 0 6.3672-1.6523 8.2227-1.1719 1.2891-3.3047 2.2617-5.5508 3.0781 0.039063-0.21875 0.082032-0.41016 0.12891-0.60547zm-16.426-13.262c0.80078-1.4375 2.1523-2.582 3.3438-3.6719 1.0586-0.94531 2.2109-1.7578 3.3828-2.5312 1.8555-1.2266 7.3359-1.2266 4.6406 1.832-2.7266 3.0703-7.2969 4.5938-11.043 5.9453-0.45312 0.15625-0.88672 0.30078-1.3398 0.44141 0.31641-0.69141 0.63281-1.3594 1.0156-2.0156zm-4.9961-31.168c1.6055-0.64844 3.2812-0.98438 5.0117-1.0547 2.5312 1.4609 3.0078 2.8516 1.418 4.1758-0.70703 0.77344-1.6953 1.293-2.5938 1.793-1.2656 0.69922-2.6758 1.1016-4.0781 1.4297-0.75 0.15625-1.5234 0.24609-2.2969 0.24609-2.7266 0.11719-1.4297-1.0312-2.1602-2.1016 1.2578-1.9688 2.707-3.6875 4.6992-4.4883zm-59.531-51.113c0.26953 2.0898 0.39062 4.2383 0.71094 6.3398-0.53906-0.51562-1.1133-0.91797-1.707-1.2148-1.4609-2.1016-2.7031-4.375-3.8789-6.5977-1.082-2.0391-1.9336-4.1758-2.4688-6.4297-0.32031-1.3594 0.28125-4.1484 1.4844-5.1562 0.75 0.20703 1.5234 0.29297 2.3203 0.29297 0.0625 0.0625 0.125 0.10156 0.18359 0.17188 2.6914 2.8516 2.8711 8.9453 3.3555 12.594zm15.98 93.875c-3.8203 0.94531-12.348-2.7383-7.5938-7.7383 1.7188-1.8438 4.9766-1.793 7.2617-1.7461 3.8867 0.0625 7.7383 0.98047 11.555 1.8945-2.9727 3.4961-6.4297 6.3867-11.223 7.5898zm39.934 5.293c-1.0078 1.8555-2.3359 3.5-4.1172 4.6641-1.4219 0.93359-10.383 0.42969-7.6562-2.8945 2.8711-3.5 7.5195-3.3203 12.09-2.4062-0.10156 0.21094-0.21484 0.42578-0.31641 0.63672zm11.98 11.035c-1.668 0.53125-3.3828 0.77344-5.1133 0.54297-1.1641-1.9414-0.77344-2.9961 1.1328-3.1406 0.59375-0.18359 1.2031-0.33203 1.8203-0.44141 2.8516-0.59766 5.6797-0.42969 8.5117 0.015624-1.8281 1.4727-4.3359 2.3477-6.3516 3.0234zm24.207 5.6016c-1.043 3.7109-4.4453 5.4336-8.0859 4.8984-2.5547-2.375-2.5078-4.2891 0.10547-5.75 0.94531-0.60547 1.9922-0.94531 3.1367-1.0195 1.668-0.20703 3.4062 0.074219 5.1055 0.51562-0.078125 0.51953-0.16016 0.98047-0.26172 1.3555zm96.453 26.062c0.34766 0.011719 0.58984-0.20703 0.67188-0.46484 2.1719 0.26953 4.2266 0.71094 6.2656 1.6562 0.16797 0.050781 0.32031 0.10547 0.44141 0.16406 0.37109 0.35156 0.75 0.71094 1.1406 1.082 0.125 0.27344 0.16406 0.60547 0.10547 0.97266-0.19531-0.039063-0.39062-0.074219-0.59766-0.10156-0.96484-0.15625-2.0156-0.23438-2.9414-0.32031-6.6367-0.58984-13.871 2.3867-19.414 6.5742-1.4727 1.1016-2.8164 2.2969-4.0156 3.5273-4.9297 5.1055-1.3672 9.3516 3.8789 11.742 3.0703 1.3906 6.3516 2.1289 8.8828 4.207-3.7969-0.039063-7.7773-0.49219-11.379 0.86719-3.4375 1.2812-5.1562 4.0195-8.6406 4.9609-0.57812 0.16406-1.2031 0.27344-1.8828 0.32031-3.7109 0.24609-7.4414 0.23438-11.156 0.16406-0.085937-0.074219-0.16406-0.14062-0.29688-0.16406-3.2812-0.60547-6.1094-2.2969-9.0664-3.7695-3.8984-1.9414-8.0547-3.4883-12.027-5.2656-8.2695-3.6953-16.605-7.1523-25.531-8.8555-8.2109-1.5625-16.082-0.39844-23.922 2.2617-7.0273 2.3867-10.098 7.8164-13.957 13.707-1.2266-0.17188-2.4297-0.37891-3.6523-0.63672-5.8242-1.2031-10.535-3.6406-14.941-6.8438 2.8125 0.42188 5.6172-0.52734 7.8906-2.543 3.5859-3.1602 1.7812-8.1211-0.38672-11.391-0.76172-1.125-1.5352-2.207-2.1602-3.293-1.1719-2.0625-1.7969-4.1992-0.59375-6.9062 2.0391-4.6016 9.832-2.8828 13.48-2.1953 8.8359 1.668 16.957 5.7617 25.879 7.0898 8.8867 1.3164 17.594 3.7109 26.281 5.7852 3.1094 0.73828 5.8984 0.12891 8.7031-1.2031 3.168-1.5117 3.8594-3.4648 8.3984-2.7383 2.1094 0.33984 4.168 0.95703 6.2891 1.2773 8.0195 1.2305 15.559-4.1289 23.391-4.6914 0.89453-0.0625 1.7969-0.10547 2.7031-0.11719h0.003906c3.5742-0.10156 7.1641 0.035156 10.68-0.50391 2.9727-0.46484 5.4258-2.543 8.1406-3.6523 1.0586-0.42969 2.1484-0.71484 3.3359-0.70313zm16.578 37.227c-1.3438-6.457-2.0391-12.902-7.0039-17.645-5.6172-5.3711-15.289-6.6758-22.277-9.6953 1.9531-1.3984 4.1172-2.5547 6.3906-3.457 7.2031 1.3906 15.094 5.8008 21.012 9.9023 4.2188 2.9102 6.9883 7.0898 7.4297 12.227 0.19531 2.5195 0.26953 4.7773 1.1797 7.0742-2.3203 0.53906-4.5938 1.1602-6.793 1.9141 0.0625-0.10156 0.10547-0.20703 0.0625-0.32031zm-24.91-24.305c4.918 1.9258 10.125 3.1797 14.758 5.8086 7.6055 4.3008 6.2539 12.027 9.4258 18.809 0.039062 0.09375 0.11719 0.12891 0.17188 0.17188-3.1797 1.1211-6.1562 2.5469-8.7852 4.457 2.9961-5.8086 2.6328-11.73-2.1289-16.742-1.2656-1.3281-2.6953-2.3359-4.2188-3.1367-5.9961-3.168-13.5-3.1797-18.801-7.4609 0.42188-0.57813 0.91797-1.1914 1.5625-1.8555 0.875-0.89453 1.8203-1.7188 2.8281-2.4922 1.6719 0.96875 3.4062 1.7539 5.1875 2.4414zm-35.816 22.328c-4.9727-0.10547-9.9297-0.15234-14.902 0.3125-4.8047 0.4375-9.3984 1.9023-14.129 2.8633-0.72656 0.15234-1.4844 0.27344-2.2109 0.41016-0.023437-0.011719-0.039062-0.035156-0.085937-0.054688-15.047-6.0469-31.012-3.2969-46.543-5.293 1.7812-2.6094 3.3828-5.3125 5.3828-7.7617 3.2188-3.9648 8.2539-5.2969 12.977-6.5742 8.8555-2.4062 17.754-1.082 26.383 1.5508 7.9961 2.4297 15.539 6.2383 23.152 9.6211 3.0273 1.332 6.5 3.5703 9.9766 4.9258zm-34.453-65.738c1.2422-6.25 6.4531-1.707 3.8594 1.1914-0.8125 0.90625-1.8203 1.6445-2.8047 2.3281-0.0625 0.039063-0.125 0.0625-0.17188 0.09375-0.82031-0.90625-1.1992-2.0742-0.88281-3.6133zm1.0703 5.5156c-0.25781 0.027344-0.49219 0.074219-0.75 0.125 0.19531-0.074218 0.39062-0.15234 0.59766-0.23438 0.050781 0.03125 0.089843 0.066407 0.15234 0.10938zm-105.34-12.195c5.9375 3.1094 11.781 5.6172 18.133 7.7773 15.238 5.207 30.547 10.188 45.809 15.383 3.3047 1.1211 6.7539 1.7578 10.125 2.7031 1.6875 0.48047 3.3672 1.2031 5.0742 1.6758 0.72656 0.19531 1.4609 0.34766 2.2109 0.42578 2.5312 0.23437 4.5938-0.10547 5.5547-2.625 0.24609-0.64844-0.28516-4.1758 0.20703-4.2266 2.2109-0.23438 3.5625 0.085937 5.6016-0.98438 1.9258-1.0195 2.25-3.3438 4.6328-4.1992 3.1094-1.1133 7.1016-2.3594 10.488-2.418 0.0625 0.023438 0.125 0.050782 0.19531 0.085938 2.9336 1.1406 6.2539 1.2617 9.3008 1.9375 4.3516 0.96875 7.7383 5.6055 11.426 8.0078 14.066 9.1289 33.164 11.426 49.605 12.512 0.45312 0.085938 0.92969 0.15234 1.3906 0.21875-1.1523 0.44141-2.2227 1.0703-3.3828 1.7578-0.72656 0.42969-1.4492 0.78516-2.1992 1.082-4.4648 1.7695-9.4375 1.3984-14.281 1.5352-0.62891 0.023438-1.2617 0.0625-1.8828 0.13281-8.332 0.88672-16.094 5.8633-24.594 4.5703-2.5938-0.40234-5.5664-1.9141-8.2109-1.1914-4.9492 1.3477-7.8398 4.9883-13.637 4.1172-3.4062-0.51563-6.5352-2.3125-9.9688-2.6953-5.5273-0.60938-10.863-2.0156-16.312-3.0586-8.4688-1.6289-16.312-5.2188-24.719-6.9453-4.7305-0.98047-10.113-2.1836-14.426 0.63672-3.3047 2.1523-3.0469 6.3164-1.5859 9.4062 0.0625 0.15234 0.14062 0.30859 0.21875 0.45312 1.6055 3.0469 4.4141 5.2578 4.7539 8.8867 0.55469 6.0195-6.5117 8.0703-11.02 6.2266-1.7578-1.4062-3.4883-2.9219-5.2305-4.5195-5.1016-4.6797-9.1562-6.2148-16.012-4.7539-4.1562 0.89453-7.9727 1.7969-12.285 1.8086-4.4961 0.015625-8.6875-3.625-11.895-6.3281-1.6172-1.3477-3.2031-2.7031-4.8047-4.0156-3.7734-3.0352-7.6992-5.7852-12.387-7.3477-7.4766-2.5078-16.98 0.95703-24.332 2.3672-4.4727 0.85156-9.043 1.707-13.562 2.1602-4.0156 0.41016-7.5547-0.28125-11.453 1.0977-0.25781 0.09375-0.45312 0.41406-0.28125 0.66016 0.83594 1.1914 1.6445 2.4062 2.418 3.6328 1.3984 2.1914 2.75 4.4258 4.0938 6.6523-1.9648 0.13281-3.8984 0-5.7617-0.39844-1.25-1.8125-2.6367-3.7344-3.9688-5.7305-4.3867-6.5-8.5195-13.859-7.4609-21.234 0.039063-0.24609 0.085938-0.50391 0.13281-0.76172 1.6445-8.5117 13.16-11.441 20.082-13.809 10.207-3.4766 19.891-8.3086 30.117-11.809 3.9688-1.3594 7.9961-2.6133 12.008-3.9102l0.44141-0.125c0.035157 0.16406 0.21875 0.29688 0.39062 0.18359 6.582-4.1992 15.258 1.8555 21.242 4.9922zm-48.152-37.402c0.074219-0.0625 0.15234-0.11719 0.23438-0.18359 10.875-8.0234 22.855-6.4727 34.922-2.7891 8.5117 3.3281 16.402 10.836 11.754 20.547-0.60547 1.293-1.4375 2.4805-2.3867 3.5625-1.4727 1.6367-3.2539 3.0352-5.1875 4.25-0.039063-0.10156-0.16406-0.19531-0.29688-0.14062-5.1641 1.7188-9.7344 4.7539-14.941 6.4414-0.35938 0.125-0.72656 0.23438-1.0938 0.35938-5.957 1.5508-12.152 2.2109-18.199 1.0547-4.0078-0.77344-7.9961-2.6836-11.301-5.1875-0.55469-0.40234-1.0703-0.82422-1.5625-1.2539-1.4844-1.2656-7.3086-5.4766-6.5508-8.1484 1.0703-1.7461 2.0781-3.5273 3.1094-5.2695 3.0586-5.1445 7.5156-8.8906 11.5-13.242zm-39.102-6.9375c1.082 0 2.1719 0.023438 3.2188 0.027344 6.7695 0.042968 10.848 2.9453 16.031 6.8672 3.4062 2.5703 6.7812 4.7539 10.875 5.6953-0.11328 0.10156-0.23438 0.21875-0.34766 0.32031-0.57812 0.51562-1.1328 1.0312-1.7188 1.5508-7.0508 2.2734-12.707 6.8555-20.66 6.6211-10.91-0.33203-5.8594-10.148-4.543-16.367 0.0625-0.30859-0.39062-0.54297-0.52734-0.23047-1.6875 3.8789-6.2344 12.215-1.5117 15.715 6.1758 4.5469 15.898 1.6641 23.129-2.1406-5.5547 4.6797-11.727 8.7148-19.207 9.0234-11.066 0.45312-17.926-17.41-12.176-25.891 2.2305-1.0352 4.8242-1.1914 7.4375-1.1914zm-11.273 4.7578c0.63672-1.1523 1.4492-2.0156 2.3594-2.6836-3.6016 5.7305-0.085937 16.234 3.1914 21.094 4.6719 6.9336 14.363 5.6172 20.855 2.5312 5.3438-2.543 9.8008-6.3906 14.191-10.355-2.1016 2.5938-3.6641 5.5781-5.3828 8.4297-5.0117 8.293-12.492 15.754-21.887 18.832-11.879 3.8867-17.961-10.27-20.109-19.227-0.25781-1.0547-0.55469-1.9766-0.93359-2.8398 2.0977-5.4805 4.7969-10.68 7.7148-15.781zm-1.9922 1.3555c-1.4375 2.6094-2.6562 5.4531-3.8984 8.0859-0.49219 1.0078-1.3047 4.0938-2.25 5.4805-0.6875-1.2812-1.6289-2.4297-2.9336-3.5391-2.4297-2.082-5.6562-2.6758-5.9258-6.3008 4.4414-1.9453 10.078-2.1289 15.008-3.7266zm-13.738 52.652c0.875-3.4141 2.418-6.8438 2.5938-10.398 0.24609-5.0859-1.8711-8.0586-5.9453-10.812-3.2539-2.1992-6.082-3.9297-6.6211-8.2305-0.46875-3.6641 0.72656-7.9414 1.7422-11.441 1.0938-3.8516 3.2305-6.082 5.8867-7.5-0.18359 2.2734-0.35938 3.0625 1.9766 4.3906 2.6133 1.4727 4.8047 2.4805 6.6484 5.0391 0.10547 0.16797 0.19531 0.34766 0.29688 0.53906-0.015625-0.011718-0.039062 0-0.085937-0.023437-0.25781-0.10156-0.42969 0.33203-0.19531 0.46484 0.23438 0.14062 0.46875 0.26953 0.6875 0.39062 0.89453 2.1172 1.1094 4.8281 1.6875 6.8711 1.8633 6.5742 7.1016 15.773 14.797 16.453 4.543 0.39063 8.9805-1.2148 13.008-3.6953-2.5938 2.0781-5.332 4.0078-8.2539 5.7734-10.012 6.0195-19.438-4.8047-23.172-13.242-0.085937-0.18359-0.40234-0.050781-0.33984 0.14062 2.5938 7.0508 9.8398 17.203 18.625 15.91 5.125-0.75 9.8555-4.5312 13.789-7.707 5.2305-4.2188 9.9414-9.0039 13.797-14.531 0.86328 2.6445 5.125 6.1055 8.5117 8.4883 1.8711 1.3281 3.5 2.3242 4.1172 2.6758 5.5547 3.1094 11.688 3.7852 17.781 3.1914-2.8281 0.93359-5.6602 1.9102-8.4688 2.9727-10.68 4.0273-21.402 8.2656-31.941 12.645-5.4336 2.2617-11.711 6.2383-12.305 12.75 0 0.027344-0.011719 0.074219-0.011719 0.10156-0.62891 7.2969 3.1211 14.559 7.4492 20.938 1.2383 1.832 2.543 3.5859 3.7852 5.2461-2.4961-0.75-4.9062-2.0273-7.2031-3.8984-0.33984-0.28516-0.67578-0.57812-1.0078-0.88672-3.875-3.5625-6.5508-8.293-10.566-11.711-0.79688-0.67578-1.6289-1.3164-2.4922-1.9258-4.3867-3.1094-9.5586-5.3555-14.844-6.6992-1.7188-0.42969-3.4609-0.77734-5.1875-1.0312 0.1875-3.793 0.51562-7.5391 1.4609-11.246zm-1.9531 12.461c0.0625 0.035157 0.14062 0.039063 0.21875 0.035157 1.0703 0.20703 2.1602 0.45312 3.207 0.69922 0.55469 0.13281 1.1211 0.26953 1.6953 0.42187 5.2969 1.3789 10.207 3.5 14.5 6.625 2.418 1.7461 4.6406 3.8203 6.6133 6.2656 1.8047 2.2109 3.6055 4.3867 5.5781 6.3164 2.8008 2.75 5.957 5.0273 9.918 6.3047 0.55469 0.18359 1.1094 0.30859 1.6758 0.42188 0.039063 0.050782 0.085938 0.10156 0.10547 0.15234 0.21875 0.26953 0.57812 0.20703 0.72656 0 6.0195 0.86328 12.543-1.5625 17.988-3.5156 7.9727-2.8789 15.457-6.1445 24.07-3.9219 5.3594 1.3828 11.453 6.0078 12.066 11.891 0.57812 5.3203-6.4297 8.2227-10.355 9.6953-4.4336 1.668-8.8477 3.2695-11.555 7.375-4.0039 6.0273 0.6875 14.672 1.2031 21.086-4.8672-1.293-6.5859-7.4805-8.1328-11.832-1.7578-5-2.9961-10.164-4.8906-15.113-1.3477-3.5547-3.4453-6.5-6.5508-8.7031-4.1562-2.9531-11.133-1.7422-15.887-2.2734-7.3359-0.84375-13.035-2.0898-17.32-8.4375-0.46875-0.69922-0.92578-1.418-1.3555-2.1406-1.6875-2.7266-3.2695-5.5273-5.5273-7.8398-2.7891-2.8516-6.5391-3.0859-10.289-3.2656-0.11328-0.011718-0.23047-0.011718-0.34766-0.011718-1.7461-0.074219-3.6523 0-5.5039-0.11328-2.457-0.14453-4.8672-0.61719-6.793-2.1602-1.5859-1.2773-2.5312-3.3828-3.9922-4.918 1.7305-3.6055 5.2891-3.6953 8.9336-3.043zm-9.2188 61.309c-0.61719-1.2383-1.1523-2.5039-1.6055-3.8125 0-0.039062-0.023438-0.074218-0.023438-0.11328 0-0.09375-0.039062-0.15625-0.09375-0.20703-0.57812-1.7188-1.0469-3.4883-1.4297-5.2969-0.32031-1.6133-0.56641-3.2539-0.73828-4.9062-0.09375-0.79688-0.15234-1.6055-0.20703-2.4141-0.33984-5.668 0.53906-11.492 1.1797-17.277 0.10156-1.0547 0.21875-2.1055 0.29687-3.1602 0.023438 1.0312 0.0625 2.0508 0.125 3.0625 0.23047 3.5625 0.73828 7.0742 1.6758 10.445 0.47656 1.7461 1.0703 3.4453 1.8047 5.125 1.4102 3.207 3.2812 6.2773 5.7852 9.1289 12.137 13.809 30.25 1.3906 43.434-4.0664 4.8281-1.9922 11.922-2.918 10.383 5.0273-0.96875 4.9727-6.6875 8.8711-10.102 12.188-2.6367 2.5352-6.8555 6.5859-6.3633 10.625-8.1719-1.1094-16.258-2.5703-24.316-4.4141-4.5078-1.0312-8.7656-1.8203-12.887-4.0938-2.168-1.1875-5.1172-3.3477-6.918-5.8398zm83.543 16.367c-1.9531 2.2188-5.2969 3.2695-7.8672 4.5977-4.5703 2.3672-4.4727 0.19531-6.832-1.2266-1.0586-0.64453-2.7891-0.20313-3.8867-0.09375-0.33984 0.035156-0.61719 0.25391-0.61719 0.60547-0.10547 4.5195-11.535 2.7148-14.965 2.5938-5.6562-0.21094-11.234-1.0469-16.781-2.2383-8.2109-1.7734-16.258-4.5742-23.172-9.4453-2.9023-2.043-5.2344-4.4727-7.1172-7.1797 2.8047 2.2734 6.3281 3.9805 8.832 4.9492 5.5156 2.1016 11.832 2.9414 17.605 4.1094 5.207 1.0586 10.457 1.9023 15.715 2.5195 0.0625 0.14453 0.085937 0.29297 0.16406 0.42969 2.5703 5.4922 16.023 2.6055 20.262 2.0156 7.3984-1.0312 14.191-2.3867 20.738-5.0781-0.55469 1.1797-1.1094 2.3438-2.0781 3.4414zm3.4883-6.1992c-0.14062 0.21094-0.25781 0.42969-0.37891 0.64453-6.4961 2.8633-13.121 4.375-20.535 5.5156-4.7305 0.72656-9.4766 1.2305-14.273 0.96484-3.6016-0.19141-7.4609-1.8359-5.2969-6.1836 0.92969-1.832 2.3984-3.3828 3.7734-4.8789 4.4336-4.8047 10.613-8.7188 11.832-15.578 0.875-4.8789-2.5938-7.5039-7.0156-7.0391-5.5508 0.59375-11.207 4.2109-16.23 6.4102-8.8867 3.9102-18.922 8.5195-27.844 2.4531-4.3945-2.9922-7.375-7.8398-9.3398-12.926-0.69922-1.8555-1.2812-3.7344-1.7461-5.5781-0.11719-0.42187-0.21875-0.83594-0.30859-1.2422-0.55859-2.3594-0.81641-4.7227-0.88672-7.1016-0.25781-7 0.94531-14.094 0.6875-21.094 0.0625-0.30859 0.10547-0.62891 0.17188-0.93359 0.10547-0.39844 0.21875-0.76172 0.33984-1.1094 2.8945 3.2422 3.8203 5.9766 8.6133 7.1016 0.6875 0.16406 1.418 0.27344 2.1289 0.35938 1.0586 0.11719 2.1406 0.15625 3.2188 0.17188 4.4023 0.09375 8.832-0.15234 12.359 2.9727 2.1719 1.9023 3.625 4.5195 5.0859 7.1133 0.875 1.5742 1.7422 3.1602 2.75 4.5469 3.0469 4.1992 6.7695 5.5547 11.699 6.5352 3.0078 0.59375 6.0859 0.86328 9.1328 1.1641 4.1172 0.41406 7.8008-0.30859 11.699 1.5469 6.1328 2.9023 7.4219 12.977 9.0664 18.762 1.7188 6.1133 4.168 16.18 11.453 17.266-0.066406 0.03125-0.10547 0.070313-0.15625 0.13672zm1.0703-0.023437c-0.023438-0.011719-0.023438-0.035157-0.039063-0.042969h0.12891c-0.039062 0.023437-0.0625 0.03125-0.089843 0.042969zm1.1172-0.54688c0.015625-0.050781 0.015625-0.10547 0.015625-0.15234 0.125-0.023438 0.23438-0.023438 0.35938-0.042969-0.11719 0.070312-0.25 0.14062-0.375 0.19531zm138.86 23.418c-3.4375 2.5664-8.2305 2.918-12.309 3.5938-5.0391 0.83984-10.074 1.4336-15.199 1.3789-3.6953-0.039063-6.7812-1.6562-10.051-2.9531 3.0859-0.015624 6.1562-0.074218 9.2305-0.17187 11.711-0.375 21.684-3.2812 32.312-7.8125-0.79297 2.1797-1.6953 4.2461-3.9844 5.9648zm6.5898-11.223c-0.16406 0.011719-0.29688 0.085937-0.40234 0.23438-0.78906 0.57812-1.3398 1.4609-1.7188 2.6758-0.57812 1.8867-4.7539 2.7539-6.3672 3.4141-3.2812 1.3281-6.6484 2.4648-10.074 3.4102-12.59 3.5-27.781 2.4805-40.707 1.8242-11.363-0.58203-23.391 1.9141-30.676-9.1211-2.6641-4.0312-3.9297-8.8242-6.5625-12.859-2.9727-4.5703-7.1133-8.4492-11.316-11.855-0.21875-0.17188-0.53906 0.10547-0.32031 0.32031 4.2383 4.2344 8.3164 8.3555 11.441 13.535 2.4453 4.0664 3.5781 8.7656 6.2227 12.785 0.63672 1.0039 1.3711 1.8633 2.1406 2.6602-4.1992 0.42188-7.6992-0.074218-10.68-3.3477-2.3359-3.1758-4.793-6.5234-7.4414-9.6875-0.18359-0.24609-0.35938-0.48828-0.55469-0.72266-4.375-5.6523-8.5508-11.312-14.766-15.035-0.21875-0.12891-0.41406 0.20703-0.19531 0.33984 4.2969 2.7266 8.0195 6.5234 11.277 10.68-0.64844-0.66797-1.3281-1.3164-1.9922-1.9531 0.0625-0.11719 0.0625-0.25781-0.039062-0.39062-1.2266-1.6133-2.4922-2.5469-4.1172-3.0742-0.25781-0.18359-0.49219-0.37891-0.75-0.55859-0.21875-0.14062-0.45312 0.054688-0.46875 0.24609-0.40234-0.074218-0.83594-0.12891-1.2891-0.16406-5.2852-0.45312-11.145 0.52734-16.402 1.1406-1.6445 0.19531-3.2695 0.58203-4.8789 0.98047-0.19531-0.09375-0.41016-0.10547-0.62891 0.027343-0.125 0.078125-0.21875 0.125-0.33984 0.19531-0.27344 0.0625-0.53125 0.13281-0.8125 0.19531-4.9766 1.1211-4.2266-2.0898-5.0859-5.6953-1.6758-7.0352-2.8047-13.68 4.3281-17.879 5.3086-3.1211 16.867-4.5859 17.457-12.602 0.59375-8.2656-8.8594-14.156-16.105-15.012-10.266-1.2148-19.488 4.25-29.133 6.9375-1.6172 0.45312-3.1992 0.75-4.7656 0.90625-0.55859-0.94531-2.5156-4.0664-3.8789-6.6875-1.0547-2.0156-1.7422-3.7461-1.1523-3.9531 3.4883-1.2422 7.6289-0.13281 11.25-0.61719 9.8906-1.3398 19.66-3.9688 29.625-4.7812 6.4102-0.51562 11.43 2.8516 16.195 6.8828 7.0039 5.918 13.395 13.262 22.645 11.598 3.6523-0.67187 7.1172-1.9258 10.723-2.7656 6.8438-1.5859 11.176 3.4883 15.652 7.707 5.7969 5.4648 11.34 8.9102 19.078 11.031 8.2109 2.2617 16.762 1.6914 25.188 1.8711 8.8828 0.19531 17.387 1.2812 25.898 3.6719-4.1172 0.67187-8.2773 1.1406-12.422 1.4492-4.7539 0.35938-9.5078 1.6562-14.211 2.4023-6.1211 0.98047-12.363 0.80469-18.543 0.64453-11.723-0.28516-23.945-3.3203-34.379-8.8047-6.3281-3.3281-13.312-9.0273-21.012-7.707-5.2578 0.90625-10.332 2.582-15.434 4.1367-3.9688 1.2148-9.043 1.3555-12.734 3.1992-6.3633 3.1758-2.1016 10.617 2.3359 13.434 0.46875 0.30078 0.96875-0.27344 0.72656-0.72656-0.61719-1.1211-0.32031-0.83984-1.3906-1.4453-0.19531-0.11719-0.39062 0.14453-0.23438 0.3125-2.5703-2.9727-6.2148-8.5898 0.23438-10.875 1.9258-0.67578 4.1562-0.875 6.1562-1.3789 4.6523-1.1797 9.1992-2.7891 13.832-4.1172 5.2695-1.5195 9.9023-2.0898 15.176-0.21094 4.1758 1.4844 7.9648 4.1758 11.781 6.3516 15.355 8.6953 34.648 10.602 51.883 8.6953 8.332-0.91797 16.723-2.3086 25.016-3.4883 9.8672-1.4102 19.27-4.2969 29.305-4.6211 8.4688-0.29297 17.711 1.1094 26.098-0.24609 0.67578-0.10547 1.3281-0.25781 1.9023-0.45312 2.0156-0.66797 3.5625-1.8203 5.2969-3.375 3.6406-3.2656 9.043-2.3086 13.602-2.3125 0.23438 0 0.39062-0.125 0.46875-0.30078 0.34766 0.37109 0.6875 0.78516 1.0078 1.2383 1.5078 2.2109 1.3984 4.4648 0.41406 6.6094-0.085938-0.054688-0.17188-0.066406-0.25781 0.039062-2.5703 4.0469-5.7969 6.793-9.4141 9.1836-1.8047 1.1797-3.6836 2.2695-5.6406 3.3867-13.676-1.2539-27.668-2.7734-40.875 2.1562-5.875 2.1953-11.277 5.4883-17.047 7.9258-8.2305 3.4453-15.973 2.6953-24.562 1.043-16.32-3.1484-32.328-8.2383-48.145-13.266-7.375-2.3359-14.801-4.1445-22.496-4.9062-9.0898-0.90625-18.328-0.26953-27.422-0.125-0.46484 0-0.46484 0.69922 0 0.71094 8.5 0.050781 16.98-0.37891 25.473 0.125 8.9336 0.51953 17.359 3.2266 25.828 5.9766 16.441 5.3359 33.203 10.578 50.266 13.531 5.9883 1.043 11.469 1.2266 17.371-0.41016 5.5781-1.5508 10.742-4.5586 15.902-7.0859 7.3086-3.5391 14.488-5.0508 22.59-5.5 4.0312-0.23047 8.1484-0.24219 12.203-0.078125 3 0.13281 5.9141 0.78516 8.8633 1.082-6.1211 3.5156-12.348 6.5469-18.75 9.5156-5.6016 2.6055-11.555 4.0703-17.008 6.957-4.3398 2.2969-9.918 2.3789-14.375 4.3398-0.074219-0.039062-0.17188-0.074218-0.26172-0.074218-1.0508-0.03125-1.9062 0.16406-2.6172 0.55469zm65.855-18.758c-0.32031 0.10156-0.62891 0.20313-0.94531 0.32031-0.98438 0.33203-1.9766 0.6875-2.9297 1.0703-9.1055 3.5508-17.555 8.8359-26.008 13.68-6.0938 3.4883-11.77 6.6523-18.973 6.8555-2.0156 0.054687-4.0664-0.49219-6.043-0.15234-1.2812 0.21875-2.5547 0.29297-3.8398 0.33203-0.35938-0.011719-0.72656-0.023437-1.1094-0.027343-1.7578 0.17969-3.0078-0.59766-3.6953-2.3398 0.11328-0.039063 0.19531-0.09375 0.28125-0.16406 2.7031-1.1719 5.875-1.4961 8.6641-2.375 2.7891-0.89453 5.4648-1.8203 8.1328-3.0586 3.5742-1.6445 7.4414-2.3594 11.059-3.7969 2.5703-1.0234 5.0117-2.3594 7.543-3.4375 6.0586-2.582 12.582-5.543 18.418-9.3398 0.18359-0.035157 0.32031-0.125 0.37891-0.24609 0.96875-0.63672 1.9023-1.3008 2.8281-1.9805 0.17188 0.17188 0.42969 0.24609 0.6875 0.054688 0.33984-0.26953 0.71875-0.55859 1.1094-0.86328 5.9414-4.6406 16.379-14.297 7.1641-20.738-4.9297-3.4336-17.512-5.332-13.234-12.449 3.5 4.043 11.34 4.4453 15.926 6.4727 1.5625 0.6875 2.9844 1.5117 4.2266 2.4414 5.8867 4.3945 7.9844 11.289 3.4883 18.613-0.14453 0.25781-0.10547 0.50391 0.050781 0.67578-2.4883 2.1602-4.5859 4.8555-6.1562 8.2539-2.3906 0.74609-4.7656 1.4688-7.0234 2.1992zm8.0703-2.5312c0.66016-0.71094 1.2617-1.7812 1.5625-2.2188 1.8633-2.6328 3.6836-5.0508 6.4102-6.8438 4.9492-3.2188 10.754-3.5 15.875-5.7109-5.207 8.1094-14.719 11.859-23.848 14.773zm24.992-16.785c-0.0625 0.16406-0.15234 0.33203-0.23438 0.49219-0.15625 0.035156-0.32031 0.074218-0.49219 0.10547-1.5859-3.7109-0.46875-7.8516-2.1016-11.523-1.3789-3.0625-3.3047-5.6797-5.9883-7.7266-5.9062-4.5078-14.527-9.2695-22.25-9.8789 4.9883-1.8828 10.465-2.543 15.477-1.7578 0.15234 0.023437 0.33203 0.039062 0.46875 0.074218 0.17188 0.027344 0.33984-0.035156 0.42969-0.14453 8.3867 7.9375 19.602 19.574 14.691 30.359z"/>
  <path d="m323.86 242.84c-8.2695-3.6289-19.258-5.2695-27.215-0.40234-2.1719 1.3398-3.8398 2.7031-4.9375 4.582 0.33203-0.875 0.6875-1.6367 1.0078-2.1016 0.12891-0.20703-0.21875-0.48047-0.35938-0.27344-3.0312 3.8984-3.4609 6.5-0.83594 10.734 0.14453 0.23438 0.35937 0.30859 0.61719 0.25781 0.23438-0.039063 0.46875-0.085937 0.6875-0.125 0.35938 0.15234 0.72656 0.28516 1.1523 0.37109 0.34766 0.0625 0.49219-0.45312 0.15625-0.52734-0.0625-0.011719-0.11719-0.027344-0.17188-0.039063 5.9375-1.0938 12.113-2.4062 18.121-2.0039 4.1992 0.26953 8.3945 0.73828 12.57 0 2.0391-0.35938 5.1055-1.8711 5.0391-4.3867-0.078124-3.2969-3.1484-4.8984-5.832-6.0859zm-13.477 8.9453c-3.1289-0.16406-6.3711 0.51563-9.4375 0.99609-2.4414 0.37891-4.8164 0.94531-7.2422 1.4219-2.1016 0.42188-2.8516-0.82422-2.8945-2.543 0.25781-2.8164 3.1914-6.3281 4.8477-7.5547 4.5352-3.3203 9.8555-4.0195 15.281-3.293 5.2578 0.70703 13.766 1.8203 17.059 6.4609 4.4453 6.2578-15.402 4.6328-17.613 4.5117z"/>
  <use x="70" y="644" xlink:href="#v"/>
  <use x="90.550781" y="644" xlink:href="#b"/>
  <use x="104.359375" y="644" xlink:href="#d"/>
  <use x="123.347656" y="644" xlink:href="#c"/>
  <use x="142.242188" y="644" xlink:href="#e"/>
  <use x="155.628906" y="644" xlink:href="#d"/>
  <use x="174.617188" y="644" xlink:href="#l"/>
  <use x="204.410156" y="644" xlink:href="#k"/>
  <use x="224.453125" y="644" xlink:href="#f"/>
  <use x="252.453125" y="644" xlink:href="#j"/>
  <use x="275.433594" y="644" xlink:href="#c"/>
  <use x="294.328125" y="644" xlink:href="#u"/>
  <use x="314.371094" y="644" xlink:href="#c"/>
  <use x="333.265625" y="644" xlink:href="#i"/>
  <use x="359.679688" y="644" xlink:href="#t"/>
  <use x="381.351562" y="644" xlink:href="#b"/>
  <use x="395.15625" y="644" xlink:href="#f"/>
  <use x="413.410156" y="644" xlink:href="#a"/>
  <use x="442.394531" y="644" xlink:href="#h"/>
  <use x="462.914062" y="644" xlink:href="#b"/>
  <use x="476.726562" y="644" xlink:href="#c"/>
  <use x="495.617187" y="644" xlink:href="#i"/>
  <use x="512.285156" y="644" xlink:href="#a"/>
  <use x="531.523437" y="644" xlink:href="#g"/>
  <use x="541.117187" y="644" xlink:href="#a"/>
  <use x="70" y="672" xlink:href="#s"/>
  <use x="82.183594" y="672" xlink:href="#b"/>
  <use x="95.992188" y="672" xlink:href="#a"/>
  <use x="115.226562" y="672" xlink:href="#r"/>
  <use x="154.152344" y="672" xlink:href="#e"/>
  <use x="167.535156" y="672" xlink:href="#q"/>
  <use x="187.46875" y="672" xlink:href="#d"/>
  <use x="216.207031" y="672" xlink:href="#p"/>
  <use x="239.640625" y="672" xlink:href="#a"/>
  <use x="258.878906" y="672" xlink:href="#o"/>
  <use x="278.8125" y="672" xlink:href="#n"/>
  <use x="308.492188" y="672" xlink:href="#h"/>
  <use x="329.015625" y="672" xlink:href="#b"/>
  <use x="342.820312" y="672" xlink:href="#a"/>
  <use x="362.058594" y="672" xlink:href="#g"/>
  <use x="371.65625" y="672" xlink:href="#d"/>
  <use x="390.648438" y="672" xlink:href="#m"/>
  <use x="407.242188" y="672" xlink:href="#e"/>
 </g>
</svg>
