<?xml version="1.0" encoding="UTF-8"?>
<svg width="700pt" height="700pt" version="1.1" viewBox="0 0 700 700" xmlns="http://www.w3.org/2000/svg" xmlns:xlink="http://www.w3.org/1999/xlink">
 <defs>
  <symbol id="v" overflow="visible">
   <path d="m18.766-1.125c-0.96875 0.5-1.9805 0.875-3.0312 1.125-1.043 0.25781-2.1367 0.39062-3.2812 0.39062-3.3984 0-6.0898-0.94531-8.0781-2.8438-1.9922-1.9062-2.9844-4.4844-2.9844-7.7344 0-3.2578 0.99219-5.8359 2.9844-7.7344 1.9883-1.9062 4.6797-2.8594 8.0781-2.8594 1.1445 0 2.2383 0.13281 3.2812 0.39062 1.0508 0.25 2.0625 0.625 3.0312 1.125v4.2188c-0.98047-0.65625-1.9453-1.1406-2.8906-1.4531-0.94922-0.3125-1.9492-0.46875-3-0.46875-1.875 0-3.3516 0.60547-4.4219 1.8125-1.0742 1.1992-1.6094 2.8555-1.6094 4.9688 0 2.1055 0.53516 3.7617 1.6094 4.9688 1.0703 1.1992 2.5469 1.7969 4.4219 1.7969 1.0508 0 2.0508-0.14844 3-0.45312 0.94531-0.3125 1.9102-0.80078 2.8906-1.4688z"/>
  </symbol>
  <symbol id="b" overflow="visible">
   <path d="m13.734-11.141c-0.4375-0.19531-0.87109-0.34375-1.2969-0.4375-0.41797-0.10156-0.83984-0.15625-1.2656-0.15625-1.2617 0-2.2305 0.40625-2.9062 1.2188-0.67969 0.80469-1.0156 1.9531-1.0156 3.4531v7.0625h-4.8906v-15.312h4.8906v2.5156c0.625-1 1.3438-1.7266 2.1562-2.1875 0.82031-0.46875 1.8008-0.70312 2.9375-0.70312 0.16406 0 0.34375 0.011719 0.53125 0.03125 0.19531 0.011719 0.47656 0.039062 0.84375 0.078125z"/>
  </symbol>
  <symbol id="d" overflow="visible">
   <path d="m17.641-7.7031v1.4062h-11.453c0.125 1.1484 0.53906 2.0078 1.25 2.5781 0.70703 0.57422 1.7031 0.85938 2.9844 0.85938 1.0312 0 2.082-0.14844 3.1562-0.45312 1.082-0.3125 2.1914-0.77344 3.3281-1.3906v3.7656c-1.1562 0.4375-2.3125 0.76562-3.4688 0.98438-1.1562 0.22656-2.3125 0.34375-3.4688 0.34375-2.7734 0-4.9297-0.70312-6.4688-2.1094-1.5312-1.4062-2.2969-3.3789-2.2969-5.9219 0-2.5 0.75391-4.4609 2.2656-5.8906 1.5078-1.4375 3.582-2.1562 6.2188-2.1562 2.4062 0 4.332 0.73047 5.7812 2.1875 1.4453 1.4492 2.1719 3.3828 2.1719 5.7969zm-5.0312-1.625c0-0.92578-0.27344-1.6719-0.8125-2.2344-0.54297-0.57031-1.25-0.85938-2.125-0.85938-0.94922 0-1.7188 0.26562-2.3125 0.79688s-0.96484 1.2969-1.1094 2.2969z"/>
  </symbol>
  <symbol id="c" overflow="visible">
   <path d="m9.2188-6.8906c-1.0234 0-1.793 0.17188-2.3125 0.51562-0.51172 0.34375-0.76562 0.85547-0.76562 1.5312 0 0.625 0.20703 1.1172 0.625 1.4688 0.41406 0.34375 0.98828 0.51562 1.7188 0.51562 0.92578 0 1.7031-0.32812 2.3281-0.98438 0.63281-0.66406 0.95312-1.4922 0.95312-2.4844v-0.5625zm7.4688-1.8438v8.7344h-4.9219v-2.2656c-0.65625 0.92969-1.3984 1.6055-2.2188 2.0312-0.82422 0.41406-1.8242 0.625-3 0.625-1.5859 0-2.8711-0.45703-3.8594-1.375-0.99219-0.92578-1.4844-2.1289-1.4844-3.6094 0-1.7891 0.61328-3.1016 1.8438-3.9375 1.2383-0.84375 3.1797-1.2656 5.8281-1.2656h2.8906v-0.39062c0-0.76953-0.30859-1.332-0.92188-1.6875-0.61719-0.36328-1.5703-0.54688-2.8594-0.54688-1.0547 0-2.0312 0.10547-2.9375 0.3125-0.89844 0.21094-1.7305 0.52344-2.5 0.9375v-3.7344c1.0391-0.25 2.0859-0.44141 3.1406-0.57812 1.0625-0.13281 2.125-0.20312 3.1875-0.20312 2.7578 0 4.75 0.54688 5.9688 1.6406 1.2266 1.0859 1.8438 2.8555 1.8438 5.3125z"/>
  </symbol>
  <symbol id="e" overflow="visible">
   <path d="m7.7031-19.656v4.3438h5.0469v3.5h-5.0469v6.5c0 0.71094 0.14062 1.1875 0.42188 1.4375s0.83594 0.375 1.6719 0.375h2.5156v3.5h-4.1875c-1.9375 0-3.3125-0.39844-4.125-1.2031-0.80469-0.8125-1.2031-2.1797-1.2031-4.1094v-6.5h-2.4219v-3.5h2.4219v-4.3438z"/>
  </symbol>
  <symbol id="l" overflow="visible">
   <path d="m12.766-13.078v-8.2031h4.9219v21.281h-4.9219v-2.2188c-0.66797 0.90625-1.4062 1.5703-2.2188 1.9844s-1.7578 0.625-2.8281 0.625c-1.8867 0-3.4336-0.75-4.6406-2.25-1.2109-1.5-1.8125-3.4258-1.8125-5.7812 0-2.3633 0.60156-4.2969 1.8125-5.7969 1.207-1.5 2.7539-2.25 4.6406-2.25 1.0625 0 2 0.21484 2.8125 0.64062 0.82031 0.42969 1.5664 1.0859 2.2344 1.9688zm-3.2188 9.9219c1.0391 0 1.8359-0.37891 2.3906-1.1406 0.55078-0.76953 0.82812-1.8828 0.82812-3.3438 0-1.457-0.27734-2.5664-0.82812-3.3281-0.55469-0.76953-1.3516-1.1562-2.3906-1.1562-1.043 0-1.8398 0.38672-2.3906 1.1562-0.55469 0.76172-0.82812 1.8711-0.82812 3.3281 0 1.4609 0.27344 2.5742 0.82812 3.3438 0.55078 0.76172 1.3477 1.1406 2.3906 1.1406z"/>
  </symbol>
  <symbol id="k" overflow="visible">
   <path d="m10.5-3.1562c1.0508 0 1.8516-0.37891 2.4062-1.1406 0.55078-0.76953 0.82812-1.8828 0.82812-3.3438 0-1.457-0.27734-2.5664-0.82812-3.3281-0.55469-0.76953-1.3555-1.1562-2.4062-1.1562-1.0547 0-1.8594 0.38672-2.4219 1.1562-0.55469 0.77344-0.82812 1.8828-0.82812 3.3281 0 1.4492 0.27344 2.5586 0.82812 3.3281 0.5625 0.77344 1.3672 1.1562 2.4219 1.1562zm-3.25-9.9219c0.67578-0.88281 1.4219-1.5391 2.2344-1.9688 0.82031-0.42578 1.7656-0.64062 2.8281-0.64062 1.8945 0 3.4453 0.75 4.6562 2.25 1.207 1.5 1.8125 3.4336 1.8125 5.7969 0 2.3555-0.60547 4.2812-1.8125 5.7812-1.2109 1.5-2.7617 2.25-4.6562 2.25-1.0625 0-2.0078-0.21094-2.8281-0.625-0.8125-0.42578-1.5586-1.0859-2.2344-1.9844v2.2188h-4.8906v-21.281h4.8906z"/>
  </symbol>
  <symbol id="f" overflow="visible">
   <path d="m0.34375-15.312h4.8906l4.125 10.391 3.5-10.391h4.8906l-6.4375 16.766c-0.64844 1.6953-1.4023 2.8828-2.2656 3.5625-0.86719 0.6875-2 1.0312-3.4062 1.0312h-2.8438v-3.2188h1.5312c0.83203 0 1.4375-0.13672 1.8125-0.40625 0.38281-0.26172 0.67969-0.73047 0.89062-1.4062l0.14062-0.42188z"/>
  </symbol>
  <symbol id="j" overflow="visible">
   <path d="m20.922-1.5156c-1.3125 0.63672-2.6797 1.1172-4.0938 1.4375-1.4062 0.3125-2.8672 0.46875-4.375 0.46875-3.3984 0-6.0898-0.94531-8.0781-2.8438-1.9922-1.9062-2.9844-4.4844-2.9844-7.7344 0-3.2891 1.0078-5.8789 3.0312-7.7656 2.0312-1.8828 4.8047-2.8281 8.3281-2.8281 1.3516 0 2.6484 0.13281 3.8906 0.39062 1.25 0.25 2.4258 0.625 3.5312 1.125v4.2188c-1.1484-0.64453-2.2812-1.125-3.4062-1.4375-1.125-0.32031-2.25-0.48438-3.375-0.48438-2.1055 0-3.7266 0.58984-4.8594 1.7656-1.125 1.168-1.6875 2.8398-1.6875 5.0156 0 2.1562 0.54688 3.8242 1.6406 5 1.0938 1.1797 2.6445 1.7656 4.6562 1.7656 0.53906 0 1.0469-0.03125 1.5156-0.09375 0.47656-0.070313 0.89844-0.17969 1.2656-0.32812v-3.9688h-3.2031v-3.5156h8.2031z"/>
  </symbol>
  <symbol id="u" overflow="visible">
   <path d="m12.766-2.5938c-0.66797 0.88672-1.4062 1.543-2.2188 1.9688-0.8125 0.41797-1.7578 0.625-2.8281 0.625-1.8672 0-3.4062-0.73438-4.625-2.2031-1.2188-1.4766-1.8281-3.3516-1.8281-5.625 0-2.2891 0.60938-4.1641 1.8281-5.625 1.2188-1.4688 2.7578-2.2031 4.625-2.2031 1.0703 0 2.0156 0.21484 2.8281 0.64062 0.8125 0.41797 1.5508 1.0742 2.2188 1.9688v-2.2656h4.9219v13.766c0 2.457-0.77734 4.3359-2.3281 5.6406-1.5547 1.3008-3.8086 1.9531-6.7656 1.9531-0.94922 0-1.8711-0.074219-2.7656-0.21875-0.89844-0.14844-1.7969-0.37109-2.7031-0.67188v-3.8125c0.86328 0.48828 1.7031 0.85156 2.5156 1.0938 0.82031 0.23828 1.6484 0.35938 2.4844 0.35938 1.6016 0 2.7734-0.35156 3.5156-1.0469 0.75-0.69922 1.125-1.7969 1.125-3.2969zm-3.2188-9.5312c-1.0117 0-1.8047 0.375-2.375 1.125-0.5625 0.74219-0.84375 1.7969-0.84375 3.1719 0 1.3984 0.26953 2.4609 0.8125 3.1875 0.55078 0.71875 1.3516 1.0781 2.4062 1.0781 1.0195 0 1.8125-0.36719 2.375-1.1094 0.5625-0.75 0.84375-1.8008 0.84375-3.1562 0-1.375-0.28125-2.4297-0.84375-3.1719-0.5625-0.75-1.3555-1.125-2.375-1.125z"/>
  </symbol>
  <symbol id="i" overflow="visible">
   <path d="m14.312-14.828v3.7188c-1.043-0.4375-2.0547-0.76562-3.0312-0.98438-0.98047-0.21875-1.9023-0.32812-2.7656-0.32812-0.92969 0-1.6211 0.11719-2.0781 0.34375-0.44922 0.23047-0.67188 0.58984-0.67188 1.0781 0 0.38672 0.17188 0.68359 0.51562 0.89062 0.34375 0.21094 0.95703 0.36719 1.8438 0.46875l0.85938 0.125c2.5078 0.32422 4.1953 0.85156 5.0625 1.5781 0.86328 0.73047 1.2969 1.8711 1.2969 3.4219 0 1.6367-0.60547 2.8672-1.8125 3.6875-1.1992 0.8125-2.9922 1.2188-5.375 1.2188-1.0234 0-2.0742-0.078125-3.1562-0.23438-1.0742-0.15625-2.1797-0.39453-3.3125-0.71875v-3.7188c0.96875 0.48047 1.9609 0.83984 2.9844 1.0781 1.0312 0.23047 2.0781 0.34375 3.1406 0.34375 0.95703 0 1.6758-0.12891 2.1562-0.39062 0.47656-0.26953 0.71875-0.66406 0.71875-1.1875 0-0.4375-0.16797-0.75781-0.5-0.96875-0.33594-0.21875-0.99609-0.38281-1.9844-0.5l-0.85938-0.10938c-2.1797-0.26953-3.7031-0.77344-4.5781-1.5156-0.875-0.73828-1.3125-1.8594-1.3125-3.3594 0-1.625 0.55078-2.8281 1.6562-3.6094 1.1133-0.78906 2.8203-1.1875 5.125-1.1875 0.89453 0 1.8359 0.074219 2.8281 0.21875 1 0.13672 2.082 0.35156 3.25 0.64062z"/>
  </symbol>
  <symbol id="t" overflow="visible">
   <path d="m14.953-3.7188h-8.2188l-1.3125 3.7188h-5.2812l7.5625-20.406h6.2656l7.5625 20.406h-5.2812zm-6.9062-3.7812h5.5781l-2.7812-8.125z"/>
  </symbol>
  <symbol id="a" overflow="visible">
   <path d="m9.6406-12.188c-1.0859 0-1.9141 0.39062-2.4844 1.1719-0.57422 0.78125-0.85938 1.9062-0.85938 3.375s0.28516 2.5938 0.85938 3.375c0.57031 0.77344 1.3984 1.1562 2.4844 1.1562 1.0625 0 1.875-0.38281 2.4375-1.1562 0.57031-0.78125 0.85938-1.9062 0.85938-3.375s-0.28906-2.5938-0.85938-3.375c-0.5625-0.78125-1.375-1.1719-2.4375-1.1719zm0-3.5c2.6328 0 4.6914 0.71484 6.1719 2.1406 1.4766 1.418 2.2188 3.3867 2.2188 5.9062 0 2.5117-0.74219 4.4805-2.2188 5.9062-1.4805 1.418-3.5391 2.125-6.1719 2.125-2.6484 0-4.7148-0.70703-6.2031-2.125-1.4922-1.4258-2.2344-3.3945-2.2344-5.9062 0-2.5195 0.74219-4.4883 2.2344-5.9062 1.4883-1.4258 3.5547-2.1406 6.2031-2.1406z"/>
  </symbol>
  <symbol id="h" overflow="visible">
   <path d="m2.5781-20.406h8.7344c2.5938 0 4.582 0.57812 5.9688 1.7344 1.3945 1.1484 2.0938 2.7891 2.0938 4.9219 0 2.1367-0.69922 3.7812-2.0938 4.9375-1.3867 1.1562-3.375 1.7344-5.9688 1.7344h-3.4844v7.0781h-5.25zm5.25 3.8125v5.7031h2.9219c1.0195 0 1.8047-0.25 2.3594-0.75 0.5625-0.5 0.84375-1.2031 0.84375-2.1094 0-0.91406-0.28125-1.6172-0.84375-2.1094-0.55469-0.48828-1.3398-0.73438-2.3594-0.73438z"/>
  </symbol>
  <symbol id="g" overflow="visible">
   <path d="m2.3594-15.312h4.8906v15.031c0 2.0508-0.49609 3.6172-1.4844 4.7031-0.98047 1.082-2.4062 1.625-4.2812 1.625h-2.4219v-3.2188h0.85938c0.92578 0 1.5625-0.21094 1.9062-0.625 0.35156-0.41797 0.53125-1.2461 0.53125-2.4844zm0-5.9688h4.8906v4h-4.8906z"/>
  </symbol>
  <symbol id="s" overflow="visible">
   <path d="m12.422-21.281v3.2188h-2.7031c-0.6875 0-1.1719 0.125-1.4531 0.375-0.27344 0.25-0.40625 0.6875-0.40625 1.3125v1.0625h4.1875v3.5h-4.1875v11.812h-4.8906v-11.812h-2.4375v-3.5h2.4375v-1.0625c0-1.6641 0.46094-2.8984 1.3906-3.7031 0.92578-0.80078 2.3672-1.2031 4.3281-1.2031z"/>
  </symbol>
  <symbol id="r" overflow="visible">
   <path d="m16.547-12.766c0.61328-0.94531 1.3477-1.6719 2.2031-2.1719 0.85156-0.5 1.7891-0.75 2.8125-0.75 1.7578 0 3.0977 0.54688 4.0156 1.6406 0.92578 1.0859 1.3906 2.6562 1.3906 4.7188v9.3281h-4.9219v-7.9844-0.35938c0.007813-0.13281 0.015625-0.32031 0.015625-0.5625 0-1.082-0.16406-1.8633-0.48438-2.3438-0.3125-0.48828-0.82422-0.73438-1.5312-0.73438-0.92969 0-1.6484 0.38672-2.1562 1.1562-0.51172 0.76172-0.77344 1.8672-0.78125 3.3125v7.5156h-4.9219v-7.9844c0-1.6953-0.14844-2.7852-0.4375-3.2656-0.29297-0.48828-0.8125-0.73438-1.5625-0.73438-0.9375 0-1.6641 0.38672-2.1719 1.1562-0.51172 0.76172-0.76562 1.8594-0.76562 3.2969v7.5312h-4.9219v-15.312h4.9219v2.2344c0.60156-0.86328 1.2891-1.5156 2.0625-1.9531 0.78125-0.4375 1.6406-0.65625 2.5781-0.65625 1.0625 0 2 0.25781 2.8125 0.76562 0.8125 0.51172 1.4258 1.2305 1.8438 2.1562z"/>
  </symbol>
  <symbol id="q" overflow="visible">
   <path d="m17.75-9.3281v9.3281h-4.9219v-7.1094c0-1.3438-0.03125-2.2656-0.09375-2.7656s-0.16797-0.86719-0.3125-1.1094c-0.1875-0.3125-0.44922-0.55469-0.78125-0.73438-0.32422-0.17578-0.69531-0.26562-1.1094-0.26562-1.0234 0-1.8242 0.39844-2.4062 1.1875-0.58594 0.78125-0.875 1.8711-0.875 3.2656v7.5312h-4.8906v-21.281h4.8906v8.2031c0.73828-0.88281 1.5195-1.5391 2.3438-1.9688 0.83203-0.42578 1.75-0.64062 2.75-0.64062 1.7695 0 3.1133 0.54688 4.0312 1.6406 0.91406 1.0859 1.375 2.6562 1.375 4.7188z"/>
  </symbol>
  <symbol id="p" overflow="visible">
   <path d="m2.5781-20.406h5.875l7.4219 14v-14h4.9844v20.406h-5.875l-7.4219-14v14h-4.9844z"/>
  </symbol>
  <symbol id="o" overflow="visible">
   <path d="m2.1875-5.9688v-9.3438h4.9219v1.5312c0 0.83594-0.007813 1.875-0.015625 3.125-0.011719 1.25-0.015625 2.0859-0.015625 2.5 0 1.2422 0.03125 2.1328 0.09375 2.6719 0.070313 0.54297 0.17969 0.93359 0.32812 1.1719 0.20703 0.32422 0.47266 0.57422 0.79688 0.75 0.32031 0.16797 0.69141 0.25 1.1094 0.25 1.0195 0 1.8203-0.39062 2.4062-1.1719 0.58203-0.78125 0.875-1.8672 0.875-3.2656v-7.5625h4.8906v15.312h-4.8906v-2.2188c-0.74219 0.89844-1.5234 1.5586-2.3438 1.9844-0.82422 0.41406-1.7344 0.625-2.7344 0.625-1.7617 0-3.1055-0.53906-4.0312-1.625-0.92969-1.082-1.3906-2.6602-1.3906-4.7344z"/>
  </symbol>
  <symbol id="n" overflow="visible">
   <path d="m17.75-9.3281v9.3281h-4.9219v-7.1406c0-1.3203-0.03125-2.2344-0.09375-2.7344s-0.16797-0.86719-0.3125-1.1094c-0.1875-0.3125-0.44922-0.55469-0.78125-0.73438-0.32422-0.17578-0.69531-0.26562-1.1094-0.26562-1.0234 0-1.8242 0.39844-2.4062 1.1875-0.58594 0.78125-0.875 1.8711-0.875 3.2656v7.5312h-4.8906v-15.312h4.8906v2.2344c0.73828-0.88281 1.5195-1.5391 2.3438-1.9688 0.83203-0.42578 1.75-0.64062 2.75-0.64062 1.7695 0 3.1133 0.54688 4.0312 1.6406 0.91406 1.0859 1.375 2.6562 1.375 4.7188z"/>
  </symbol>
  <symbol id="m" overflow="visible">
   <path d="m14.719-14.828v3.9844c-0.65625-0.45703-1.3242-0.79688-2-1.0156-0.66797-0.21875-1.3594-0.32812-2.0781-0.32812-1.3672 0-2.4336 0.40234-3.2031 1.2031-0.76172 0.79297-1.1406 1.9062-1.1406 3.3438 0 1.4297 0.37891 2.543 1.1406 3.3438 0.76953 0.79297 1.8359 1.1875 3.2031 1.1875 0.75781 0 1.4844-0.10938 2.1719-0.32812 0.6875-0.22656 1.3203-0.56641 1.9062-1.0156v4c-0.76172 0.28125-1.5391 0.48828-2.3281 0.625-0.78125 0.14453-1.5742 0.21875-2.375 0.21875-2.7617 0-4.9219-0.70703-6.4844-2.125-1.5547-1.4141-2.3281-3.3828-2.3281-5.9062 0-2.5312 0.77344-4.5039 2.3281-5.9219 1.5625-1.4141 3.7227-2.125 6.4844-2.125 0.80078 0 1.5938 0.074219 2.375 0.21875 0.78125 0.13672 1.5547 0.35156 2.3281 0.64062z"/>
  </symbol>
 </defs>
 <g>
  <path d="m357.07 172.39c-0.39062-2.1211-0.98047-5.7617-3.3438-6.6211-2.375-0.85156-1.5977 2.2969-1.2148 3.3164 1.2812 3.4883 3.5781 6.5117 4.9336 9.9297 0.09375 0.64844 0.19531 1.2812 0.26953 1.9336 0.011718 0.0625 0.11719 0.074219 0.11719 0-0.0625-2.8789-0.23828-5.7188-0.76172-8.5586zm-1.7305 0.79297c-0.69922-1.418-1.3906-2.8516-1.9766-4.3281-0.40234-1.0195-0.62891-3.3047 0.96875-1.6445 1.6289 1.6758 1.9805 4.9492 2.375 7.1406 0.18359 1.0312 0.35938 2.0664 0.52734 3.1094-0.52734-1.4805-1.2031-2.9023-1.8945-4.2773z"/>
  <path d="m547.57 338.68c-0.11328-0.28125-0.36328-0.37109-0.62109-0.33984-0.035156-0.48047-0.078125-0.96875-0.15625-1.4375-0.80078-4.7031-4.082-8.8477-7.1016-12.359-2.8281-3.2695-6.0586-6.1133-9.5469-8.6016-0.011719-0.21875-0.25781-0.40234-0.50391-0.35937-4.9375-3.457-10.395-6.2148-15.961-8.5-5.1133-2.1016-10.422-3.6953-15.715-5.2812-5.6602-1.6875-11.094-4.043-16.742-5.6523-5.0586-1.4375-9.5352 0.93359-14.539 1.2383-1.5859 0.09375-3.0898 0.09375-4.5469 0.10547-0.09375-1.3008-0.24609-2.5938-0.38672-3.8906h0.015625c3.5859-0.56641 5.293-3.9219 6.2383-7.0391 1.7656-5.8359-5.5547-5.7383-7.2812-1.1914-0.81641 2.1797-0.91406 4.4336-0.77344 6.6992-1.332 0.17188-2.7656 0.13281-4.2266-0.085938-1.5859-0.23047-3.1289-0.52734-4.6406-0.67578-0.074219-0.61719-0.15234-1.2031-0.22266-1.7305-0.125-0.83594-0.24609-1.6172-0.34766-2.375 0.60547-0.09375 1.1758-0.26953 1.6797-0.55859 2.5938-1.4844 4.4531-4.1172 5.9883-6.6211 3.2578-5.3086-0.62891-7.9922-5.3555-3.8984-2.8281 2.4531-4.0977 5.5156-4.2617 9.2109-0.10156 0-0.19141 0.011718-0.28516 0.011718-2.0156-0.10547-4.0703-0.50391-6.1055-0.73828-0.042969-0.46875-0.10547-0.96484-0.21875-1.4727-0.36328-1.7188-1.1484-3.2188-1.6641-4.793 3.1992-0.58203 6.0469-1.6875 7.3477-4.1562 2.9844-5.6523-3.5273-6.6094-7.0625-3.8086-2.1289 1.6641-2.6641 4.043-2.3867 6.4805-1.8633 0.33984-3.7812 0.54688-5.6094 0.74609-0.085937-1.6953-0.32031-3.3281-0.54297-4.4844-0.085937-0.46875-0.14453-0.95703-0.18359-1.4492 3.0859-0.62891 5.8398-2.9414 7.5977-5.5273 4.1172-6.0312-4.7227-5.6172-7.5977-2.1055-1.3047 1.6055-1.7148 3.8203-1.7305 5.9766-2.3359 0.21875-4.8164-0.14453-7.2969-0.40234-0.14453-1.5508-0.39062-3.1211-0.42578-4.6328 1.9258-1.1211 3.707-2.8828 4.8672-4.4141 1.0234-1.3398 2.9336-4.3242 1.0469-5.875-1.8047-1.4727-3.4883-1.7188-5.0469 0.18359-1.7734 2.1797-2.1406 5.5898-2.4883 8.2617-0.023438 0.15625-0.023438 0.29297-0.039062 0.42969-1.7695 0.60938-3.5352 0.46484-5.3711 0.054688 0.71875-1.3711 1.0977-2.8945 0.97266-4.4805-0.12891-1.8438-0.66797-3.5508-1.2266-5.2344 3.9531-2.7656 7-6.9141 5.7734-11.082-0.50391-1.7305-2.2852-5.0508-4.5977-4.4844-2.8828 0.71094-3.7109 4.3398-4.2109 6.8555-0.55469 2.8281 0.042969 5.5039 0.84375 8.1602-4.3516 2.7539-9.7539 2.375-14.789 0.76172-0.61719-0.19531-1.2148-0.42969-1.793-0.69922 4.4805-4.457 7.5391-11.117 7.9844-17.176 0.23047-3.0859-1.1211-5.8594-1.7461-8.6758 4.9492 0.16406 10.617-4.6016 7.1914-9.5312-3.9297-5.6602-9.0039 3.1211-9.2695 7.2852-0.035156-0.011719-0.066406-0.027344-0.09375-0.050781-0.054687-0.16406-0.10547-0.33984-0.16406-0.51563-0.15625-0.41016-0.66016-0.40234-0.875-0.15234-1.3398-1.0312-2.4414-2.5039-3.0781-4.082-1.5742-3.8789-2.1016-7.8516-4.1172-11.586-2.3633-4.3906-6.0977-8.0234-9.3867-11.73-4.168-4.6992-6.5977-10.078-9.8164-15.395-3.207-5.3086-6.8438-10.289-9.4922-15.922-0.054688-0.11328-0.13281-0.17188-0.23047-0.20703-0.94531-4.043-3.2383-6.9219-9.2695-6.2656-3.5391 0.37891-4.9609 4.5938-6.082 7.375-1.4609 3.6445-3.0469 6.5352-7.1719 7.4688-3.7578 0.85547-7.6172 1.1797-11.379 1.9766-13.211 2.7891-18.648 18.016-20.035 29.941-0.79688 6.8711 1.8086 12.297 6.0586 17.523 2.3281 2.8633 5.1562 5.2812 8.0977 7.4805 2.5195 1.8945 3.5391 2.4297 1.1914 5.4766-0.86328 1.1133-1.4375 2.0156-1.8438 3.3203-0.125 0.37109 0.42188 0.49219 0.56641 0.15625 1.1094-2.6836 3.8203-4.2734 4.3867-7.1641 0.050781-0.25781-0.039062-0.48047-0.25781-0.62891-6.8672-4.4258-13.402-10.238-16.289-18.098-2.7031-7.3359 0.8125-17.078 3.8203-23.812 3.168-7.1289 8.1211-11.699 15.766-13.395 4.8672-1.0703 11.105-0.42578 14.965-4.0273 3.0977-2.9023 3.3555-7.7891 6.0078-11.02 3.2695-3.9805 9.25 0.33203 10.578 3.8711 0.92578 2.4805 0.60938 5.4922 0.54297 8.0859-0.074219 2.1406-0.039063 4.2383 0.33594 6.3438 0.44922 2.6367 1.0312 1.2031-0.99219 2.3594-0.17188 0.09375-0.33984 0.18359-0.50391 0.28125-2.0156 0.51562-3.8711 0.98438-4.7031 1.2812-0.33984-0.55469-0.61719-1.3281-0.96875-2.1719-1.1406-2.75-3.2305-5.2344-5.4219-7.2031-0.33984-0.30859-0.76172 0.14453-0.49219 0.49219 2.4297 3.1094 4.4961 5.8633 5.7188 9.4375-3.5898 1.8828-6.1484 4.9062-7.4648 8.7656-3.375 9.8438 5.5273 22.605 11.379 29.707 6.3633 7.707 16 18.922 27.172 17.832 6.7383-0.66016 13.871-5.8867 13.938-12.633 0.41016 1.6445 1.043 3.2812 1.4375 4.8438 0.96875 3.7344-0.33203 7.4102-1.8086 10.785-1.3203 3.0195-3.2812 6.1211-5.7773 8.5273-3.832-2.0898-7.1406-5.0859-11.434-6.3047-5.6797-1.6367-9.0703 2.9609-6.5508 7.8164 3.3945 6.5508 12.656 4.7773 17.371 1.2383 0.33203-0.24609 0.64453-0.51562 0.96875-0.78516 3.4219 1.625 7.0391 2.6328 11.121 2.6562 2.0898 0.003906 4.7422-0.84375 7.2227-2.2578 0.32031 0.99219 0.64453 1.9766 0.92578 2.9609 0.59375 2.1406 0.30078 3.8906-0.54688 5.2969-1.7305-0.46875-3.5508-1.0703-5.543-1.4297-3.3672-0.59375-15.328 3.4766-8.625 7.2227 4.6406 2.582 11.168 0.42969 14.531-3.6406 1.875 0.60547 3.7812 1.0078 5.7852 0.58203 0.25781-0.050781 0.50391-0.14453 0.76172-0.23047 0.039063 0.45312 0.09375 0.90625 0.17188 1.3945 0.11719 0.77734 0.19531 1.5508 0.23438 2.3242-0.72266-0.050781-1.4336-0.074218-2.1406-0.0625-2.9531 0.0625-6.3516 1.8125-7.2852 4.8047-0.60547 1.9766-0.63672 5.6172 2.1406 6.1094 3.4648 0.60547 6.1758-1.3906 7.9414-4.25 0.96875-1.5742 1.1875-3.2656 1.1328-4.9883 2.5664 0.25781 5.1797 0.75 7.2578 0.73828 0.039063 0.51953 0.09375 1.043 0.15234 1.5195 0.20703 1.4961 0.53906 2.9453 0.72266 4.4336-0.18359 0.023437-0.37109 0.042968-0.54688 0.0625-3.6523 0.48047-11.316 5.1406-4.6602 7.6211 5.3359 1.9883 6.6992-2.0039 6.7578-6.2539 1.8438-0.18359 3.8984-0.33203 5.9062-0.59375 0 0.023438 0 0.035157 0.011718 0.039063 0.49219 1.8633 1.5117 3.8711 1.8203 5.8203-1.7305-0.074218-3.4375 0.089844-5.0898 0.77344-2.1562 0.89453-3.5117 3.5625-2.4531 5.668 0.875 1.7461 4.168 1.3164 5.5 0.61719 2.3203-1.2031 3.5234-3.0469 3.8008-5.2305 1.9766 0.28125 4.4141 0.91797 6.5859 1.0078 0.14062 0.91797 0.35938 1.832 0.52734 2.7266 0.074219 0.39062 0.11719 0.77344 0.16406 1.1641-1.9922-0.035157-3.9414 0.32031-5.8477 1.5391-1.3789 0.89453-3.5859 3.457-1.9258 5.1055 1.8867 1.8828 5.8984 1.4766 7.8398-0.011719 1.5078-1.1523 1.7969-3.1914 1.7305-5.1641 2.9844 0.24609 6.1836 1.0312 8.9023 1.043 0.11719 1.2031 0.28516 2.4062 0.41016 3.6016 0.011719 0.074219 0.011719 0.14453 0.023438 0.21875-3.1211 0.09375-6.0703 0.46484-9.2188 2.3086-0.50391 0.28516-0.49219 0.88672-0.17188 1.293 1.0586 1.3477 3.5 3.5039 5.8008 4.3516-1.0547-0.09375-2.1172-0.28125-3.1992-0.56641-5.5781-1.5195-11.207-5.7969-16.363-8.418-9.6875-4.9453-19.59-8.5391-29.766-12.285-11.484-4.2266-22.031-11.098-33-16.465-9.9922-4.8906-20.262-9.1562-30.363-13.809-17.77-8.1719-37.516-4.082-54.344 4.1289-9.2773 4.543-18.129 10-27.66 14.023-11.168 4.7031-21.617 1.25-28.605-7.5938-2.0391-3.6406-3.9609-7.375-6.2539-10.824 1.1523-5.3086 2.1523-10.602 4.0039-15.703 1.668-0.59375 3.0586-0.64844 4.2188-0.30859 0.10547 0.29688 0.44141 0.37891 0.72266 0.28125 2.7031 1.2773 4.1758 4.8164 5.5664 8.2695 1.4375 8.9805 8.4375 16.586 17.977 15.898 5.0859-0.35938 9.9688-3.1094 14.27-5.6172 6.3516-3.7031 12.191-7.4883 19.078-10.246 7.3359-2.9297 15.113-4.8203 23.004-5.2656 8.418-0.46484 16.98 2.2734 24.82 5.0508 17.191 6.082 33.254 14.984 49.637 22.902 0.81641 0.39062 1.5391-0.83594 0.71875-1.2305-13.57-6.6289-26.918-13.473-40.887-19.234-13.145-5.4219-26.738-9.8555-41.047-7.8008-12.77 1.832-23.945 7.3477-34.77 13.996-5.2852 3.2422-11.02 6.2539-17.371 6.2148-5.2695-0.023437-9.5352-3.8711-12.273-8.5117 0.39062 0.17188 0.91797-0.34766 0.66797-0.79688-2.2852-4.1289-4.3633-12.359-8.9414-14.508 0.62891-4.8555 4.4336-13.562-0.80078-17.051-3.2656-2.1797-6.5859 0.039063-9.5195 2.207-1.0312 0.44141-1.8828 1.0703-2.5938 1.8555-0.09375 0.0625-0.19531 0.125-0.29297 0.18359-0.10156 0.0625-0.10156 0.15234-0.074218 0.23438-4.7773 6.0664-1.8047 19.734 1.1523 27.082-0.49219 4.832-2.2969 9.4883-3.9102 14.023-0.29688 0.83594-0.56641 1.668-0.8125 2.4922-0.015625-0.19531-0.050781-0.37891-0.0625-0.57812-0.003906-0.19531-0.27344-0.19531-0.28516 0-0.027344 0.61719-0.039063 1.2305-0.027344 1.8555-1.0586 3.8906-1.6445 7.7891-1.9766 11.895-0.039062 0.58984-0.074218 1.1719-0.11328 1.7695-0.21875-0.09375-0.50391 0.14062-0.35938 0.41016 0.09375 0.19531 0.20703 0.37891 0.29688 0.56641-0.66797 11.234-0.074219 22.742 0.60547 33.914 0.023438 0.21875 0.125 0.35938 0.26953 0.45312-2.6445 1.6445-4.832 3.0352-5.332 4.8906-0.33203 1.2305 0.11328 2.6836 1.6875 4.5547-0.61719 0.10547-1.1406 0.28125-1.5742 0.54688h-0.0625c-0.18359 0.015625-0.30078 0.15234-0.33203 0.29688-1.9219 1.6289-1.5977 5.125-0.56641 8.1797 0.085937 0.25781 0.15625 0.51562 0.20703 0.76562-0.32031 0.13281-0.33984 0.74609 0.0625 0.81641 0.027344 0.011718 0.050781 0.011718 0.074219 0.023437 0.63672 5.6719-4.168 12.57 0.83594 16.855 0.82422 1.4297 1.5742 2.8711 2.4922 4.1758 0.98438 1.418 2.1602 2.6953 3.8086 3.6289 4.6094 2.6641 11.145 3.0977 16.195 4.5469 5.1875 1.4844 10.289 3.5742 15.703 4.043 3.7852 0.33984 4.2617-3.0859 6.4922-5.0195 0.30859 0.039062 0.60547 0.085937 0.90625 0.11719 0.33984 1.6289 0.45312 3.2891 0.57812 4.9453 0.023438 0.28516 0.21875 0.49219 0.51563 0.51562 6.3906 0.35938 12.359 2.9297 18.75 3.3164 0.16406 0.003906 0.35937-0.10547 0.44141-0.25391 0.82422-1.6758 1.4883-3.3984 2.4297-5.0117 0.46875 1.5234 0.23438 4.2852 1.7812 5.1562 1.7305 0.97266 3.8203 1.0977 5.7305 1.4492 2.2734 0.42969 3.7734 1.2617 6.0703 0.37109 2.0156-0.76562 3.4062-2.9219 4.6211-4.5703 0.37109-0.51562-0.48047-0.99609-0.84375-0.49219-1.3164 1.7852-2.6055 3.5938-4.7422 4.4141-1.8203 0.71094-3.7734-0.42188-5.5547-0.75-1.2812-0.23438-2.5703-0.44141-3.8359-0.80469-1.6445-0.47656-1.8125-4.0391-2.5547-5.5547 1.8828 0.21875 3.7617 0.44141 5.6406 0.6875 4.1172 0.54688 8.2305 1.0859 12.359 1.625-0.17188 0.078125-0.28516 0.24219-0.29688 0.42578-0.40234 7.2852 6.6758 6.3906 11.883 7.2188 5.0234 0.81641 10.309 1.7031 15.395 1.8555 2.418 0.085938 4.1445-1.8086 5.8516-3.375 1.7695 5.6523 8.6875 5.0898 13.883 5.6719 5.2578 0.57812 10.656 1.6133 15.953 1.7852 2.25 0.085938 4.0938-2.418 5.3828-4.168 1.3398 2.3242 1.832 4.1328 4.7266 5.168 4.3047 1.5273 10.199-0.035156 14.598-0.39062 0.42188-0.039062 0.65625-0.35938 0.58203-0.78516 0.054687-0.57812 0.18359-1.0703 0.37891-1.4844 0.027344 0.011719 0.0625 0.035156 0.11719 0.023437 1.125-0.17187 10.422-1.7188 10.988 0.050782 0.37109 1.1523 1.0039 2.1562 2.2188 2.5312 4.0156 1.2695 8.4844-0.20312 12.434-1.0742 0.25781-0.054687 0.42578-0.3125 0.42969-0.57031 0.41406-1.2031 0.82422-2.4062 1.25-3.6055 0.53906-0.039063 1.1094-0.089844 1.6953-0.14062 1.0469-0.039063 2.0703-0.074219 3.1133-0.11719 1.1719 0.089844 2.1602 0.37109 2.6562 1.1367 1.0195 1.5391 3.1992 1.7305 4.8398 1.7969 1.7656 0.09375 3.6406-0.33203 5.3984-0.5 1.6289-0.15234 3.1797 0.33594 4.8047 0.10547 1.668-0.21094 2.5078-2.1602 3.3672-3.3203 0.066406-0.078125 0.054687-0.15625 0.035156-0.23047 3.1758-0.22266 6.3516-0.49219 9.5156-0.80469 0.99219 3.4062 3.5742 3.6953 7.2031 3.0195 6.5703-1.2109 13.5 0.28516 19.562-3.1289 0.23047-0.125 0.28125-0.40234 0.16406-0.62891-0.36328-0.59375-0.67578-1.2266-0.91406-1.875 2.1406 2.2617 3.1406 2.7773 6.5742 2.3789 2.4023-0.28125 4.8164-0.52734 7.1641-1.1211 3.0352-0.77344 5.125-2.4961 4.4453-4.7266 4.1758 2.6602 7.4492 1.9805 12.914 1.4219 3.875-0.39062 8.5898-0.52734 11.988-2.6562 2.1992-0.15625 4.5312-0.61719 6.8555-1.3047 6.0938-1.8047 12.227-5.2031 16.352-9.0781 0.19141-0.17188 0.38672-0.35938 0.58203-0.55859 5.8281-5.7695 6.3203-14.828 3.2305-22.074zm-123.94-80.73c0.19531-0.46484 0.39063-0.92969 0.58984-1.3906 0.82812-1.9023 1.7188-1.3711 2.6562 1.6289-0.52734 1.0977-1.4609 1.9805-2.3008 2.8516-0.68359 0.6875-1.3477 1.2305-2.0156 1.6562 0.19922-1.6172 0.58594-3.207 1.0703-4.7461zm-58.793-74.559c0.24609 0 0.42969-0.13281 0.53906-0.32031 1.5391-0.37109 3.0469-0.72656 4.4258-1.1719 0.22266-0.074219 0.42187-0.28125 0.40234-0.52734-0.023437-0.23047-0.035156-0.45312-0.054687-0.68359-0.035156-0.46875-0.76172-0.63672-0.875-0.11328-0.074219 0.32031-1.8594 0.875-4.0781 1.4727-1.4297-3.3828-0.98047-8.8594-1.4844-13.602 2.5312 5.0625 5.7188 9.7344 8.625 14.59-4.1445 0.30078-8.7461 0.86328-12.336 2.5156 1.4531-1.0898 2.8984-2.1719 4.8359-2.1602zm-5.6211 1.3398c-0.32031 0.17188-0.58203 0.27344-0.82812 0.30859 0.26562-0.10938 0.54688-0.21875 0.82812-0.30859zm21.688 54.418c-8.6758-2.6055-15.508-11.094-21.051-17.812-5.8477-7.0898-12.422-17.988-10.242-27.461 0.91797-4.0312 3.4609-6.3789 6.625-7.9336 0.085938 0.33203 0.18359 0.64844 0.25781 0.98438 0.066406 0.25781 0.37109 0.46484 0.63672 0.37891-2.4453 2.0039-3.8711 4.9844-3.3438 9.4258 1.1641 9.9102 9.2852 21.637 18.047 26.309 0.09375 0.050781 0.17187-0.089844 0.085937-0.14062-7.957-4.5586-14.004-14.414-16.723-22.914-4.0273-12.582 8.1094-15.148 17.785-15.875 3.1602 5.4102 5.5547 10.457 9.7539 15.238 4.4453 5.0625 8.7734 9.9102 10.656 16.547 1.2617 4.4141 2.0273 8.3281 6.1758 10.824 0.042969 0.027344 0.09375 0.050782 0.13281 0.074219 1.4141 9.4453-10.723 14.777-18.797 12.355zm21.414-13.191c-0.14453-1.5195 0.027344-3.0859 0.90234-4.7305 2.7891-5.332 9.1406-0.0625 3.6172 3.7305-1.5273 1.0312-3.0703 1.2773-4.5195 1zm-16.016 30.91c-3.6172 0.39062-7.4805-1.6953-8.6953-5.1445-2.043-5.7891 6.5586-3.3828 7.7852-2.8633 1.3984 0.59375 2.6953 1.5508 3.9492 2.3867 1.3672 0.91797 2.7266 1.7461 4.1172 2.4922-2.0664 1.668-4.4688 2.8398-7.1562 3.1289zm20.766 10.746c-1.5078 0.42187-2.9922 0.44141-4.543 0.39844-2.2305-1.7422-2.4766-2.8906-0.71875-3.457 0.85156-0.41406 1.7461-0.71875 2.6758-0.90625 2.8281-0.71094 5.4336 0.23438 8.0352 1.1641-1.4336 1.3242-3.418 2.2266-5.4492 2.8008zm7.4922-15.461c-0.64844-2.0664-1.1328-4.1562-0.81641-6.5117 0.17188-1.293 1.5078-7.3086 4.25-4.6797 3.375 3.2305-0.28125 7.9141-2.5352 10.32-0.28906 0.30469-0.58984 0.59766-0.89844 0.87109zm6.4453 20.945c-0.26953 1.4844-0.94531 2.7891-2.0391 3.9219-5.3828 1.3047-7.1172 0.28516-5.2188-3.0586 1.3398-2.6641 4.2227-3.168 7.4219-3.0117-0.023437 0.70312-0.0625 1.4141-0.16406 2.1484zm9.5039 9.6484c-3.7852 2.3477-5.1367 1.7422-4.0547-1.832 0.79688-0.52734 1.6445-0.89453 2.582-1.1016 0.62891-0.17188 1.3477-0.32031 2.1328-0.42188 0 1.1523-0.18359 2.2852-0.66016 3.3555zm3.1562-18.258c0.33984-0.41016 6.5508-3.0977 4.8086 0.09375-0.53125 1.0078-1.4609 1.8633-2.25 2.6641-1.3438 1.3477-2.8398 2.0898-4.4141 2.4688 0.12109-1.8984 0.66797-3.7578 1.8555-5.2266zm6.2383 9.7305c0.30078-1.5625 2.0039-2.8398 3.2539-3.6133 0.91406 1.0312 1.8203 2.0547 2.7344 3.0859-0.50391 0.50391-1.0742 0.90625-1.707 1.2148-1.3164 0.73828-2.7891 1.2305-4.3281 1.6016-0.10938-0.71875-0.10938-1.4805 0.046875-2.2891zm-1.6562 15.422c-2.5586 1.9492-6.8438-0.96484-1.625-3.1406 1.1328-0.46484 2.543-0.39844 3.7734-0.34766-0.14453 1.2344-0.73828 2.418-2.1484 3.4883zm11.09 4.9219c-0.86328 6.1641-6.2227 0.88672-5.5117 0.11719 1.4375-1.5742 3.4336-2.0625 5.6406-2.0703 0 0.64062-0.035156 1.293-0.12891 1.9531zm1.2461-11.953c0.34766-1.7305 1.3281-3.1914 2.4805-4.4844 0.015625-0.015625 5.2188-3.8203 4.8555-1.6016-0.58984 3.6719-3.9414 7.5547-7.5781 8.5664 0.007812-0.78906 0.058594-1.5977 0.24219-2.4805zm11.328 4.1406c0.61719-2.5703 5.2539-4.1289 4.5547-0.60547-0.63281 3.1484-2.4883 4.8438-4.9062 5.5898-0.023438-0.26953-0.054688-0.54297-0.0625-0.8125-0.070312-1.4219 0.089844-2.7734 0.41406-4.1719zm-5.3555 16.906c-1.3828-0.61719-2.5664-1.707-3.5664-2.8672 2.5039-1.2656 5.0234-1.6562 7.6172-1.7695 0.050781 2.7539-0.58203 6.1992-4.0508 4.6367zm-206.63-28.223c8.1875 1.3711 16.922-4.1758 23.863-7.7266 10.137-5.1758 19.836-11.121 30.715-14.66 11.945-3.8906 25.891-2.9844 37.559 1.3984 11.426 4.2891 22.695 9.9688 33.645 15.34 11.109 5.4414 21.582 12.207 33.246 16.477 11.82 4.3398 23.121 8.9805 34.289 14.879 4.2188 2.2188 8.6406 5.5312 13.574 5.8867 5.207 0.37109 10.074-0.95703 14.969-2.6211 0.77344-0.26953 0.46484-1.4375-0.33203-1.2266-3.8711 1.0547-7.582 2.1602-11.414 2.3633 0.73438-0.37109 1.3164-1.1094 1.668-2.3633 0.40234-1.3789 0.50391-2.7891 0.49219-4.1992 1.4688-0.003906 2.9531 0.035156 4.4922 0.035156 3.4883-0.011719 6.5859-1.1797 9.8906-1.4961 3.6836 1.418 10.023 6.6484 5.1445 10.277-1.8555 1.3906-4.9102 1.3047-7.0938 1.4375-6.0156 0.37109-11.895 2.1172-17.879 2.8125-7.9727 0.89453-14.816-1.9258-21.906-5.1953-6.9219-3.1914-13.703-6.6992-20.461-10.227-12.523-6.5391-25.027-12.996-37.945-18.727-12.555-5.5781-24.859-11.891-37.559-17.102-11.609-4.7773-22.371-4.2969-34.031-0.11719-6.2266 2.2227-11.82 5.3438-17.305 8.6953-4.7266 2.9023-9.3516 5.9688-14.211 8.8086-10.137 5.9062-21.578 6.6367-30.324-1.0078-0.56641-0.50391-1.1328-1.043-1.6758-1.6172-2.1094-2.207-3.8711-4.6797-5.4766-7.2734 3.8164 3.707 8.7148 6.2617 14.066 7.1484zm-14.922-55.168c5.4922 2.5938 1.4102 11.672 0.67188 16.426-1.1758-0.28125-2.4922-0.17969-3.9922 0.44141 0.050781-0.14453 0.10156-0.28516 0.15234-0.42969 0.98438-2.5078 1.293-5.3086 1.3906-7.9844 0.125-3.8398-1.2031-7.6055-5.0117-7.0273 2.1836-1.4141 4.5078-2.5039 6.7891-1.4258zm-8.5195 2.9062c7.4688-4.8398 5.8125 9.082 4.9727 12.234-0.09375 0.34766-0.32031 1.1094-0.61719 2.1172-0.011719 0.011718-0.011719 0.011718-0.023438 0.011718-0.15234 0.085938-0.16406 0.26953-0.10156 0.40234-1.2148 4.0664-3.4883 11.504-4.207 14.465-0.17188-0.23438-0.48047-0.16797-0.60547 0.015625-0.32031-0.76172-0.63672-1.5977-0.95703-2.4922v-0.14063c-0.011719-0.039062-0.039063-0.050781-0.074219-0.0625-2.9961-8.5352-5.4219-21.984 1.6133-26.551zm-1.457 29.285c0.33984 0.78516 0.66797 1.4727 0.98438 2.0508 0.16406 0.30859 0.51562 0.20703 0.63672-0.027344 0.085937 0.10547 0.23047 0.14453 0.34766 0.11328 1.2266 2.0703 2.4062 4.1602 3.5742 6.2656-0.015625 0.074219-0.027344 0.15625 0.023437 0.24609 0.57812 1.1641 1.2539 2.2734 1.9922 3.3359 2.3633 4.1562 4.8672 8.2227 7.9844 11.871 0.29688 0.34766 0.60547 0.69531 0.91797 1.0078 5.9141 6.1445 13.828 7.668 22.164 6.0078 5.6602-1.1211 10.773-4.2852 15.52-7.3984 3.7695-2.4805 7.4922-4.9062 11.34-7.1523 2.1602-1.2656 4.3633-2.4688 6.6367-3.5938 7.0625-3.4648 14.695-6.2656 22.566-6.9961 8.8359-0.83594 17.512 2.8008 25.336 6.4297 14.363 6.6602 28.863 13.086 43.137 19.938 14.379 6.8828 28.234 14.816 42.57 21.797 5.5664 2.7031 11.559 6.0938 17.801 6.8828 6.8086 0.875 13.281-0.51562 19.957-1.7305 5.7891-1.0547 18.828 0.18359 15.496-9.4375-0.65625-1.8828-2.0938-3.375-3.8086-4.4531 0.19531 0.027343 0.39062 0.0625 0.59375 0.10547 4.0586 0.83984 7.875 3 11.832 4.2188 2.3672 0.73438 4.7383 1.4297 7.1133 2.1406-0.16406 0.035157-0.33203 0.11719-0.44922 0.28125-7.9453 10.348-20.469 14.777-33.543 15.668-10.539 0.71875-21.441-0.85156-30.605-3.4766-1.2812-0.37109-2.5547-0.76172-3.8203-1.1914-12.746-4.2188-24.617-10.949-36.559-16.98-12.629-6.3672-25.727-12.02-38.617-17.809-0.42969-0.19531-0.85156-0.37891-1.2812-0.57031-10.617-4.6484-21.609-7.8398-33.332-6.5742-12.801 1.3906-24.891 8.3203-36.703 12.953-12.691 4.9766-26.105 7.5547-39.379 3.3672-6.2227-1.9766-11.355-5.4102-15.082-9.9531-4.0156-4.8672-6.3906-10.988-6.7539-17.891 0.78906-3.1172 1.3633-6.25 1.4102-9.4453zm-2.1562 12.109c0.53906 6.2344 2.9219 11.441 6.5352 15.629 8.2695 9.5977 22.949 13.777 36.188 12.398 13.469-1.3984 25.805-8.2227 38.215-13.121 14.508-5.7188 28.039-6.7969 42.895-1.6523 4.7031 1.6133 9.1992 3.7227 13.648 5.9141 1.8828 0.92969 3.7578 1.8711 5.6289 2.8008 6.5977 3.2695 13.344 6.1211 20.027 9.1992 13.004 6.0078 25.379 13.273 38.656 18.699 0.27344 0.11328 0.55469 0.22266 0.82812 0.33203 5.8594 2.3281 12.113 4.1992 18.523 5.3945 0.011719 0 0.027344 0 0.039063 0.011719 4.6523 0.86328 9.375 1.3789 14.09 1.4844 4.1992 0.089844 8.3906-0.14453 12.48-0.76172 6.3125-0.95703 12.434-2.8164 18.133-5.7617 4.6484-2.4062 8.6016-5.9062 11.77-10.051 0.21875-0.28516 0.15625-0.56641-0.027344-0.76172 1.6758 0.50391 3.3555 1.0195 5.0195 1.5625 3.9609 1.2812 7.8398 2.7773 11.594 4.5195-2.2109 0.86328-4.2734 2.0391-6.2812 3.293-2.6836 1.6758-5.2812 3.5039-8.0547 5.0117-4.3164 2.3359-8.7656 4.3867-13.367 6.043-2.2852 0.81641-4.5977 1.5391-6.9648 2.1602-14.336 3.7227-30.477 2.8047-44.863-0.0625-13.797-2.7656-27.176-8.7852-40.215-13.957-0.28125-0.11328-0.55859-0.21875-0.82422-0.33984-13.758-5.6172-25.633-14.336-38.59-21.43-11-6.0195-22.277-8.707-34.738-6.8945-14.145 2.0508-28.164 7.7188-41.559 12.512-13.551 4.8672-26.957 8.4883-40.523 1.793-6.8594-3.3945-12.621-8.7344-16.418-15.223-1.9492-3.3047-3.3672-6.9062-4.168-10.703 0.72266-2.7109 1.5664-5.3789 2.3242-8.0391zm-3.8867 16.691c0.15234-2.3242 0.57812-4.6094 1.1211-6.8672 0.6875 3.4609 2.0039 6.7539 3.8203 9.7891 7.668 12.875 24.121 21.23 38.578 19.02 15.148-2.3125 29.734-8.9727 44.297-13.57 7.8398-2.4688 15.848-4.4648 24.078-4.8398 8.7031-0.39062 17.203 2.8516 24.82 6.6992 12.668 6.4023 23.961 14.844 36.863 20.828 0.83984 0.39063 1.707 0.78516 2.5742 1.1523 13.445 5.7734 27.758 11.609 42.086 14.711 13.77 2.9844 28.359 3.2188 42.23 0.77344 4.2188-0.75 8.3203-2.0547 12.305-3.6523 1.8867-0.73828 3.7461-1.5508 5.5781-2.3984 5.3555-2.457 9.9414-5.7969 14.777-8.9102 1.4336-0.91797 2.8711-1.8125 4.375-2.6641 0.44141-0.20703 0.88672-0.41016 1.3203-0.61719 3.6055 1.707 7.0859 3.6641 10.398 5.9414-1.625 1.2539-3.2812 2.457-4.9727 3.6016-5.2539 3.5781-10.758 6.625-16.457 9.1328-18.324 8.0703-38.617 10.641-59.074 8.2148-26.652-3.1797-51.941-14.004-75.789-26.105-2.5195-1.2773-5.0195-2.5703-7.5156-3.8633-10.938-5.7109-22.293-10.422-34.613-12.02-13.273-1.707-26.168 2.2109-38.781 5.8516-14.066 4.0781-28.828 8.2773-43.602 5.875-11.211-1.8203-19.426-9.4648-25.828-18.285-0.97266-1.3477-1.9141-2.7148-2.8164-4.1055 0.0625-1.2344 0.13281-2.4727 0.22656-3.6914zm-0.29688 5.0508c0.8125 1.3984 1.6953 2.7773 2.6562 4.1172v0.011718c4.7422 6.7539 11.066 12.617 18.676 15.668 12.473 4.9883 26.371 2.8516 39.059-0.16406 15.109-3.5859 29.832-9.7422 45.574-9.4648 15.812 0.29297 30.102 7.6055 43.82 14.672 0.17188 0.09375 0.33984 0.17188 0.51563 0.25781 25.816 13.266 53.223 24.758 82.309 27.848 19.656 2.0781 39.555-1.0312 57.211-9.3359 5.4023-2.5312 10.59-5.543 15.488-9.0547 1.6758-1.1797 3.3281-2.4414 4.9297-3.7578 6.418 4.4961 14.133 11.523 16.117 19.656-0.37109 0.0625-0.71094 0.37891-0.59375 0.86328 0.98438 4.1055 1.0195 7.7383-3.3945 9.1172-0.19531 0.066406-0.39062 0.125-0.60547 0.17188-0.32422 0.085937-0.64844 0.18359-0.98047 0.32422-1.3789 0.52734-2.7148 1.4297-3.5234 2.6133-1.8477 2.6992-2.582 5.7461-5.582 7.5664-2.9062 1.7461-7.0273 1.9648-10.293 2.1719-15.391 0.95703-30.734-1.2812-46.082-1.6055-17.371-0.375-34.676-1.9492-52.109-2.2852-8.9023-0.17188-17.773-0.22266-26.652-0.89062-3.7188-0.29297-7.2461-0.60547-10.961-0.32422-3.7227 0.30078-7.7266 0.35938-10.875-1.9141-0.24609-0.17969-0.52734 0.066406-0.52734 0.32422-2.0781-1.2266-4.1562-2.3906-6.7461-2.7031-6.8672-0.83984-12.582-4.4336-18.277-8.0859-10.199-6.5234-23.328-8.3164-34.707-12.027-11.801-3.8594-23.309-6.8203-35.695-7.9531-0.015625 0-0.050781 0-0.074218-0.011718 8.8086-1.5273 17.102-6.2031 25.211-9.7539 0.0625-0.035156 0.125-0.050781 0.18359-0.085937 11.105-4.8477 21.426-6.6406 33.227-3.1211 1.9375 0.57812 3.8398 1.2656 5.7227 2.0391 7.2734 2.9609 14.172 7.2031 20.73 11.355 10.496 6.6641 19.414 17.348 11.969 29.902-0.0625 0.11719-0.085937 0.23438-0.074218 0.33984v0.023437c0.050781 0.49219 0.79687 0.78906 1.1328 0.25781 12.945-20.52-15.566-35.027-30.703-41.887-0.085937-0.039062-0.15234-0.085938-0.23438-0.11719-10.801-4.8789-21.492-6.5859-32.949-3.2422-4.3867 1.2773-8.6133 2.9414-12.812 4.7422-7.4883 3.1992-14.844 6.7812-22.668 9.1797-0.13281 0.039062-0.17187 0.13281-0.18359 0.23438-6.6523-0.58984-13.301-1.043-19.918-2.0508-3.4375-0.52734-6.793-1.3984-10.137-2.3242-2.1016-0.57812-4.1758-1.1719-6.2891-1.707-3.332-1.2656-6.6602-2.7031-10.258-2.7891-1.0977-0.027343-2.1914 0.20703-3.2422 0.61719-2.4805 0.92969-4.793 2.7383-6.875 4.0781-0.81641-10.535-1.0234-20.98-0.50781-31.496zm160.39 69.332c-0.20312 0.074219-0.41016 0.15234-0.61719 0.24609-0.027344-0.14062-0.11719-0.26953-0.28516-0.33203-0.042969-0.011719-0.085938-0.035156-0.125-0.042969 0.33594 0.054687 0.67969 0.09375 1.0273 0.12891zm-129.96 14.801c-4.4531-0.72656-8.7539-2.5273-13.047-3.8516-4.6094-1.4219-9.3242-2.3672-13.949-3.7031-2.3594-0.68359-3.9805-2.0898-5.3555-3.7812-0.71094-0.875-1.3477-1.8086-1.9805-2.7656 0.039063 0.023438 0.074219 0.039062 0.11328 0.0625 0.050781 0.035156 0.11719-0.039062 0.074218-0.085938-0.21875-0.17187-0.37891-0.35937-0.56641-0.54687-0.50391-0.75-1.0195-1.5-1.5742-2.2188 3.1484 1.6133 6.3906 2.8516 9.7227 3.9297 1.6172 0.52734 3.2539 1.0195 4.8984 1.5 6.5625 1.9141 12.988 4.2578 19.672 5.7344 3.1406 0.69531 6.3047 1.2656 9.4961 1.7539-2.0859 2.0703-2.9844 4.7188-7.5039 3.9727zm28.004 4.0273c-3.0977-0.17188-6.2109-1.1719-9.1992-1.9414-2.1055-0.54688-4.2188-0.94531-6.3789-1.2227-1.0312-0.11719-1.6055-2.8047-2.0156-4.4141 7.125 1.0117 14.312 1.7031 21.449 2.5039-0.93359 1.6406-2.4844 5.1445-3.8555 5.0742zm56.414 1.7188c-0.25781-0.32031-0.83594-0.074218-0.76172 0.41406-0.75 0.51562-1.3477 1.2422-2.1719 1.8945-3.3203 2.6641-7.4688 1.1211-11.246 0.69922-3.3555-0.37109-6.7188-0.91797-10.086-1.1758-2.7148-0.21094-10.445-1.4492-8.1602-6.0586 10.93 1.4219 21.867 2.8125 32.816 4.1055-0.13672 0.035157-0.26562 0.082032-0.39062 0.12109zm53.703 6.8711c-1.0742 1.8555-0.78516 1.832-3.332 2.0781-2.7656 0.26953-5.5156 0.47656-8.293 0.40234-3.7695-0.11719-4.8945-2.5547-6.8555-4.9492 0.26953-0.58203-0.67578-1.082-1.1094-0.5-2.2188 2.9453-3.7578 4.3633-7.707 3.7812-3.0586-0.44141-6.1641-0.67578-9.2305-1.082-5.7383-0.76172-14.094 0.60547-16.762-5.5703 0.19531-0.16797 0.40234-0.32422 0.60547-0.45312 0.23437-0.16406 0.23437-0.42969 0.10547-0.60547 13.367 1.5781 26.73 3.0586 40.105 4.3125 5.0898 0.47656 10.164 0.74609 15.23 0.85156-0.92969 0.39062-2.207 0.82031-2.7578 1.7344zm26.461 0.09375c-0.11719 1.668-1.793 1.5078-3.0703 1.7812-2.9102 0.65625-9.3516 2.2773-9.9805-2.25-0.042969-0.29297-0.37891-0.39062-0.61719-0.34766-3.7344 0.60547-7.5039 0.35938-11.238 1.0625 0.39062-0.59375 0.95703-0.99609 1.7266-1.2031 0.35938-0.15234 0.27344-0.64453 0.015625-0.85156 7.7734 0.16406 15.539 0.011719 23.352-0.23438 0.19141 0.035157 0.41016 0.050781 0.64453 0.0625-0.42188 0.59375-0.79297 1.2422-0.83203 1.9805zm22.82-0.75c-2.7266-0.24609-5.332 0.20703-8.0469 0.37109 0.91406-0.16406-1.6367-1.2617-3.8008-2.0391 5.4805-0.20703 10.98-0.46484 16.453-0.81641-1.4297 1.1094-2.6914 2.6602-4.6055 2.4844zm-20.203-2.7539c-13.922 0.44922-27.629 0.73828-41.539-0.37109-27.66-2.2188-55.328-5.9883-82.824-9.6992-10.723-1.457-21.648-2.5859-32.496-4.1602-0.0625-0.29688-0.40234-0.57812-0.76172-0.39844-0.16797 0.0625-0.29687 0.14062-0.44141 0.22266-11.809-1.7461-23.516-4.0664-34.738-7.9531-3.7344-1.2812-7.4102-2.7422-11.02-4.4141-0.015625-0.011718-0.027344 0-0.050782-0.011718-1.6133-4.0039 0.19531-8.6133 1.2031-13.027 0.074218-0.33203 0.09375-0.69922 0.0625-1.0938 1.3594 0.37109 2.6758 0.86328 3.9688 1.4102 2.3477 0.96875 4.6406 2.0781 7.1016 2.7656 4.4062 1.2266 8.7695 2.6719 13.027 4.3047 0.72266 0.28125 1.0078-0.85156 0.32031-1.1328-4.2383-1.7461-8.6406-3.0117-13.027-4.3047-2.8047-0.81641-5.4102-2.1289-8.1406-3.0742-1.0977-0.39062-2.2305-0.73438-3.3945-0.94531-0.57812-2.9336-2.4922-6.832-0.42969-8.6875 1.9805-0.011719 3.9609 0.050781 5.9141 0.16406 9.9531 0.57812 19.57 2.6133 29.34 5.0391 11.266 2.8008 22.383 4.0547 33.789 5.9805 11.492 1.9375 22.914 4.4727 34.441 6.4102 10.207 1.7188 20.68 5.5156 31.051 5.6094 0.58984 0.003906 0.75-0.96875 0.14453-1.0547-11.02-1.5625-21.797-4.3945-32.781-6.2266-11.508-1.9023-22.914-4.4258-34.41-6.3281-5.6289-0.93359-11.352-1.3164-16.992-2.1797-5.6602-0.86719-11.246-2.5195-16.801-3.8906-9.1914-2.2734-18.715-4.5312-28.258-4.5195-1.0078 0-2.0039 0.027343-3.0117 0.085937 0.003906-0.015625 0.015625-0.039063 0.027344-0.0625 0.25781-0.039063 0.52734-0.074219 0.82422-0.085937 0.16406-0.003907 0.15625-0.23438 0-0.25781-0.30859-0.015625-0.59375-0.027344-0.86328-0.015625-0.011719-0.023438-0.011719-0.027344-0.023437-0.039062-1.6875-2.1836-2.0391-3.6016-1.625-4.6523 0.53125-1.4297 2.4414-2.1992 4.2773-3.293 1.8438-1.0938 3.6328-2.2734 5.4414-3.4141 0.94531-0.59375 1.8828-1.0195 2.8047-1.2812 2.6953-0.82422 5.332-0.45312 7.9961 0.20703 0.027344 0.027344 0.050781 0.074218 0.10547 0.085937 2.8633 0.96875 5.7109 1.8555 8.5625 2.625 9.3008 2.5664 18.625 4.1289 28.41 4.9062 14.438 1.1641 27.539 3.8984 41.25 8.4883 11.922 3.9805 25.055 5.9922 35.746 12.828 4.5078 2.8945 8.7969 5.1367 13.922 6.6797 3.1289 0.94531 6.2227 0.39844 9.3242 2.1523 2.0039 1.1328 3.7344 2.4531 5.8867 3.2695-2.8516 1.6367-5.1953 4.6523-8.4727 4.793-0.19141 0.011719-0.17969 0.26953 0 0.29297 1.6797 0.17187 3.2305-0.42969 4.6641-1.2695 2.2734-1.3203 4.168-2.8633 6.6641-3.7852 0.30859-0.125 0.39844-0.39062 0.33984-0.62891 2.7383 0.011718 5.5898-0.39844 8.1602-0.29297-5.0195 0.11719-9.3516 5.8125-13.434 8.0195-0.33203 0.17188-0.042969 0.63672 0.28125 0.49219 2.375-1.0625 4.4023-2.6445 6.4688-4.1953 2.3477-1.7578 4.6094-2.75 7.3984-3.6172 0.34766-0.10547 0.30078-0.54688 0-0.64844 10.062 0.86328 20.074 1.2266 30.172 1.4375 10.613 0.24219 21.348 0.33594 31.902 1.4219 4.9219 0.51562 9.7891 1.2383 14.738 1.3789 5.0117 0.14062 9.9297-0.21094 14.965 0.19531 9.7383 0.79688 19.504 1.2812 29.281 1.3164 4.8477 0.011719 10.062 0.19531 14.918-0.82422-8.4219 4.6211-17.91 7.0938-27.34 8.9766-13.652 2.7266-27.164 5.9648-41.004 7.75-13.59 1.7305-27.348 2.0742-41.016 2.5273zm59.191-0.39062c-2.6328 1.0938-5.6914 1.1523-8.5 1.3281-2.4062 0.14062-4.8086 0.19531-7.2109 0.42969-3.3945 0.33203-6.0469 1.625-7.9141-2.0039 2.457-0.24609 4.9336-0.51562 7.3867-0.83984 5.6953-0.75781 11.352-1.7461 16.996-2.8633 0.48047 1.4648 1.4492 3.0352-0.75781 3.9492zm12.734-2.0781c-1.1758 0.21094-2.3789 0.28125-3.5625 0.46484-1.0586 0.16406-2.0781 0.34766-3.1602 0.42187-1.4727 0.10547-3.0469-1.668-4.0938-2.5664-0.09375-0.074218-0.17188-0.09375-0.26953-0.074218-0.015625-0.10547-0.027344-0.19531-0.050781-0.28516 5.4414-1.0938 10.863-2.2969 16.27-3.5234 3.7031 3.6953-2.2266 5.0469-5.1328 5.5625zm31.629-6.25c-0.33594 0.21875-0.67578 0.41016-1.043 0.57812-0.089844 0.011719-0.16406 0.023437-0.25391 0.035156-0.089844 0-0.12891 0.074219-0.14062 0.14062-2.6641 1.1406-6.0352 1.3398-8.7266 1.6367-2.4141 0.26953-4.7812 0.67188-7.1836 0.96875-3.0742 0.37891-5.207-0.93359-7.543-2.5352-0.10547-0.14453-0.20703-0.28125-0.33203-0.42578 1.3281-0.29688 2.6562-0.59766 3.9805-0.90234 6.5742-1.5078 13.234-3.1875 19.539-5.6523 0 0.11328 0.035156 0.23438 0.11719 0.33984 1.5273 1.957 5.1133 3.5039 1.5859 5.8164zm22.527-10.094c-3.1641 3.1875-7.9531 6.0703-12.926 8.0312-2.75 1.0977-5.5547 1.9141-8.1797 2.3477 0.83594-0.64844 1.5742-1.457 2.1602-2.4531 0.11719-0.19531 0.10547-0.51562-0.085937-0.66797-1.4727-1.1992-3.0352-2.2617-4.2852-3.6953 3.3359-1.3438 6.5586-2.918 9.625-4.8086 0.41016-0.14453 0.81641-0.30078 1.2305-0.46484 1.9258-0.78516 3.3164-2.3359 4.4453-4.0156 0.79688-1.1719 1.293-2.5586 1.9766-3.7969 0.79688-1.4609 1.9492-2.1523 3.2422-2.6367 0.77344-0.29297 1.6055-0.50391 2.4297-0.76172 0.33203-0.10547 0.67188-0.21875 1.0039-0.33984 1.7461-0.66016 2.6758-1.9023 3.0977-3.3828 0.49219 0.53906 1.5977 0.11719 1.3281-0.71094-0.20703-0.60547-0.30078-1.2383-0.35938-1.8945 1.625 5.5664 1.0312 11.172-2.0391 15.938-0.73828 1.1523-1.6211 2.2617-2.6641 3.3125z"/>
  <path d="m544.68 355.45c-2.6875 0.26172-5.3242 0.86719-8.0195 1.1602-0.28125 0.027344-0.50781 0.20703-0.50781 0.50391-0.011719 5.0469-7.7227 11.121-12.621 9.9922-0.24219-0.0625-0.34766 0.3125-0.10547 0.37109 3.5625 0.87891 7.0781-1.6641 9.6953-3.7578 1.3828-1.1016 2.918-2.6992 3.5625-4.3906 0.38672-1.0234 0.11328-1.7188 1.4102-1.8359 2.207-0.20312 4.3789-0.73438 6.5859-0.98047 0.67187-0.082031 0.68359-1.1328 0-1.0625z"/>
  <path d="m289.49 345.22c-5.875-0.33984-11.156-0.96875-16.867-2.4531-5.5547-1.4375-11.219-2.8711-17-2.6758-3.4648 0.11719-7.1641 1.5078-8.8477 4.6914-0.73828 1.4219-1.1094 3.6641-0.37109 5.1641-0.18359-0.14062-0.40234 0.16797-0.24609 0.32422 3.3672 3.3828 8.6758 3.1094 13.098 3.7031 7.3984 1.0039 14.805 2.5664 22.238 3.3047 0.09375 0.011718 0.16406-0.023438 0.21875-0.074219 3.8984 0.72656 7.7891 1.3906 11.664 1.9922 3.168 0.49219 12.02 2.9062 14.223-1.0586 5.6523-10.168-12.371-12.59-18.109-12.918zm11.672 13.613c-11.434-0.50391-22.383-4.8203-33.762-5.2969-0.33203-0.011718-0.41016 0.40234-0.19531 0.58203-1.6172-0.19531-3.2422-0.37109-4.8477-0.55859-4.5078-0.51562-9.8789-0.42188-14.066-2.4688-0.015625-0.050782-0.050781-0.10156-0.125-0.11719-2.6562-1.0703-1.0938-4.8555-0.17188-6.5586 0.98438-1.8477 3.6406-2.6562 5.4922-3.0977 4.3867-1.043 9.3398 0.18359 13.625 1.1719 6.2656 1.4453 12.09 3.4727 18.555 3.7344 3.9102 0.17188 7.7891 0.34766 11.66 0.99219 1.9492 0.33203 3.9219 0.89453 5.7227 1.6914 0.93359 0.44922 1.7812 1.0547 2.5312 1.7734 3.5938 3.1797-0.23047 8.3359-4.418 8.1523z"/>
  <path d="m298.77 354.3c-6.8359-1.3711-13.496-3.1914-20.293-4.7539-7.6172-1.7461-15.469-2.3516-23.18-3.5898-0.09375-0.015625-0.14062 0.125-0.039063 0.14453 7.6094 1.6953 15.332 2.7891 22.965 4.3516 6.793 1.3945 13.445 4.4258 20.461 4.418 0.33594 0.007812 0.41797-0.50781 0.085937-0.57031z"/>
  <path d="m360.1 362.79c-7.0898-1.0703-14.34-1.7422-21.48-2.3594-3.8203-0.33594-7.6094-0.69531-11.426-1.1367-4.2617-0.5-9.25 0.039062-13.195-1.8086-0.11719-0.0625-0.22266 0.11328-0.10547 0.17188 5.3125 2.8398 13.105 2.1836 18.949 2.918 8.8945 1.1211 18.223 2.6602 27.188 2.7148 0.28906 0.015626 0.35938-0.44922 0.070312-0.5z"/>
  <use x="70" y="644" xlink:href="#v"/>
  <use x="90.550781" y="644" xlink:href="#b"/>
  <use x="104.359375" y="644" xlink:href="#d"/>
  <use x="123.347656" y="644" xlink:href="#c"/>
  <use x="142.242188" y="644" xlink:href="#e"/>
  <use x="155.628906" y="644" xlink:href="#d"/>
  <use x="174.617188" y="644" xlink:href="#l"/>
  <use x="204.410156" y="644" xlink:href="#k"/>
  <use x="224.453125" y="644" xlink:href="#f"/>
  <use x="252.453125" y="644" xlink:href="#j"/>
  <use x="275.433594" y="644" xlink:href="#c"/>
  <use x="294.328125" y="644" xlink:href="#u"/>
  <use x="314.371094" y="644" xlink:href="#c"/>
  <use x="333.265625" y="644" xlink:href="#i"/>
  <use x="359.679688" y="644" xlink:href="#t"/>
  <use x="381.351562" y="644" xlink:href="#b"/>
  <use x="395.15625" y="644" xlink:href="#f"/>
  <use x="413.410156" y="644" xlink:href="#a"/>
  <use x="442.394531" y="644" xlink:href="#h"/>
  <use x="462.914062" y="644" xlink:href="#b"/>
  <use x="476.726562" y="644" xlink:href="#c"/>
  <use x="495.617187" y="644" xlink:href="#i"/>
  <use x="512.285156" y="644" xlink:href="#a"/>
  <use x="531.523437" y="644" xlink:href="#g"/>
  <use x="541.117187" y="644" xlink:href="#a"/>
  <use x="70" y="672" xlink:href="#s"/>
  <use x="82.183594" y="672" xlink:href="#b"/>
  <use x="95.992188" y="672" xlink:href="#a"/>
  <use x="115.226562" y="672" xlink:href="#r"/>
  <use x="154.152344" y="672" xlink:href="#e"/>
  <use x="167.535156" y="672" xlink:href="#q"/>
  <use x="187.46875" y="672" xlink:href="#d"/>
  <use x="216.207031" y="672" xlink:href="#p"/>
  <use x="239.640625" y="672" xlink:href="#a"/>
  <use x="258.878906" y="672" xlink:href="#o"/>
  <use x="278.8125" y="672" xlink:href="#n"/>
  <use x="308.492188" y="672" xlink:href="#h"/>
  <use x="329.015625" y="672" xlink:href="#b"/>
  <use x="342.820312" y="672" xlink:href="#a"/>
  <use x="362.058594" y="672" xlink:href="#g"/>
  <use x="371.65625" y="672" xlink:href="#d"/>
  <use x="390.648438" y="672" xlink:href="#m"/>
  <use x="407.242188" y="672" xlink:href="#e"/>
 </g>
</svg>
