<?xml version="1.0" encoding="UTF-8"?>
<svg width="700pt" height="700pt" version="1.1" viewBox="0 0 700 700" xmlns="http://www.w3.org/2000/svg" xmlns:xlink="http://www.w3.org/1999/xlink">
 <defs>
  <symbol id="v" overflow="visible">
   <path d="m18.766-1.125c-0.96875 0.5-1.9805 0.875-3.0312 1.125-1.043 0.25781-2.1367 0.39062-3.2812 0.39062-3.3984 0-6.0898-0.94531-8.0781-2.8438-1.9922-1.9062-2.9844-4.4844-2.9844-7.7344 0-3.2578 0.99219-5.8359 2.9844-7.7344 1.9883-1.9062 4.6797-2.8594 8.0781-2.8594 1.1445 0 2.2383 0.13281 3.2812 0.39062 1.0508 0.25 2.0625 0.625 3.0312 1.125v4.2188c-0.98047-0.65625-1.9453-1.1406-2.8906-1.4531-0.94922-0.3125-1.9492-0.46875-3-0.46875-1.875 0-3.3516 0.60547-4.4219 1.8125-1.0742 1.1992-1.6094 2.8555-1.6094 4.9688 0 2.1055 0.53516 3.7617 1.6094 4.9688 1.0703 1.1992 2.5469 1.7969 4.4219 1.7969 1.0508 0 2.0508-0.14844 3-0.45312 0.94531-0.3125 1.9102-0.80078 2.8906-1.4688z"/>
  </symbol>
  <symbol id="b" overflow="visible">
   <path d="m13.734-11.141c-0.4375-0.19531-0.87109-0.34375-1.2969-0.4375-0.41797-0.10156-0.83984-0.15625-1.2656-0.15625-1.2617 0-2.2305 0.40625-2.9062 1.2188-0.67969 0.80469-1.0156 1.9531-1.0156 3.4531v7.0625h-4.8906v-15.312h4.8906v2.5156c0.625-1 1.3438-1.7266 2.1562-2.1875 0.82031-0.46875 1.8008-0.70312 2.9375-0.70312 0.16406 0 0.34375 0.011719 0.53125 0.03125 0.19531 0.011719 0.47656 0.039062 0.84375 0.078125z"/>
  </symbol>
  <symbol id="d" overflow="visible">
   <path d="m17.641-7.7031v1.4062h-11.453c0.125 1.1484 0.53906 2.0078 1.25 2.5781 0.70703 0.57422 1.7031 0.85938 2.9844 0.85938 1.0312 0 2.082-0.14844 3.1562-0.45312 1.082-0.3125 2.1914-0.77344 3.3281-1.3906v3.7656c-1.1562 0.4375-2.3125 0.76562-3.4688 0.98438-1.1562 0.22656-2.3125 0.34375-3.4688 0.34375-2.7734 0-4.9297-0.70312-6.4688-2.1094-1.5312-1.4062-2.2969-3.3789-2.2969-5.9219 0-2.5 0.75391-4.4609 2.2656-5.8906 1.5078-1.4375 3.582-2.1562 6.2188-2.1562 2.4062 0 4.332 0.73047 5.7812 2.1875 1.4453 1.4492 2.1719 3.3828 2.1719 5.7969zm-5.0312-1.625c0-0.92578-0.27344-1.6719-0.8125-2.2344-0.54297-0.57031-1.25-0.85938-2.125-0.85938-0.94922 0-1.7188 0.26562-2.3125 0.79688s-0.96484 1.2969-1.1094 2.2969z"/>
  </symbol>
  <symbol id="c" overflow="visible">
   <path d="m9.2188-6.8906c-1.0234 0-1.793 0.17188-2.3125 0.51562-0.51172 0.34375-0.76562 0.85547-0.76562 1.5312 0 0.625 0.20703 1.1172 0.625 1.4688 0.41406 0.34375 0.98828 0.51562 1.7188 0.51562 0.92578 0 1.7031-0.32812 2.3281-0.98438 0.63281-0.66406 0.95312-1.4922 0.95312-2.4844v-0.5625zm7.4688-1.8438v8.7344h-4.9219v-2.2656c-0.65625 0.92969-1.3984 1.6055-2.2188 2.0312-0.82422 0.41406-1.8242 0.625-3 0.625-1.5859 0-2.8711-0.45703-3.8594-1.375-0.99219-0.92578-1.4844-2.1289-1.4844-3.6094 0-1.7891 0.61328-3.1016 1.8438-3.9375 1.2383-0.84375 3.1797-1.2656 5.8281-1.2656h2.8906v-0.39062c0-0.76953-0.30859-1.332-0.92188-1.6875-0.61719-0.36328-1.5703-0.54688-2.8594-0.54688-1.0547 0-2.0312 0.10547-2.9375 0.3125-0.89844 0.21094-1.7305 0.52344-2.5 0.9375v-3.7344c1.0391-0.25 2.0859-0.44141 3.1406-0.57812 1.0625-0.13281 2.125-0.20312 3.1875-0.20312 2.7578 0 4.75 0.54688 5.9688 1.6406 1.2266 1.0859 1.8438 2.8555 1.8438 5.3125z"/>
  </symbol>
  <symbol id="e" overflow="visible">
   <path d="m7.7031-19.656v4.3438h5.0469v3.5h-5.0469v6.5c0 0.71094 0.14062 1.1875 0.42188 1.4375s0.83594 0.375 1.6719 0.375h2.5156v3.5h-4.1875c-1.9375 0-3.3125-0.39844-4.125-1.2031-0.80469-0.8125-1.2031-2.1797-1.2031-4.1094v-6.5h-2.4219v-3.5h2.4219v-4.3438z"/>
  </symbol>
  <symbol id="l" overflow="visible">
   <path d="m12.766-13.078v-8.2031h4.9219v21.281h-4.9219v-2.2188c-0.66797 0.90625-1.4062 1.5703-2.2188 1.9844s-1.7578 0.625-2.8281 0.625c-1.8867 0-3.4336-0.75-4.6406-2.25-1.2109-1.5-1.8125-3.4258-1.8125-5.7812 0-2.3633 0.60156-4.2969 1.8125-5.7969 1.207-1.5 2.7539-2.25 4.6406-2.25 1.0625 0 2 0.21484 2.8125 0.64062 0.82031 0.42969 1.5664 1.0859 2.2344 1.9688zm-3.2188 9.9219c1.0391 0 1.8359-0.37891 2.3906-1.1406 0.55078-0.76953 0.82812-1.8828 0.82812-3.3438 0-1.457-0.27734-2.5664-0.82812-3.3281-0.55469-0.76953-1.3516-1.1562-2.3906-1.1562-1.043 0-1.8398 0.38672-2.3906 1.1562-0.55469 0.76172-0.82812 1.8711-0.82812 3.3281 0 1.4609 0.27344 2.5742 0.82812 3.3438 0.55078 0.76172 1.3477 1.1406 2.3906 1.1406z"/>
  </symbol>
  <symbol id="k" overflow="visible">
   <path d="m10.5-3.1562c1.0508 0 1.8516-0.37891 2.4062-1.1406 0.55078-0.76953 0.82812-1.8828 0.82812-3.3438 0-1.457-0.27734-2.5664-0.82812-3.3281-0.55469-0.76953-1.3555-1.1562-2.4062-1.1562-1.0547 0-1.8594 0.38672-2.4219 1.1562-0.55469 0.77344-0.82812 1.8828-0.82812 3.3281 0 1.4492 0.27344 2.5586 0.82812 3.3281 0.5625 0.77344 1.3672 1.1562 2.4219 1.1562zm-3.25-9.9219c0.67578-0.88281 1.4219-1.5391 2.2344-1.9688 0.82031-0.42578 1.7656-0.64062 2.8281-0.64062 1.8945 0 3.4453 0.75 4.6562 2.25 1.207 1.5 1.8125 3.4336 1.8125 5.7969 0 2.3555-0.60547 4.2812-1.8125 5.7812-1.2109 1.5-2.7617 2.25-4.6562 2.25-1.0625 0-2.0078-0.21094-2.8281-0.625-0.8125-0.42578-1.5586-1.0859-2.2344-1.9844v2.2188h-4.8906v-21.281h4.8906z"/>
  </symbol>
  <symbol id="f" overflow="visible">
   <path d="m0.34375-15.312h4.8906l4.125 10.391 3.5-10.391h4.8906l-6.4375 16.766c-0.64844 1.6953-1.4023 2.8828-2.2656 3.5625-0.86719 0.6875-2 1.0312-3.4062 1.0312h-2.8438v-3.2188h1.5312c0.83203 0 1.4375-0.13672 1.8125-0.40625 0.38281-0.26172 0.67969-0.73047 0.89062-1.4062l0.14062-0.42188z"/>
  </symbol>
  <symbol id="j" overflow="visible">
   <path d="m20.922-1.5156c-1.3125 0.63672-2.6797 1.1172-4.0938 1.4375-1.4062 0.3125-2.8672 0.46875-4.375 0.46875-3.3984 0-6.0898-0.94531-8.0781-2.8438-1.9922-1.9062-2.9844-4.4844-2.9844-7.7344 0-3.2891 1.0078-5.8789 3.0312-7.7656 2.0312-1.8828 4.8047-2.8281 8.3281-2.8281 1.3516 0 2.6484 0.13281 3.8906 0.39062 1.25 0.25 2.4258 0.625 3.5312 1.125v4.2188c-1.1484-0.64453-2.2812-1.125-3.4062-1.4375-1.125-0.32031-2.25-0.48438-3.375-0.48438-2.1055 0-3.7266 0.58984-4.8594 1.7656-1.125 1.168-1.6875 2.8398-1.6875 5.0156 0 2.1562 0.54688 3.8242 1.6406 5 1.0938 1.1797 2.6445 1.7656 4.6562 1.7656 0.53906 0 1.0469-0.03125 1.5156-0.09375 0.47656-0.070313 0.89844-0.17969 1.2656-0.32812v-3.9688h-3.2031v-3.5156h8.2031z"/>
  </symbol>
  <symbol id="u" overflow="visible">
   <path d="m12.766-2.5938c-0.66797 0.88672-1.4062 1.543-2.2188 1.9688-0.8125 0.41797-1.7578 0.625-2.8281 0.625-1.8672 0-3.4062-0.73438-4.625-2.2031-1.2188-1.4766-1.8281-3.3516-1.8281-5.625 0-2.2891 0.60938-4.1641 1.8281-5.625 1.2188-1.4688 2.7578-2.2031 4.625-2.2031 1.0703 0 2.0156 0.21484 2.8281 0.64062 0.8125 0.41797 1.5508 1.0742 2.2188 1.9688v-2.2656h4.9219v13.766c0 2.457-0.77734 4.3359-2.3281 5.6406-1.5547 1.3008-3.8086 1.9531-6.7656 1.9531-0.94922 0-1.8711-0.074219-2.7656-0.21875-0.89844-0.14844-1.7969-0.37109-2.7031-0.67188v-3.8125c0.86328 0.48828 1.7031 0.85156 2.5156 1.0938 0.82031 0.23828 1.6484 0.35938 2.4844 0.35938 1.6016 0 2.7734-0.35156 3.5156-1.0469 0.75-0.69922 1.125-1.7969 1.125-3.2969zm-3.2188-9.5312c-1.0117 0-1.8047 0.375-2.375 1.125-0.5625 0.74219-0.84375 1.7969-0.84375 3.1719 0 1.3984 0.26953 2.4609 0.8125 3.1875 0.55078 0.71875 1.3516 1.0781 2.4062 1.0781 1.0195 0 1.8125-0.36719 2.375-1.1094 0.5625-0.75 0.84375-1.8008 0.84375-3.1562 0-1.375-0.28125-2.4297-0.84375-3.1719-0.5625-0.75-1.3555-1.125-2.375-1.125z"/>
  </symbol>
  <symbol id="i" overflow="visible">
   <path d="m14.312-14.828v3.7188c-1.043-0.4375-2.0547-0.76562-3.0312-0.98438-0.98047-0.21875-1.9023-0.32812-2.7656-0.32812-0.92969 0-1.6211 0.11719-2.0781 0.34375-0.44922 0.23047-0.67188 0.58984-0.67188 1.0781 0 0.38672 0.17188 0.68359 0.51562 0.89062 0.34375 0.21094 0.95703 0.36719 1.8438 0.46875l0.85938 0.125c2.5078 0.32422 4.1953 0.85156 5.0625 1.5781 0.86328 0.73047 1.2969 1.8711 1.2969 3.4219 0 1.6367-0.60547 2.8672-1.8125 3.6875-1.1992 0.8125-2.9922 1.2188-5.375 1.2188-1.0234 0-2.0742-0.078125-3.1562-0.23438-1.0742-0.15625-2.1797-0.39453-3.3125-0.71875v-3.7188c0.96875 0.48047 1.9609 0.83984 2.9844 1.0781 1.0312 0.23047 2.0781 0.34375 3.1406 0.34375 0.95703 0 1.6758-0.12891 2.1562-0.39062 0.47656-0.26953 0.71875-0.66406 0.71875-1.1875 0-0.4375-0.16797-0.75781-0.5-0.96875-0.33594-0.21875-0.99609-0.38281-1.9844-0.5l-0.85938-0.10938c-2.1797-0.26953-3.7031-0.77344-4.5781-1.5156-0.875-0.73828-1.3125-1.8594-1.3125-3.3594 0-1.625 0.55078-2.8281 1.6562-3.6094 1.1133-0.78906 2.8203-1.1875 5.125-1.1875 0.89453 0 1.8359 0.074219 2.8281 0.21875 1 0.13672 2.082 0.35156 3.25 0.64062z"/>
  </symbol>
  <symbol id="t" overflow="visible">
   <path d="m14.953-3.7188h-8.2188l-1.3125 3.7188h-5.2812l7.5625-20.406h6.2656l7.5625 20.406h-5.2812zm-6.9062-3.7812h5.5781l-2.7812-8.125z"/>
  </symbol>
  <symbol id="a" overflow="visible">
   <path d="m9.6406-12.188c-1.0859 0-1.9141 0.39062-2.4844 1.1719-0.57422 0.78125-0.85938 1.9062-0.85938 3.375s0.28516 2.5938 0.85938 3.375c0.57031 0.77344 1.3984 1.1562 2.4844 1.1562 1.0625 0 1.875-0.38281 2.4375-1.1562 0.57031-0.78125 0.85938-1.9062 0.85938-3.375s-0.28906-2.5938-0.85938-3.375c-0.5625-0.78125-1.375-1.1719-2.4375-1.1719zm0-3.5c2.6328 0 4.6914 0.71484 6.1719 2.1406 1.4766 1.418 2.2188 3.3867 2.2188 5.9062 0 2.5117-0.74219 4.4805-2.2188 5.9062-1.4805 1.418-3.5391 2.125-6.1719 2.125-2.6484 0-4.7148-0.70703-6.2031-2.125-1.4922-1.4258-2.2344-3.3945-2.2344-5.9062 0-2.5195 0.74219-4.4883 2.2344-5.9062 1.4883-1.4258 3.5547-2.1406 6.2031-2.1406z"/>
  </symbol>
  <symbol id="h" overflow="visible">
   <path d="m2.5781-20.406h8.7344c2.5938 0 4.582 0.57812 5.9688 1.7344 1.3945 1.1484 2.0938 2.7891 2.0938 4.9219 0 2.1367-0.69922 3.7812-2.0938 4.9375-1.3867 1.1562-3.375 1.7344-5.9688 1.7344h-3.4844v7.0781h-5.25zm5.25 3.8125v5.7031h2.9219c1.0195 0 1.8047-0.25 2.3594-0.75 0.5625-0.5 0.84375-1.2031 0.84375-2.1094 0-0.91406-0.28125-1.6172-0.84375-2.1094-0.55469-0.48828-1.3398-0.73438-2.3594-0.73438z"/>
  </symbol>
  <symbol id="g" overflow="visible">
   <path d="m2.3594-15.312h4.8906v15.031c0 2.0508-0.49609 3.6172-1.4844 4.7031-0.98047 1.082-2.4062 1.625-4.2812 1.625h-2.4219v-3.2188h0.85938c0.92578 0 1.5625-0.21094 1.9062-0.625 0.35156-0.41797 0.53125-1.2461 0.53125-2.4844zm0-5.9688h4.8906v4h-4.8906z"/>
  </symbol>
  <symbol id="s" overflow="visible">
   <path d="m12.422-21.281v3.2188h-2.7031c-0.6875 0-1.1719 0.125-1.4531 0.375-0.27344 0.25-0.40625 0.6875-0.40625 1.3125v1.0625h4.1875v3.5h-4.1875v11.812h-4.8906v-11.812h-2.4375v-3.5h2.4375v-1.0625c0-1.6641 0.46094-2.8984 1.3906-3.7031 0.92578-0.80078 2.3672-1.2031 4.3281-1.2031z"/>
  </symbol>
  <symbol id="r" overflow="visible">
   <path d="m16.547-12.766c0.61328-0.94531 1.3477-1.6719 2.2031-2.1719 0.85156-0.5 1.7891-0.75 2.8125-0.75 1.7578 0 3.0977 0.54688 4.0156 1.6406 0.92578 1.0859 1.3906 2.6562 1.3906 4.7188v9.3281h-4.9219v-7.9844-0.35938c0.007813-0.13281 0.015625-0.32031 0.015625-0.5625 0-1.082-0.16406-1.8633-0.48438-2.3438-0.3125-0.48828-0.82422-0.73438-1.5312-0.73438-0.92969 0-1.6484 0.38672-2.1562 1.1562-0.51172 0.76172-0.77344 1.8672-0.78125 3.3125v7.5156h-4.9219v-7.9844c0-1.6953-0.14844-2.7852-0.4375-3.2656-0.29297-0.48828-0.8125-0.73438-1.5625-0.73438-0.9375 0-1.6641 0.38672-2.1719 1.1562-0.51172 0.76172-0.76562 1.8594-0.76562 3.2969v7.5312h-4.9219v-15.312h4.9219v2.2344c0.60156-0.86328 1.2891-1.5156 2.0625-1.9531 0.78125-0.4375 1.6406-0.65625 2.5781-0.65625 1.0625 0 2 0.25781 2.8125 0.76562 0.8125 0.51172 1.4258 1.2305 1.8438 2.1562z"/>
  </symbol>
  <symbol id="q" overflow="visible">
   <path d="m17.75-9.3281v9.3281h-4.9219v-7.1094c0-1.3438-0.03125-2.2656-0.09375-2.7656s-0.16797-0.86719-0.3125-1.1094c-0.1875-0.3125-0.44922-0.55469-0.78125-0.73438-0.32422-0.17578-0.69531-0.26562-1.1094-0.26562-1.0234 0-1.8242 0.39844-2.4062 1.1875-0.58594 0.78125-0.875 1.8711-0.875 3.2656v7.5312h-4.8906v-21.281h4.8906v8.2031c0.73828-0.88281 1.5195-1.5391 2.3438-1.9688 0.83203-0.42578 1.75-0.64062 2.75-0.64062 1.7695 0 3.1133 0.54688 4.0312 1.6406 0.91406 1.0859 1.375 2.6562 1.375 4.7188z"/>
  </symbol>
  <symbol id="p" overflow="visible">
   <path d="m2.5781-20.406h5.875l7.4219 14v-14h4.9844v20.406h-5.875l-7.4219-14v14h-4.9844z"/>
  </symbol>
  <symbol id="o" overflow="visible">
   <path d="m2.1875-5.9688v-9.3438h4.9219v1.5312c0 0.83594-0.007813 1.875-0.015625 3.125-0.011719 1.25-0.015625 2.0859-0.015625 2.5 0 1.2422 0.03125 2.1328 0.09375 2.6719 0.070313 0.54297 0.17969 0.93359 0.32812 1.1719 0.20703 0.32422 0.47266 0.57422 0.79688 0.75 0.32031 0.16797 0.69141 0.25 1.1094 0.25 1.0195 0 1.8203-0.39062 2.4062-1.1719 0.58203-0.78125 0.875-1.8672 0.875-3.2656v-7.5625h4.8906v15.312h-4.8906v-2.2188c-0.74219 0.89844-1.5234 1.5586-2.3438 1.9844-0.82422 0.41406-1.7344 0.625-2.7344 0.625-1.7617 0-3.1055-0.53906-4.0312-1.625-0.92969-1.082-1.3906-2.6602-1.3906-4.7344z"/>
  </symbol>
  <symbol id="n" overflow="visible">
   <path d="m17.75-9.3281v9.3281h-4.9219v-7.1406c0-1.3203-0.03125-2.2344-0.09375-2.7344s-0.16797-0.86719-0.3125-1.1094c-0.1875-0.3125-0.44922-0.55469-0.78125-0.73438-0.32422-0.17578-0.69531-0.26562-1.1094-0.26562-1.0234 0-1.8242 0.39844-2.4062 1.1875-0.58594 0.78125-0.875 1.8711-0.875 3.2656v7.5312h-4.8906v-15.312h4.8906v2.2344c0.73828-0.88281 1.5195-1.5391 2.3438-1.9688 0.83203-0.42578 1.75-0.64062 2.75-0.64062 1.7695 0 3.1133 0.54688 4.0312 1.6406 0.91406 1.0859 1.375 2.6562 1.375 4.7188z"/>
  </symbol>
  <symbol id="m" overflow="visible">
   <path d="m14.719-14.828v3.9844c-0.65625-0.45703-1.3242-0.79688-2-1.0156-0.66797-0.21875-1.3594-0.32812-2.0781-0.32812-1.3672 0-2.4336 0.40234-3.2031 1.2031-0.76172 0.79297-1.1406 1.9062-1.1406 3.3438 0 1.4297 0.37891 2.543 1.1406 3.3438 0.76953 0.79297 1.8359 1.1875 3.2031 1.1875 0.75781 0 1.4844-0.10938 2.1719-0.32812 0.6875-0.22656 1.3203-0.56641 1.9062-1.0156v4c-0.76172 0.28125-1.5391 0.48828-2.3281 0.625-0.78125 0.14453-1.5742 0.21875-2.375 0.21875-2.7617 0-4.9219-0.70703-6.4844-2.125-1.5547-1.4141-2.3281-3.3828-2.3281-5.9062 0-2.5312 0.77344-4.5039 2.3281-5.9219 1.5625-1.4141 3.7227-2.125 6.4844-2.125 0.80078 0 1.5938 0.074219 2.375 0.21875 0.78125 0.13672 1.5547 0.35156 2.3281 0.64062z"/>
  </symbol>
 </defs>
 <g>
  <path d="m550.71 327.31c-1.9023-3.3867-4.9883-4.3867-8.4883-4.1758-4.043-3.3945-7.1055-7.8398-11.363-10.953-5.0742-3.7031-10.871-4.4922-16.984-5.1875-7.2422-0.84375-14.117-2.4141-21.262-3.793-6.9609-1.3438-14.016-2.1602-20.996-3.4336-6.2266-1.1367-13.008-2.5977-18.523-5.8281-1.0547-0.62891-2.8281-2.1836-4.2383-3.9531 0.25781-0.15625 0.52734-0.32031 0.76562-0.50391 2.5273-1.9805 3.5898-5.1445 2.7539-8.3594-0.44141-1.6289-2.2773-4.168-4.2109-2.5352-3.7734 3.1914-3.5664 7.2734-1.6016 10.84-4.7148 1.6172-12.266 0.58203-15.082 0.125-1.5625-0.25781-3.4727-0.67188-5.4766-0.99609 0.53906-1.7734 0.93359-3.6133 1.3008-5.4531 3.8516-0.69531 6.8945-2.3984 7.6445-5.9648 0.50781-2.4414-1.1523-5.0352-3.4102-5.7305-2.457-0.75-3.8906 2.7031-4.4688 4.3438-0.59375 1.7266-0.95703 3.5117-1.2539 5.3203-1.6016 0.16797-3.0586 0.17969-3.8242 0.19141-5.1367 0.027343-10.32-0.59375-15.445-1.2148 0.30078-1.2266 0.5-2.25 0.58203-2.8281 0.12891-0.84375 0.25391-1.7031 0.37109-2.5547 1.6523-0.23047 3.2188-0.67578 4.6133-1.4766 3.3672-1.9414 8.5859-9.5938 3.7539-12.566-6.4961-3.9805-9.3477 8.4883-9.9414 11.945-0.015626 0.11328-0.027344 0.21875-0.050782 0.33594-4.832 0.44922-10.176-1.1211-15.254-1.6055 0.42188-3.0703 0.51953-6.3281 0.69531-9.2227 2.7031-0.71875 5-2.0156 6.4922-4.3125 2.793-4.2891-3.1289-9.7383-6.25-4.8945-1.2656 1.9727-2.0625 4.6758-2.4648 7.2969-3.1367 0.5-6.4805 0.29297-9.6133 0.21875-1.5508-0.039062-3.1367-0.11328-4.7148-0.14453 1.2031-2.957 2.0508-6.1875 2.7539-8.9805 4.7383-0.89453 8.8984-3.2422 10.031-8.2695 0.54687-2.4141-0.89453-4.082-3.0859-4.6875-3.3828-0.93359-5.4805 2.0039-6.5898 4.6758-0.89062 2.1602-1.5664 4.4258-2.1992 6.7148-5.3086 0.86328-10.922-0.61719-16.199-1.5391 1.2812-2.9609 2.2383-6.2656 3.4961-9.207 3.6641-0.19531 7.1523-1.1367 9.9922-3.4961 5.7969-4.8008 1.1914-7.7852-4.4922-5.6211-3.4102 1.3047-5.4023 4.043-6.9062 7.2734h-0.13281c-5.4805 0.14063-10.977-1.1914-16.348-2.1172-0.29297-0.050781-0.58984-0.09375-0.87891-0.14062 0.75-1.8867 1.3555-3.8203 2.0625-5.7188 0.65625-0.011719 1.3008-0.023438 1.9492-0.0625 4.2656-0.20703 9.4141-0.95312 12.523-4.1562 1.4219-1.4688 0.82812-3.8984-0.86719-4.8555-6.7656-3.793-12.309 1.5664-14.887 7.4102-1.7812-0.0625-3.4844-0.19531-4.9961-0.32031-5.7773-0.47656-11.641-2.0156-17.113-3.875-2.9219-1.0039-5.4922-2.4414-7.8906-4.0977 5.0977-0.64453 9.3398-1.4844 11.324-1.9609 6.7773-1.6445 12.953-5.0742 19.344-7.8516 1.4336 1.1328 3.0078 2 4.1992 2.4648 1.8438 0.71875 3.9297 0.58984 5.2539-0.97266 0.87891-1.0312 1.4961-3.8984 0.074219-4.793-2.1211-1.332-5.1523 0.011718-7.2539 0.75781-0.67578 0.24219-1.332 0.5-2 0.76172 0-0.054688 0.011718-0.09375 0-0.12891-2.625-14.656-8.1328-29.07-12.527-43.281-3.4336-11.133-12.488-18.047-24.605-16.09-14.004 2.2695-25.375 12.965-36.25 21.352-5.1055 3.9375-10.07 8.1992-14.016 13.324-3.7617 4.8789-3.4727 13.66-4.4062 19.477-0.0625 0.39844 0.50391 0.57813 0.60547 0.16797 1.4492-5.957 1.4336-12.129 4.1367-17.754 2.4961-5.1875 8.8828-9.5664 13.25-13.055 10.09-8.0547 21.207-18.055 33.84-21.504 7.207-1.9648 15.602-0.57031 21.012 4.7617 3.8594 3.8008 5.2852 9.6602 6.6992 14.684 2.9727 10.566 6.9648 20.895 9.5703 31.562-0.16797 0.011718-0.33203 0.085937-0.44922 0.25781-1.668 2.375-0.46094 4.8672 1.5391 6.8594-2.625 1.082-5.2031 2.2695-7.7852 3.4727-7.2539 3.3828-14.234 4.7266-22.148 5.4648-0.62891 0.0625-1.2695 0.11719-1.9219 0.18359-4.2188-3.293-8.0703-7.0742-12.633-9.9844-7.2109-10.656-15.73-33.074-31.793-25.453-6.8281 3.2305-9.0156 12.195-11.859 18.445-0.97266 2.1523-2.0508 4.457-3.2539 6.7656-0.039062 0.011719-0.089844 0.011719-0.12891 0.035157-6.25 2.8945-13.539-4.4297-18.508 2.0664-1.3711 1.7969-1.7148 4.7148-1.2812 7.4688-0.28516 3.7539-0.54688 7.4648-0.33203 11.289 0.011719 0.13281 0.023438 0.28516 0.027344 0.42578-4.3359 9.9297-9.6602 19.395-12.398 29.949-1.4375 5.5547-1.0469 11.434-1.8203 17.086-0.5 3.6914-0.83594 7.3203 0.51953 10.801-1.8633 1.2031-2.8789 3.293-3.7031 5.5273-0.70703 1.8945-1.0547 3.9102-1.4453 5.8789-0.11719 0.61719-0.27344 1.2383-0.46094 1.8594-1.0234 3.5273-2.8281 7.0781-3.8906 10.523-0.6875 2.2227-2.3477 6.4023-0.64453 8.6562-0.12891 0.13281-0.21094 0.32031-0.16406 0.55859 0.69922 3.3711-0.21875 7.0117 1.3047 9.1992-3.7422 1.6641-5.1406 8.4727-4.8164 11.859 0.015626 0.26953 0.16797 0.51953 0.375 0.66797-3.3672 3.3555-3.6133 12.285-3.9297 15.691-0.67578 7.1641-1.8438 17.473 1.4727 24.219 3.9414 8.0078 20.367 4.9961 27.164 5.2539 6.1875 0.24219 14.746 3.1406 18.484-1.7578-0.13281 23.453 49.055-6.7656 58.359 0.30078 0.47656 0.36328 0.92969-0.0625 0.96484-0.53906 0.56641 0.99609 1.3828 1.9492 2.457 2.8438 3.6641 8.9805 12.566 13.719 22.883 11.91 10.461-1.8203 20.738-2.9844 31.32-3.6719 4.2109-0.26953 8.3789-0.70703 12.527-1.2031 34.133-1.8477 68.156-3.4648 102.18-6.875 13.914-1.3945 29.656-2.8945 42.621-8.4062 7.0547-2.9961 14-7.2852 20.457-11.395 3.6016-2.2969 6.7773-5.0078 8.6758-8.5625 0.78906-1.4336 1.3438-3.0117 1.6523-4.7695 3.6992-7.5586 1.7578-19.727-2.1406-26.684zm-122.66-48.145c0.16797-0.86719 2.5859-9.6445 4.8711-3.9688 1.418 3.5234-1.7969 4.9961-5.1797 5.6094 0.10156-0.54688 0.21484-1.0977 0.30859-1.6406zm-17.82-14.52c1.832-3.4219 6.3906-2.7422 5.1445 1.4688-0.88672 3-3.125 4.9727-5.9453 6.0195-0.52734 0.19531-1.0547 0.34766-1.6016 0.46484 0.45312-2.7578 1.082-5.4961 2.4023-7.9531zm-18.254-8.0898c0.62109-2.625 5.1914-4.207 4.3945-0.35156-0.46094 2.1992-2.8906 2.9727-4.8672 3.4492 0.11328-1.1562 0.26562-2.1992 0.47266-3.0977zm-13.516-8.8984c0.30859-1.0469 0.62891-2.0898 0.94531-3.1484 0.28125-0.92578 3.8008-9.0547 6.2539-3.125 1.6406 3.9766-4.8711 6.875-7.5977 7.7383 0.14063-0.51562 0.26953-1.0117 0.39844-1.4648zm-6.2891-16.891c2.0117-0.20703 1.2031 1.8828 0.34766 2.7266-1.1133 1.082-2.6211 1.8359-4.0312 2.4375-1.457 0.60937-3.0117 0.88672-4.5742 1.043 1.7227-3.2852 4.1055-5.7695 8.2578-6.207zm-24.465-4.9961c1.1133-2.2188 2.7773-3.8516 5.125-4.7266 1.9375-0.72656 10.457 0.066406 5.3047 3.793-2.9336 2.1172-7.1445 2.6602-11.219 2.6602 0.24219-0.57812 0.5-1.1602 0.78906-1.7266zm1.5508-17.887c1.2422-0.46875 5.6602-2.3125 5.1875 1.0117-0.42188 2.9844-3.8398 1.8086-5.4922 1.0352-0.55469-0.25781-1.2305-0.66797-1.9258-1.1602 0.74219-0.30859 1.4766-0.60547 2.2305-0.88672zm-5.6875-5.4648c0.28516 1.2773 0.56641 2.5547 0.81641 3.8398-0.92578-1.2266-1.3906-2.5625-0.81641-3.8398zm103.29 81.898c0.37891-0.875 0.72266-1.7578 1.1328-2.6367 0.50781-1.5586 1.4219-1.2891 2.7422 0.80078 0.050781 1.0352-0.027344 2.0547-0.24609 3.0742-0.28125 1.4844-1.2109 2.5156-2.5078 3.2422-1.0586-1.6055-1.6797-3.2578-1.1211-4.4805zm-17.605 6.7109c2.9844 0.48828 5.8906 0.95312 8.9023 1.0586 2.8164 0.09375 6.3906-0.14453 9.2344-1.3398 1.4609 2.1094 3.5 3.9375 5.582 5.1758 10.824 6.3789 25.508 6.6211 37.598 8.6875 6.0586 1.0312 11.922 2.7773 18.031 3.5352 8.5 1.0547 16.734 1.0352 23.48 6.957 3.0312 2.6602 5.6406 5.6523 8.7344 8.1758-2.8555 0.41016-5.9141 1.4961-8.793 2.6602-0.35938 0.14062-0.71875 0.29297-1.0742 0.4375-22.496 5.3633-46.195 5.4414-68.293 12.66-8.1797 2.6641-16.715 4.457-24.707 7.6562-3.3672 1.3438-6.4844 3.1094-9.1719 5.5547-1.1914 1.082-2.1211 2.4414-2.918 3.8398-0.0625 0.11328-0.12891 0.29297-0.20313 0.50781-0.089843-0.25391-0.29687-0.46875-0.54687-0.53906-5.0391-1.2383-10.129-0.042969-15.203-1.3828-4.8945-1.2812-9.7148-4.4023-14.074-6.9062-7.8867-4.5469-15.16-7.582-24.367-7.8906-9.0781-0.32031-18.938 0.69531-27.625 3.3945-6.2656 1.9492-11.988 3.6445-18.227 0.47656-4.8438-2.4648-7.7383-7.4805-9.6992-12.422 8.3984 2.7539 17.266 3.9297 26.207 4.6719 14.156 1.1523 27.781 0.5 41.699-2.3906 11.016-2.2891 21.414-6.1211 31.922-9.9922 6.9844-2.5742 14.727-5.0273 20.664-9.6484 2.2969-1.7812 4.3555-4.0273 4.3125-6.707-0.023437-0.79687-0.21875-1.6289-0.64453-2.4961-0.042969-0.089844-0.10547-0.16797-0.15234-0.25781 0.085937-0.17969 0.16797-0.34766 0.24219-0.52734 0.24609-0.65625-0.67578-1.1484-1.1367-0.76562-3.5-4.2109-11.188-5.4922-16.387-7.5391 1.1875-1.6289 2.0664-3.4102 2.7539-5.293 1.4688 0.21484 2.8281 0.48438 3.8594 0.64844zm-101.53 60.602c-8.043-4.9375-14.508-12.691-16.406-22.004 1.1133 0.46094 2.2344 0.88672 3.3594 1.2773 3.125 9.6875 10.629 17.219 21.516 15.883 4.168-0.51953 8.1641-1.8633 12.23-2.9844-7.5781 2.4766-14.844 6.2539-21.941 9.6719-8.6445 4.1484-18.047 6.4336-26.105-0.11719-4.7383-3.8594-8.3398-8.4609-14.578-9.832-2.4648-0.53906-4.9062-0.11328-7.3242 0.4375-5.0625 1.1523-9.1602 2.3984-14.297 0.54687-7.9258-2.832-13.988-9.168-21.375-13.004-5.75-2.9961-12.059-4.418-18.484-3.6133-3.0352 0.375-6.0312 0.91406-9.0898 1.0234-1.3945 0.0625-2.3477-0.24609-3.0234-0.76562-0.039063-0.050782-0.089844-0.085938-0.15234-0.10156-1.9883-1.7148-1.3594-5.5547-1.9727-8.4492 2.7422 1.293 7.1055-1.1406 9.2734-2.2773 6.1875-3.2422 11.602-6.6797 18.543-8.2695 8.4688-1.9219 18.117-0.050781 26.527 1.3203 6.793 1.1133 13.758 2.4766 20.215 4.9492 6.8555 2.6133 12.98 6.9961 19.281 10.672 2.1797 1.2773 4.418 2.3789 6.6992 3.3555 0.375 9.918 8.3281 18.48 16.426 23.426 0.74219 0.44531 1.4023-0.69531 0.67969-1.1445zm92.148-56.793c-1.4102-0.64844-2.7617-1.418-4.082-2.25 0.36328-0.85156 1.0938-1.5469 2.1797-2.0547 1.5117-0.61719 3.6641-0.59766 5.7773-0.37109-0.52734 0.98438-1.1758 1.8945-1.7812 2.8633-0.37891 0.60937-0.79687 1.2148-1.2148 1.8086-0.066407-0.042969-0.15625-0.085937-0.22266-0.11719-0.26953-0.14844-0.50391-0.058594-0.65625 0.12109zm0.015626 1.125c-0.17969 0.23047-0.33984 0.46094-0.52734 0.6875-2.7031 1.2305-3.9922 0.50391-3.8516-2.1602-0.015625-0.25781-0.015625-0.5 0-0.75 1.4062 0.89453 2.8672 1.6836 4.3789 2.2227zm-13.898-13.832c0.53125 0.074219 1.0352 0.12891 1.5195 0.15625 3.7539 0.24219 11.582 1.7031 17.949 1.0625-0.24609 1.6133-0.50781 3.2148-0.89453 4.7773-0.015625 0.074219-0.050781 0.14062-0.066407 0.20703-3.0352-0.375-6.1133-0.375-8.3398 0.92969-0.89453 0.52734-1.5078 1.3711-1.8594 2.3594-1.4336-0.95703-2.8516-1.9531-4.2734-2.918-1.6914-1.1523-3.4102-2.2305-5.1641-3.2422 0.43359-1.1055 0.82031-2.2539 1.1289-3.332zm-15.703-8.7695c2.7031 0.12891 5.4258 0.64453 8.0859 1.0078 2.2109 0.30078 4.7305 0.57812 7.1953 0.47656-0.25781 1.6758-0.50781 3.3359-0.86328 4.9766-0.86719-0.10156-1.7266-0.19531-2.582-0.30078-1.9336-0.20703-3.5391 0.67578-4.6641 2.0508-1.332-0.62109-2.6836-1.2422-4.0586-1.8203-1.5078-0.63281-2.9844-1.3008-4.457-1.9727 0.60938-1.3203 1.043-2.8242 1.3438-4.418zm9.0508 9.1211c1.1914-0.86328 3.0078-0.80469 4.8438-0.58203-0.11328 0.35937-0.23047 0.72656-0.35156 1.0938-0.19141 0.51953-0.39844 1.0312-0.63672 1.5195-1.2734-0.70312-2.5586-1.375-3.8555-2.0312zm3.3086 3.1211c-0.17969 0.33984-0.36328 0.6875-0.55859 1.0234-1.2773 2.2773-4.1367 1.9141-4.1055-0.82812 0.003906-0.99609 0.19531-1.7539 0.51562-2.3281 1.4062 0.67969 2.7773 1.3867 4.1484 2.1328zm-13.816-23.047c-0.035156 0.48828-0.0625 0.96875-0.0625 1.4219-0.035156 2.4258-0.20703 4.793-0.55859 7.1836-2.9336-0.027344-5.7383 0.50781-8.2422 2.2461-3.5117-1.8086-6.9727-3.707-10.395-5.6992 1.7578-1.2812 3.1367-3.1875 4.25-5.375 4.6602 0.24609 10.227 0.875 15.008 0.22266zm-6.5781 12.004c1.793-0.71094 4.0898-1.0547 5.5625-1.1758-0.24609 0.96484-0.64453 2.168-1.1758 3.3164-1.4766-0.70312-2.9297-1.4102-4.3867-2.1406zm3.7422 3.4023c-1.3906 2.4297-3.3828 3.9375-5.6406 1.0117-1.1992-1.5508-0.81641-2.7031 0.28516-3.5508 1.7695 0.875 3.5508 1.7227 5.3555 2.5391zm-22.895-14.121c0.4375-0.55859 1.1406-0.88672 2.168-0.98438 1.2031-0.30078 2.418-0.47656 3.6641-0.53125 0.74609-0.0625 1.5508-0.078125 2.4062-0.078125-0.94531 1.6914-2.1523 3.2148-3.7422 4.2266-0.015625 0.011719-0.039063 0.023438-0.0625 0.035156-1.4805-0.87109-2.9531-1.7617-4.4336-2.668zm2.5273 3.3906c-0.875 0.17969-1.7969 0.19141-2.6484 0.074219-0.23047-0.70703-0.34766-1.332-0.35156-1.8711 1 0.60547 2 1.1992 3 1.7969zm0.46484-16.031c2.6484 0.4375 5.9023 0.66797 9.0781 0.375-0.58203 2.1445-1.1641 4.2734-1.9023 6.3398-0.26953 0.75-0.56641 1.5195-0.89453 2.2695-2.9922 0-5.9648 0.20703-8.8047 1.0859-1.0547 0.32422-1.8711 0.78516-2.4883 1.3086-1.5-0.92578-2.9922-1.8828-4.4727-2.8398-1.7266-1.1016-3.4141-2.2461-5.0977-3.4102 1.3438-0.44922 2.5156-1.0195 3.3086-1.6055 1.6641-1.25 2.8906-2.9688 3.8906-4.918 2.5586 0.44922 5.0625 1.0312 7.3828 1.3945zm-21.938-0.14453c1.0742-0.59375 2.1016-1.0195 2.1016-1.0195 3.1641-1.1523 6.6992-1.0703 10.23-0.58203-0.98047 1.7266-2.1523 3.2422-3.7109 4.3945-0.90625 0.66797-1.9883 1.0195-3.1133 1.1875-1.8633-1.3047-3.6992-2.6328-5.5078-3.9805zm2.9258 4.1133c-0.30859-0.011719-0.60547-0.011719-0.90625-0.027344-1.2539-0.050781-2.5156-0.35938-3.6641-0.85547-1.3984-0.60547-0.88672-1.4961 0.15625-2.2969 1.4648 1.0742 2.9375 2.1406 4.4141 3.1797zm2.3633-17.578c3.4648 0.60547 7.4258 1.3203 11.316 1.3828-1.1641 2.9062-2.1094 6.043-3.4219 8.8242-4.3008-0.60547-8.6367-0.72656-12.773 0.77734-0.52734 0.19141-1.3711 0.57812-2.2305 1.1016-2.5195-1.9102-5.0195-3.8594-7.4922-5.8281 3.8516-0.81641 6.6133-3.0117 8.6445-7.3242 2.0078 0.34375 4 0.72656 5.957 1.0664zm-22.777-0.39062c2.0312-0.93359 4.3398-1.2656 6.5195-1.4219 2.8242-0.20703 5.6719 0.050781 8.4961 0.46094-0.73438 1.5664-1.6523 3.0469-2.9336 4.3008-1.2812 1.2539-3.375 1.7812-5.6016 1.9414-2.168-1.7578-4.3281-3.5156-6.4805-5.2812zm3.7227 5.3086c-1.7969-0.078124-3.5117-0.32031-4.793-0.52734-3.2695-0.55859-2.8164-2.2891-0.54688-3.8594 1.7578 1.4688 3.543 2.9297 5.3398 4.3867zm13.934-13.383c-0.66016 1.7852-1.2148 3.6406-1.9102 5.4258-5.8672-0.87891-11.973-1.1758-17.203 1.4375-0.89453-0.73438-1.7812-1.4727-2.6641-2.207-5.0352-4.1836-10.219-8.707-14.234-13.949 1.2422-0.09375 2.4766-0.20312 3.6719-0.33203 9.0273 6.4883 21.113 9.4961 32.34 9.625zm-34.77-11.516c-0.88672 0.089844-1.793 0.16797-2.6953 0.24609-1.4961-2.1523-2.9609-4.3164-4.4297-6.4961 2.4492 1.9844 4.7227 4.2227 7.125 6.25zm-10.793-8.8242c2.0234 3.1797 4.1484 6.25 6.4102 9.207-5.3828 0.375-10.887 0.25781-15.625-1.7422-3.4648-1.4688-6.25-5.9375-2.3398-8.6797 3.3672-2.3672 7.8516-0.86328 11.027 0.88672 0.18359 0.097657 0.35156 0.22266 0.52734 0.32812zm-45.125-0.59375c-0.42578 1.7461-1.5195 3.3281-2.8555 4.7266 1.0273-1.5 1.9727-3.0859 2.8555-4.7266zm-14.777-0.33203c2.6719-0.77734 5.8789 1.2031 8.5195 1.4727 1.7539 0.17969 3.1875 0.074219 4.6367-0.54688-1.5391 2.7773-3.3047 5.4805-5.3633 7.8125-1.5078 1.25-3.0977 2.3789-4.7383 3.4336-2.3672 1.5195-4.5859 3-6.043-0.24219-1.8281-4.082-2.3125-10.367 2.9883-11.93zm-19.281 70.707c0.32031-5.0117 0.88672-10.07 1.3047-15.086 0.94531-11.367 7.2227-21.867 12.027-32.184 0.35938 5.2266 0.69922 10.336-0.59375 15.539-1.4336 5.8398-3.7109 11.48-4.6484 17.438-0.65625 4.1992-1.0117 8.418-2.0508 12.555-0.64453 2.5977-1.7812 4.9961-3.5 7.0664-2.7969 3.3594-2.6289-3.8672-2.5391-5.3281zm-6.1719 24.754c0.87891-2.4922 1.7695-4.8438 2.3594-7.3984 0.050781-0.19141 0.089843-0.375 0.12891-0.57031 0.58984-2.7656 1.4727-6.3633 3.8906-8.1211 0.17969 0.035156 0.35938 0.011719 0.50391-0.078125 0.35938-0.21875 0.6875-0.46094 1.0117-0.70703 0.027344-0.011718 0.0625-0.023437 0.089844-0.035156 0.19141-0.0625 0.30859-0.17188 0.35937-0.32031 7.6445-6.2773 6.457-19.305 8.8125-28.023 2.168-8.0195 4.4844-14.812 4.0312-23.199-0.11328-2.1328-0.29297-4.2383-0.4375-6.3633 0.10156-0.21875 0.19531-0.44922 0.29688-0.66797 0.17969-0.44922-0.078126-0.84375-0.41016-1.0078-0.089843-1.3203-0.15625-2.6562-0.19141-4-0.011719-0.97266 0.015625-1.9531 0.078125-2.918 0.44922 1.0352 1.0117 1.9609 1.6797 2.6367 2.7891 2.8047 8.3906-2.2461 10.617-3.9922 3.2539-2.5156 9.4414-6.9844 8.7539-11.805-0.039062-0.25391-0.21094-0.38672-0.39844-0.42188 2.5586-5.0781 4.6094-10.445 6.625-14.891 2.1016-4.6211 5.2344-7.9648 10.059-9.7109 6.3281-2.2773 11.363 2.4414 14.867 7.043 3.9219 5.1562 6.7031 11.324 10.504 16.598 0.0625 0.10156 0.12891 0.19531 0.19141 0.30859-4.2773-1.668-12.141-1.8828-13.293 3.5234-2.1016 9.8125 10.773 11.414 23.121 10.719 3.9766 4.9844 8.3789 9.6328 13.371 13.949 1.1758 1.0117 2.3594 2.0156 3.543 3.0234-0.58984 0.375-1.1641 0.78516-1.7305 1.2539-5.0742 4.2617 4.6016 5.9023 7.0625 6.0312 1.2656 0.066407 2.4297 0.066407 3.5234-0.011719 2.7891 2.2188 5.6094 4.3945 8.4688 6.5234-1.0234 0.88672-1.7305 1.9648-1.3555 3.0781 1.2266 3.6016 5.8906 3.9688 9.9414 3.1016 1.5859 1.0938 3.1758 2.1836 4.7773 3.2305 1.8984 1.2617 3.832 2.4883 5.7617 3.7031-1.4727 2.6484 0.73828 5.9805 5.2734 5.5234 0.96484-0.089844 1.8477-0.33984 2.6641-0.70703 3.5117 2.0391 7.0859 3.9805 10.707 5.8125-3.9609 3.7695 2.5664 9.8281 6.8438 7.332 1.1641-0.66797 2.0625-1.6406 2.7773-2.8047 1.0195 0.4375 2.0273 0.88672 3.0586 1.3047 1.832 0.75781 3.6172 1.5273 5.3828 2.3594-1.5195 2.7344-1.4062 6.5469 1.3945 8.25 2.625 1.6016 4.7383-0.95703 6.2539-4.3164 2.0898 1.1914 4.1602 2.4531 6.2031 3.8203 1.0859 0.73828 2.2188 1.5508 3.3945 2.3633-0.67578 3.9375 1.8203 9 5.0508 6.5742 1.1133-0.83594 2.0625-1.7578 2.8906-2.7422 4.6992 2.0508 13.25 4.543 16.211 8.2617-0.28125 0.46875-0.58203 0.91797-0.90625 1.3438-5.2578 6.8672-17.148 9.3281-24.578 11.816-12.695 4.2617-25.43 7.8906-38.824 9.082-11.766 1.0469-24.473 1.5078-36.172-0.21875-10.977-1.6055-21.234-6.2773-31.293-10.711-17.891-7.9023-38.23-16.621-58.141-15.863-7.7617 0.30078-15.871 2.1562-23.223 4.5234-5.5547 1.7852-11.195 4.4688-14.934 9.0117 0.60938-3.543 2.1602-7.1328 3.3516-10.496zm-3.4492 11.73c5.0977-6.4961 13.898-9.1953 21.621-11.066 9.7227-2.3477 19.488-3.2578 29.398-1.6797 21.488 3.4102 40.723 14.242 60.883 21.699 9.75 3.6133 19.441 4.9453 29.773 4.9961 11.871 0.054688 23.664 0.023438 35.375-2.1289 12.512-2.2969 24.797-6.8164 36.754-11.066 5.3828-1.9102 11.637-4.3555 14.965-9.1836 0.089844-0.11328 0.16797-0.23047 0.24219-0.33984 0.050782 0.14453 0.089844 0.29688 0.11719 0.44141 0.33984 1.5352-0.28516 3.2461-2.375 5.1953-6.0312 5.6055-15.293 8.0586-22.836 10.863-11.145 4.1367-22.199 7.8555-33.902 10.168-14.953 2.9414-29.809 2.5742-44.883 0.90234-6.6094-0.73828-13.41-1.8828-19.758-4.0898-0.039063-0.078125-0.074219-0.16797-0.10156-0.25781-0.15625-0.4375-0.72266-0.39844-0.88672-0.085937-0.89453-0.33203-1.7812-0.67188-2.6562-1.0469-0.21094-0.10156-0.42969-0.19531-0.63672-0.29688-0.027344-0.15234-0.0625-0.29297-0.078125-0.4375-0.027344-0.23047-0.34766-0.24219-0.35938 0v0.23438c-5.8906-2.6953-11.305-6.4453-16.883-9.6875-11.594-6.7266-24.988-8.9883-38.141-10.555-6.707-0.80469-13.215-1.1328-19.84 0.36328-6.3164 1.4336-11.613 4.8789-17.176 7.9805-3.2734 1.8555-8.7539 4.0742-8.6172-0.92188zm-6.8516 43.664c0.24609-3.9297 0.32031-15.742 4.9336-17.852 4.8672-0.54688 9.1445-1.7969 14.113 0.35938 4.793 2.0898 9.0156 7.3008 12.078 11.406 5.9297 7.9531 9.6094 17.328 13.797 26.258-7.7734-0.35938-15.73 0.60547-23.465 1.2539-4.2656 0.34766-8.1992 0.0625-12.453-0.61719-2.9336-0.46484-5.543-1.9258-8.4766-2.3984-1.3477-5.8672-0.89844-12.531-0.52734-18.41zm24.105 25.746c-6.3438 0.011718-20.957 2.1523-23.262-6.0078-0.039062-0.14062-0.074219-0.29297-0.11328-0.42578 3.2266 0.72266 6.1992 2.2617 9.5039 2.8164 3.2266 0.52734 6.4336 0.80469 9.7109 0.64453 8.457-0.41016 17.035-0.96875 25.48-1.5859 0.10156 0.12891 0.22266 0.23438 0.34766 0.26172-1.8594 9.6133-14.918 4.2891-21.668 4.2969zm80.547-1.0625c-2.8789-2.0781-7.2969-1.0234-10.461-0.36328-6.3164 1.2891-12.461 3.4961-18.625 5.3438-9.0664 2.7109-28.023 9.1836-29.309-4.957 0.21875-0.375 0.40234-0.78906 0.56641-1.2539 0.86719 2.168 2.2383 3.9883 4.4297 5.1289 4.0898 2.1328 9.8125 0.82422 13.938-0.33203 3.1758-0.875 6.25-2.3984 9.2734-3.6562 2.3359-0.97266 4.7266-1.4727 7.1523-1.7461 2.9609 0.16797 5.7383 0.10547 8.7188-0.41406 3.9375-0.68359 7.8281-3.3984 11.871-1.7461 0.73438 0.30078 1.2539-0.92969 0.53906-1.2812-2.6758-1.2812-5.3945-0.53906-8.1328 0.28125-2.2578 0.65625-4.4297 1.2539-6.625 1.7344-2.2188-2.3906-4.9453-4.1602-7.6602-5.9375-4.2188-2.7539-7.8398-5.9961-11.207-9.7266-3.3555-3.7344-4.5547-10.051-10.734-9.168-5.1523 0.74609-9.8398 3.8008-12.18 8.5078-1.2422 2.4883-1.2227 5.6562-0.77734 8.8242 0.011719 1.3203 0.050781 2.6836 0.17969 4.0039-5.4336-12.039-10.949-24.031-20.793-33.188-3.9102-3.6406-8.8242-5.7578-14.18-5.1875-1.7578 0.19141-7.0742 2.3086-7.0352-0.050781 0.050781-3.5859 1.7812-6.6289 4.3789-8.8242 0.71875 0.46094 1.6797 0.78906 3.0195 0.91797 2.9609 0.28516 6.1758-0.46094 9.0938-0.88672 4.5703-0.66797 8.4453-0.39844 12.938 0.86328 8.8633 2.4766 15.355 9.168 23.184 13.574 6.8828 3.875 12.191 3.4375 19.562 1.5273 10-2.5977 14.605 4.7773 21.621 9.957 5.1289 3.8008 10.719 4.3672 16.703 3.125-3.0977 1.3438-6.2383 2.5469-9.0156 4.5312-4.25 3.0117-3.832 8.4766-3.5391 13.066 0.015625 0.24219 0.36328 0.25391 0.375 0 0.089844-2.5742-0.0625-5.1133 0.42969-7.6719 0.75781-3.9883 4.5547-5.8516 7.918-7.2031 2.9961-1.2031 6.3672-2.1406 8.9141-4.1875 6.2812-2.3203 11.988-6.1094 18.129-8.6953 8.9492-3.7734 17.879-5.1953 27.434-6.4102 0.34766-0.050782 0.38672-0.42578 0.14453-0.57813 2.7148-0.050781 5.4336 0.027344 8.1484 0.28125 13.699 1.2539 23.363 13.988 36.812 15.391 0.84375 0.085937 11.016-0.039063 10.555 1.1992-0.62109 1.6289-0.86328 3.4766-1.0547 5.332-3.6016-1.5078-7.5703-1.8828-11.402-2.4648-5.9766-0.90625-11.34-4.1094-16.754-6.6406-9.4688-4.4062-19.848-8.5-30.438-8.418-0.28125 0-0.28125 0.42578 0 0.44141 11.273 0.55469 21.41 4.8281 31.422 9.7539 4.1328 2.0273 8.1641 4.0938 12.562 5.4805 4.5859 1.4453 9.5742 1.1016 14.062 3.0234 0.15234 0.0625 0.29297 0.0625 0.42188 0.035156-0.11328 1.1641-0.23047 2.3203-0.4375 3.3984-0.58203 3.0625-2.7773 7.75-5.7305 10.977-2.3672 1.1914-4.7812 2.4883-7.1836 2.3242-0.75781-0.050782-0.74609 1.0195-0.078125 1.1758-0.41016-0.0625-0.82422-0.15625-1.2383-0.32031-0.11719-0.23047-0.33984-0.41016-0.67578-0.38672h-0.14453c-0.63672-0.34766-1.2773-0.82422-1.9023-1.4492-8.5977-8.6055-20.355-13.059-31.797-16.379-12.965-3.7617-26.629-8.0117-40.254-6.1445-11.055 1.5352-29.793 15.301-25.133 25.469zm-58.219-16.93c0.0625-0.42578 0.11328-0.85156 0.19141-1.2812 1.2148-6.0078 12.914-12.652 17.344-6.2227 2.8438 4.1289 5.2812 7.6719 8.9531 11.195 4.0312 3.8516 8.9766 6.3633 13.254 9.9531-0.85547-0.71875-5.7578 0.33984-6.9062 0.47656-2.3672 0.3125-4.5195 1.1523-6.7148 2.0508-5.5234 2.2578-10.734 4.2891-16.816 4.1758-10.395-0.18359-8.5469-12.953-9.1602-20.027-0.015625-0.125-0.078125-0.23437-0.14453-0.32031zm60.234 15.496c-0.10547-0.39844-0.67578-0.23047-0.60547 0.16797 0.13281 0.77734 0.32031 1.5273 0.51562 2.2695-1.0625-1.6367-1.4727-3.7031-0.93359-6.3008 1.8438-8.8828 13.156-15.34 20.973-17.742 12.473-3.832 26.422 0.34766 38.578 3.5117 10.477 2.7266 20.957 6.0586 29.895 12.336 2.3906 1.6875 4.3008 4.0977 6.6211 5.7891-11.133 0.48047-22.27 0.98047-33.375 1.9023-11.137 0.92578-21.738 3.207-32.703 5.2539-5.8594 1.0938-21.105 2.2734-27.41-2.957-0.62109-1.3516-1.125-2.7852-1.5547-4.2305zm39.844 12.98c-8.2695 0.80078-16.812 3.9922-25.105 2.6445-5.8086-0.94531-9.6836-4.6797-12.219-9.4062 1.0625 0.67578 2.3203 1.3086 3.7617 1.9023 12.375 5.0195 27.234-0.46875 39.582-2.7891 16.734-3.1484 34.379-3.1484 51.352-3.793 0.12891 0 0.24219-0.027344 0.33984-0.078125 0.53906 0.19531 1.0938 0.36328 1.7031 0.45312 2.5586 0.42188 4.9297-1.1797 6.7656-2.7344 0.26953-0.21875 0.5-0.46094 0.75-0.69531 3.0977-1.2383 5.8906-2.0508 9.2383-2.6328 7.2031-1.2227 14.074-3.7812 21.078-5.8281 14.684-4.3125 30.094-5.2344 45-8.6133 6.8359-1.5508 13.578-3.6328 20.367-5.3867 5.6953-1.4727 11.43-1.8711 16.793-4.5195 3.2422-1.6016 5.0078-5.6836 7.3711-8.2305 6.6211-7.0859 13.344 3.4141 13.793 9.6055 0 0.035156 0.011719 0.050781 0.023438 0.074219-5.9961 4.0312-12.117 6.957-19.156 9.1328-3 0.92578-6.082 1.6133-9.1328 2.3398-1.3711 0.33203-2.8242 0.83594-4.3008 1.2539-0.16797-0.18359-0.40234-0.32031-0.72656-0.25781-1.6797 0.28516-3.3594 0.58203-5.0391 0.88672-0.44922-0.085938-0.88672-0.20313-1.3203-0.37109-0.24609-0.10156-0.36328 0.26953-0.16797 0.41016 0.10156 0.0625 0.20312 0.11328 0.30078 0.16797-7.2617 1.2891-14.531 2.6602-21.75 4.1992-9.2227 1.9805-18.273 4.6758-27.5 6.5742-9.4258 1.9336-18.938 3.3047-28.332 5.3555-9.3984 2.0508-18.492 3.8594-28.094 4.7695-8.9883 0.85156-17.852 2.2617-26.824 3.3164-9.4844 1.1094-19.059 1.3477-28.551 2.25zm187.98-26.492c-6.8867 3.8008-13.066 8.0938-20.637 10.527-14.348 4.6133-30.102 5.9023-45 7.4883-24.246 2.5859-48.664 3.1992-72.973 4.8828 7.9336-0.77734 15.871-1.3594 23.734-2.8164 10.555-1.9609 20.996-4.5547 31.59-6.4336 10.59-1.8711 20.871-4.75 31.336-7.1328 9.8281-2.2461 19.777-4.0195 29.715-5.7695 0.65625-0.085938 1.3164-0.19531 1.9805-0.33203 4.2227-0.8125 8.5078-1.9609 12.656-3.0977 6.9453-1.8945 15.094-4.625 20.793-9.4531-2.207 5.8086-7.7461 9.1562-13.195 12.137zm14.676-15.598c-0.050781-0.011719-0.089844-0.011719-0.13281-0.011719-0.26172 0-0.5 0.14453-0.55859 0.5-0.011719 0.078125-0.035156 0.14453-0.050782 0.22266-1.0078-6.668-6.3516-14.578-13.793-11.285-4.3125 1.9141-5.543 7.5391-9.4688 9.9062-6.1094 3.6797-14.695 3.9141-21.48 5.7188-8.043 2.1406-16.016 4.375-24.215 5.8594-8.4609 1.5352-17.02 2.5312-25.457 4.1328-8.3828 1.5898-16.516 4.457-24.672 6.9336-3.9883 1.2031-8.1367 1.6406-12.188 2.6055-0.50781 0.11719-1.0312 0.30078-1.5469 0.5 3.4453-4.8555 4.1992-11.031 5.7227-16.832 0.10156 0.027343 0.20703 0.0625 0.35156 0.11328 0.19141 0.050781 0.46094-0.074219 0.48828-0.28125 1.5234-9.2305 11.508-12.797 19.375-15.203 8.3789-2.5703 16.906-5.1367 25.352-7.4141 12.707-3.4375 25.906-4.6875 38.898-6.5234 5.1953-0.73828 10.332-1.6914 15.469-2.7266-0.25391 0.09375-0.49219 0.16797-0.72656 0.25391-0.375 0.11719-0.3125 0.67188 0.089843 0.68359 2.5742 0.050782 5.7188-1.1641 8.9766-2.4453 0.91797-0.15625 1.8438-0.33203 2.7422-0.54297 2.207-0.48828 4.3398-1.1523 6.2109-2.2734 0.33203-0.039063 0.64453-0.074219 0.95703-0.09375 0.050781 0.035156 0.078125 0.066406 0.11719 0.09375 0.24219 0.15625 0.44922 0.074218 0.57031-0.11328 2.4414 0.015626 4.6016 0.91406 6.2148 3.375 3.9219 5.9688 5.3281 17.746 2.7539 24.848z"/>
  <use x="70" y="644" xlink:href="#v"/>
  <use x="90.550781" y="644" xlink:href="#b"/>
  <use x="104.359375" y="644" xlink:href="#d"/>
  <use x="123.347656" y="644" xlink:href="#c"/>
  <use x="142.242188" y="644" xlink:href="#e"/>
  <use x="155.628906" y="644" xlink:href="#d"/>
  <use x="174.617188" y="644" xlink:href="#l"/>
  <use x="204.410156" y="644" xlink:href="#k"/>
  <use x="224.453125" y="644" xlink:href="#f"/>
  <use x="252.453125" y="644" xlink:href="#j"/>
  <use x="275.433594" y="644" xlink:href="#c"/>
  <use x="294.328125" y="644" xlink:href="#u"/>
  <use x="314.371094" y="644" xlink:href="#c"/>
  <use x="333.265625" y="644" xlink:href="#i"/>
  <use x="359.679688" y="644" xlink:href="#t"/>
  <use x="381.351562" y="644" xlink:href="#b"/>
  <use x="395.15625" y="644" xlink:href="#f"/>
  <use x="413.410156" y="644" xlink:href="#a"/>
  <use x="442.394531" y="644" xlink:href="#h"/>
  <use x="462.914062" y="644" xlink:href="#b"/>
  <use x="476.726562" y="644" xlink:href="#c"/>
  <use x="495.617187" y="644" xlink:href="#i"/>
  <use x="512.285156" y="644" xlink:href="#a"/>
  <use x="531.523437" y="644" xlink:href="#g"/>
  <use x="541.117187" y="644" xlink:href="#a"/>
  <use x="70" y="672" xlink:href="#s"/>
  <use x="82.183594" y="672" xlink:href="#b"/>
  <use x="95.992188" y="672" xlink:href="#a"/>
  <use x="115.226562" y="672" xlink:href="#r"/>
  <use x="154.152344" y="672" xlink:href="#e"/>
  <use x="167.535156" y="672" xlink:href="#q"/>
  <use x="187.46875" y="672" xlink:href="#d"/>
  <use x="216.207031" y="672" xlink:href="#p"/>
  <use x="239.640625" y="672" xlink:href="#a"/>
  <use x="258.878906" y="672" xlink:href="#o"/>
  <use x="278.8125" y="672" xlink:href="#n"/>
  <use x="308.492188" y="672" xlink:href="#h"/>
  <use x="329.015625" y="672" xlink:href="#b"/>
  <use x="342.820312" y="672" xlink:href="#a"/>
  <use x="362.058594" y="672" xlink:href="#g"/>
  <use x="371.65625" y="672" xlink:href="#d"/>
  <use x="390.648438" y="672" xlink:href="#m"/>
  <use x="407.242188" y="672" xlink:href="#e"/>
 </g>
</svg>
