<?xml version="1.0" encoding="UTF-8"?>
<svg width="700pt" height="700pt" version="1.1" viewBox="0 0 700 700" xmlns="http://www.w3.org/2000/svg" xmlns:xlink="http://www.w3.org/1999/xlink">
 <defs>
  <symbol id="v" overflow="visible">
   <path d="m18.766-1.125c-0.96875 0.5-1.9805 0.875-3.0312 1.125-1.043 0.25781-2.1367 0.39062-3.2812 0.39062-3.3984 0-6.0898-0.94531-8.0781-2.8438-1.9922-1.9062-2.9844-4.4844-2.9844-7.7344 0-3.2578 0.99219-5.8359 2.9844-7.7344 1.9883-1.9062 4.6797-2.8594 8.0781-2.8594 1.1445 0 2.2383 0.13281 3.2812 0.39062 1.0508 0.25 2.0625 0.625 3.0312 1.125v4.2188c-0.98047-0.65625-1.9453-1.1406-2.8906-1.4531-0.94922-0.3125-1.9492-0.46875-3-0.46875-1.875 0-3.3516 0.60547-4.4219 1.8125-1.0742 1.1992-1.6094 2.8555-1.6094 4.9688 0 2.1055 0.53516 3.7617 1.6094 4.9688 1.0703 1.1992 2.5469 1.7969 4.4219 1.7969 1.0508 0 2.0508-0.14844 3-0.45312 0.94531-0.3125 1.9102-0.80078 2.8906-1.4688z"/>
  </symbol>
  <symbol id="b" overflow="visible">
   <path d="m13.734-11.141c-0.4375-0.19531-0.87109-0.34375-1.2969-0.4375-0.41797-0.10156-0.83984-0.15625-1.2656-0.15625-1.2617 0-2.2305 0.40625-2.9062 1.2188-0.67969 0.80469-1.0156 1.9531-1.0156 3.4531v7.0625h-4.8906v-15.312h4.8906v2.5156c0.625-1 1.3438-1.7266 2.1562-2.1875 0.82031-0.46875 1.8008-0.70312 2.9375-0.70312 0.16406 0 0.34375 0.011719 0.53125 0.03125 0.19531 0.011719 0.47656 0.039062 0.84375 0.078125z"/>
  </symbol>
  <symbol id="d" overflow="visible">
   <path d="m17.641-7.7031v1.4062h-11.453c0.125 1.1484 0.53906 2.0078 1.25 2.5781 0.70703 0.57422 1.7031 0.85938 2.9844 0.85938 1.0312 0 2.082-0.14844 3.1562-0.45312 1.082-0.3125 2.1914-0.77344 3.3281-1.3906v3.7656c-1.1562 0.4375-2.3125 0.76562-3.4688 0.98438-1.1562 0.22656-2.3125 0.34375-3.4688 0.34375-2.7734 0-4.9297-0.70312-6.4688-2.1094-1.5312-1.4062-2.2969-3.3789-2.2969-5.9219 0-2.5 0.75391-4.4609 2.2656-5.8906 1.5078-1.4375 3.582-2.1562 6.2188-2.1562 2.4062 0 4.332 0.73047 5.7812 2.1875 1.4453 1.4492 2.1719 3.3828 2.1719 5.7969zm-5.0312-1.625c0-0.92578-0.27344-1.6719-0.8125-2.2344-0.54297-0.57031-1.25-0.85938-2.125-0.85938-0.94922 0-1.7188 0.26562-2.3125 0.79688s-0.96484 1.2969-1.1094 2.2969z"/>
  </symbol>
  <symbol id="c" overflow="visible">
   <path d="m9.2188-6.8906c-1.0234 0-1.793 0.17188-2.3125 0.51562-0.51172 0.34375-0.76562 0.85547-0.76562 1.5312 0 0.625 0.20703 1.1172 0.625 1.4688 0.41406 0.34375 0.98828 0.51562 1.7188 0.51562 0.92578 0 1.7031-0.32812 2.3281-0.98438 0.63281-0.66406 0.95312-1.4922 0.95312-2.4844v-0.5625zm7.4688-1.8438v8.7344h-4.9219v-2.2656c-0.65625 0.92969-1.3984 1.6055-2.2188 2.0312-0.82422 0.41406-1.8242 0.625-3 0.625-1.5859 0-2.8711-0.45703-3.8594-1.375-0.99219-0.92578-1.4844-2.1289-1.4844-3.6094 0-1.7891 0.61328-3.1016 1.8438-3.9375 1.2383-0.84375 3.1797-1.2656 5.8281-1.2656h2.8906v-0.39062c0-0.76953-0.30859-1.332-0.92188-1.6875-0.61719-0.36328-1.5703-0.54688-2.8594-0.54688-1.0547 0-2.0312 0.10547-2.9375 0.3125-0.89844 0.21094-1.7305 0.52344-2.5 0.9375v-3.7344c1.0391-0.25 2.0859-0.44141 3.1406-0.57812 1.0625-0.13281 2.125-0.20312 3.1875-0.20312 2.7578 0 4.75 0.54688 5.9688 1.6406 1.2266 1.0859 1.8438 2.8555 1.8438 5.3125z"/>
  </symbol>
  <symbol id="e" overflow="visible">
   <path d="m7.7031-19.656v4.3438h5.0469v3.5h-5.0469v6.5c0 0.71094 0.14062 1.1875 0.42188 1.4375s0.83594 0.375 1.6719 0.375h2.5156v3.5h-4.1875c-1.9375 0-3.3125-0.39844-4.125-1.2031-0.80469-0.8125-1.2031-2.1797-1.2031-4.1094v-6.5h-2.4219v-3.5h2.4219v-4.3438z"/>
  </symbol>
  <symbol id="l" overflow="visible">
   <path d="m12.766-13.078v-8.2031h4.9219v21.281h-4.9219v-2.2188c-0.66797 0.90625-1.4062 1.5703-2.2188 1.9844s-1.7578 0.625-2.8281 0.625c-1.8867 0-3.4336-0.75-4.6406-2.25-1.2109-1.5-1.8125-3.4258-1.8125-5.7812 0-2.3633 0.60156-4.2969 1.8125-5.7969 1.207-1.5 2.7539-2.25 4.6406-2.25 1.0625 0 2 0.21484 2.8125 0.64062 0.82031 0.42969 1.5664 1.0859 2.2344 1.9688zm-3.2188 9.9219c1.0391 0 1.8359-0.37891 2.3906-1.1406 0.55078-0.76953 0.82812-1.8828 0.82812-3.3438 0-1.457-0.27734-2.5664-0.82812-3.3281-0.55469-0.76953-1.3516-1.1562-2.3906-1.1562-1.043 0-1.8398 0.38672-2.3906 1.1562-0.55469 0.76172-0.82812 1.8711-0.82812 3.3281 0 1.4609 0.27344 2.5742 0.82812 3.3438 0.55078 0.76172 1.3477 1.1406 2.3906 1.1406z"/>
  </symbol>
  <symbol id="k" overflow="visible">
   <path d="m10.5-3.1562c1.0508 0 1.8516-0.37891 2.4062-1.1406 0.55078-0.76953 0.82812-1.8828 0.82812-3.3438 0-1.457-0.27734-2.5664-0.82812-3.3281-0.55469-0.76953-1.3555-1.1562-2.4062-1.1562-1.0547 0-1.8594 0.38672-2.4219 1.1562-0.55469 0.77344-0.82812 1.8828-0.82812 3.3281 0 1.4492 0.27344 2.5586 0.82812 3.3281 0.5625 0.77344 1.3672 1.1562 2.4219 1.1562zm-3.25-9.9219c0.67578-0.88281 1.4219-1.5391 2.2344-1.9688 0.82031-0.42578 1.7656-0.64062 2.8281-0.64062 1.8945 0 3.4453 0.75 4.6562 2.25 1.207 1.5 1.8125 3.4336 1.8125 5.7969 0 2.3555-0.60547 4.2812-1.8125 5.7812-1.2109 1.5-2.7617 2.25-4.6562 2.25-1.0625 0-2.0078-0.21094-2.8281-0.625-0.8125-0.42578-1.5586-1.0859-2.2344-1.9844v2.2188h-4.8906v-21.281h4.8906z"/>
  </symbol>
  <symbol id="f" overflow="visible">
   <path d="m0.34375-15.312h4.8906l4.125 10.391 3.5-10.391h4.8906l-6.4375 16.766c-0.64844 1.6953-1.4023 2.8828-2.2656 3.5625-0.86719 0.6875-2 1.0312-3.4062 1.0312h-2.8438v-3.2188h1.5312c0.83203 0 1.4375-0.13672 1.8125-0.40625 0.38281-0.26172 0.67969-0.73047 0.89062-1.4062l0.14062-0.42188z"/>
  </symbol>
  <symbol id="j" overflow="visible">
   <path d="m20.922-1.5156c-1.3125 0.63672-2.6797 1.1172-4.0938 1.4375-1.4062 0.3125-2.8672 0.46875-4.375 0.46875-3.3984 0-6.0898-0.94531-8.0781-2.8438-1.9922-1.9062-2.9844-4.4844-2.9844-7.7344 0-3.2891 1.0078-5.8789 3.0312-7.7656 2.0312-1.8828 4.8047-2.8281 8.3281-2.8281 1.3516 0 2.6484 0.13281 3.8906 0.39062 1.25 0.25 2.4258 0.625 3.5312 1.125v4.2188c-1.1484-0.64453-2.2812-1.125-3.4062-1.4375-1.125-0.32031-2.25-0.48438-3.375-0.48438-2.1055 0-3.7266 0.58984-4.8594 1.7656-1.125 1.168-1.6875 2.8398-1.6875 5.0156 0 2.1562 0.54688 3.8242 1.6406 5 1.0938 1.1797 2.6445 1.7656 4.6562 1.7656 0.53906 0 1.0469-0.03125 1.5156-0.09375 0.47656-0.070313 0.89844-0.17969 1.2656-0.32812v-3.9688h-3.2031v-3.5156h8.2031z"/>
  </symbol>
  <symbol id="u" overflow="visible">
   <path d="m12.766-2.5938c-0.66797 0.88672-1.4062 1.543-2.2188 1.9688-0.8125 0.41797-1.7578 0.625-2.8281 0.625-1.8672 0-3.4062-0.73438-4.625-2.2031-1.2188-1.4766-1.8281-3.3516-1.8281-5.625 0-2.2891 0.60938-4.1641 1.8281-5.625 1.2188-1.4688 2.7578-2.2031 4.625-2.2031 1.0703 0 2.0156 0.21484 2.8281 0.64062 0.8125 0.41797 1.5508 1.0742 2.2188 1.9688v-2.2656h4.9219v13.766c0 2.457-0.77734 4.3359-2.3281 5.6406-1.5547 1.3008-3.8086 1.9531-6.7656 1.9531-0.94922 0-1.8711-0.074219-2.7656-0.21875-0.89844-0.14844-1.7969-0.37109-2.7031-0.67188v-3.8125c0.86328 0.48828 1.7031 0.85156 2.5156 1.0938 0.82031 0.23828 1.6484 0.35938 2.4844 0.35938 1.6016 0 2.7734-0.35156 3.5156-1.0469 0.75-0.69922 1.125-1.7969 1.125-3.2969zm-3.2188-9.5312c-1.0117 0-1.8047 0.375-2.375 1.125-0.5625 0.74219-0.84375 1.7969-0.84375 3.1719 0 1.3984 0.26953 2.4609 0.8125 3.1875 0.55078 0.71875 1.3516 1.0781 2.4062 1.0781 1.0195 0 1.8125-0.36719 2.375-1.1094 0.5625-0.75 0.84375-1.8008 0.84375-3.1562 0-1.375-0.28125-2.4297-0.84375-3.1719-0.5625-0.75-1.3555-1.125-2.375-1.125z"/>
  </symbol>
  <symbol id="i" overflow="visible">
   <path d="m14.312-14.828v3.7188c-1.043-0.4375-2.0547-0.76562-3.0312-0.98438-0.98047-0.21875-1.9023-0.32812-2.7656-0.32812-0.92969 0-1.6211 0.11719-2.0781 0.34375-0.44922 0.23047-0.67188 0.58984-0.67188 1.0781 0 0.38672 0.17188 0.68359 0.51562 0.89062 0.34375 0.21094 0.95703 0.36719 1.8438 0.46875l0.85938 0.125c2.5078 0.32422 4.1953 0.85156 5.0625 1.5781 0.86328 0.73047 1.2969 1.8711 1.2969 3.4219 0 1.6367-0.60547 2.8672-1.8125 3.6875-1.1992 0.8125-2.9922 1.2188-5.375 1.2188-1.0234 0-2.0742-0.078125-3.1562-0.23438-1.0742-0.15625-2.1797-0.39453-3.3125-0.71875v-3.7188c0.96875 0.48047 1.9609 0.83984 2.9844 1.0781 1.0312 0.23047 2.0781 0.34375 3.1406 0.34375 0.95703 0 1.6758-0.12891 2.1562-0.39062 0.47656-0.26953 0.71875-0.66406 0.71875-1.1875 0-0.4375-0.16797-0.75781-0.5-0.96875-0.33594-0.21875-0.99609-0.38281-1.9844-0.5l-0.85938-0.10938c-2.1797-0.26953-3.7031-0.77344-4.5781-1.5156-0.875-0.73828-1.3125-1.8594-1.3125-3.3594 0-1.625 0.55078-2.8281 1.6562-3.6094 1.1133-0.78906 2.8203-1.1875 5.125-1.1875 0.89453 0 1.8359 0.074219 2.8281 0.21875 1 0.13672 2.082 0.35156 3.25 0.64062z"/>
  </symbol>
  <symbol id="t" overflow="visible">
   <path d="m14.953-3.7188h-8.2188l-1.3125 3.7188h-5.2812l7.5625-20.406h6.2656l7.5625 20.406h-5.2812zm-6.9062-3.7812h5.5781l-2.7812-8.125z"/>
  </symbol>
  <symbol id="a" overflow="visible">
   <path d="m9.6406-12.188c-1.0859 0-1.9141 0.39062-2.4844 1.1719-0.57422 0.78125-0.85938 1.9062-0.85938 3.375s0.28516 2.5938 0.85938 3.375c0.57031 0.77344 1.3984 1.1562 2.4844 1.1562 1.0625 0 1.875-0.38281 2.4375-1.1562 0.57031-0.78125 0.85938-1.9062 0.85938-3.375s-0.28906-2.5938-0.85938-3.375c-0.5625-0.78125-1.375-1.1719-2.4375-1.1719zm0-3.5c2.6328 0 4.6914 0.71484 6.1719 2.1406 1.4766 1.418 2.2188 3.3867 2.2188 5.9062 0 2.5117-0.74219 4.4805-2.2188 5.9062-1.4805 1.418-3.5391 2.125-6.1719 2.125-2.6484 0-4.7148-0.70703-6.2031-2.125-1.4922-1.4258-2.2344-3.3945-2.2344-5.9062 0-2.5195 0.74219-4.4883 2.2344-5.9062 1.4883-1.4258 3.5547-2.1406 6.2031-2.1406z"/>
  </symbol>
  <symbol id="h" overflow="visible">
   <path d="m2.5781-20.406h8.7344c2.5938 0 4.582 0.57812 5.9688 1.7344 1.3945 1.1484 2.0938 2.7891 2.0938 4.9219 0 2.1367-0.69922 3.7812-2.0938 4.9375-1.3867 1.1562-3.375 1.7344-5.9688 1.7344h-3.4844v7.0781h-5.25zm5.25 3.8125v5.7031h2.9219c1.0195 0 1.8047-0.25 2.3594-0.75 0.5625-0.5 0.84375-1.2031 0.84375-2.1094 0-0.91406-0.28125-1.6172-0.84375-2.1094-0.55469-0.48828-1.3398-0.73438-2.3594-0.73438z"/>
  </symbol>
  <symbol id="g" overflow="visible">
   <path d="m2.3594-15.312h4.8906v15.031c0 2.0508-0.49609 3.6172-1.4844 4.7031-0.98047 1.082-2.4062 1.625-4.2812 1.625h-2.4219v-3.2188h0.85938c0.92578 0 1.5625-0.21094 1.9062-0.625 0.35156-0.41797 0.53125-1.2461 0.53125-2.4844zm0-5.9688h4.8906v4h-4.8906z"/>
  </symbol>
  <symbol id="s" overflow="visible">
   <path d="m12.422-21.281v3.2188h-2.7031c-0.6875 0-1.1719 0.125-1.4531 0.375-0.27344 0.25-0.40625 0.6875-0.40625 1.3125v1.0625h4.1875v3.5h-4.1875v11.812h-4.8906v-11.812h-2.4375v-3.5h2.4375v-1.0625c0-1.6641 0.46094-2.8984 1.3906-3.7031 0.92578-0.80078 2.3672-1.2031 4.3281-1.2031z"/>
  </symbol>
  <symbol id="r" overflow="visible">
   <path d="m16.547-12.766c0.61328-0.94531 1.3477-1.6719 2.2031-2.1719 0.85156-0.5 1.7891-0.75 2.8125-0.75 1.7578 0 3.0977 0.54688 4.0156 1.6406 0.92578 1.0859 1.3906 2.6562 1.3906 4.7188v9.3281h-4.9219v-7.9844-0.35938c0.007813-0.13281 0.015625-0.32031 0.015625-0.5625 0-1.082-0.16406-1.8633-0.48438-2.3438-0.3125-0.48828-0.82422-0.73438-1.5312-0.73438-0.92969 0-1.6484 0.38672-2.1562 1.1562-0.51172 0.76172-0.77344 1.8672-0.78125 3.3125v7.5156h-4.9219v-7.9844c0-1.6953-0.14844-2.7852-0.4375-3.2656-0.29297-0.48828-0.8125-0.73438-1.5625-0.73438-0.9375 0-1.6641 0.38672-2.1719 1.1562-0.51172 0.76172-0.76562 1.8594-0.76562 3.2969v7.5312h-4.9219v-15.312h4.9219v2.2344c0.60156-0.86328 1.2891-1.5156 2.0625-1.9531 0.78125-0.4375 1.6406-0.65625 2.5781-0.65625 1.0625 0 2 0.25781 2.8125 0.76562 0.8125 0.51172 1.4258 1.2305 1.8438 2.1562z"/>
  </symbol>
  <symbol id="q" overflow="visible">
   <path d="m17.75-9.3281v9.3281h-4.9219v-7.1094c0-1.3438-0.03125-2.2656-0.09375-2.7656s-0.16797-0.86719-0.3125-1.1094c-0.1875-0.3125-0.44922-0.55469-0.78125-0.73438-0.32422-0.17578-0.69531-0.26562-1.1094-0.26562-1.0234 0-1.8242 0.39844-2.4062 1.1875-0.58594 0.78125-0.875 1.8711-0.875 3.2656v7.5312h-4.8906v-21.281h4.8906v8.2031c0.73828-0.88281 1.5195-1.5391 2.3438-1.9688 0.83203-0.42578 1.75-0.64062 2.75-0.64062 1.7695 0 3.1133 0.54688 4.0312 1.6406 0.91406 1.0859 1.375 2.6562 1.375 4.7188z"/>
  </symbol>
  <symbol id="p" overflow="visible">
   <path d="m2.5781-20.406h5.875l7.4219 14v-14h4.9844v20.406h-5.875l-7.4219-14v14h-4.9844z"/>
  </symbol>
  <symbol id="o" overflow="visible">
   <path d="m2.1875-5.9688v-9.3438h4.9219v1.5312c0 0.83594-0.007813 1.875-0.015625 3.125-0.011719 1.25-0.015625 2.0859-0.015625 2.5 0 1.2422 0.03125 2.1328 0.09375 2.6719 0.070313 0.54297 0.17969 0.93359 0.32812 1.1719 0.20703 0.32422 0.47266 0.57422 0.79688 0.75 0.32031 0.16797 0.69141 0.25 1.1094 0.25 1.0195 0 1.8203-0.39062 2.4062-1.1719 0.58203-0.78125 0.875-1.8672 0.875-3.2656v-7.5625h4.8906v15.312h-4.8906v-2.2188c-0.74219 0.89844-1.5234 1.5586-2.3438 1.9844-0.82422 0.41406-1.7344 0.625-2.7344 0.625-1.7617 0-3.1055-0.53906-4.0312-1.625-0.92969-1.082-1.3906-2.6602-1.3906-4.7344z"/>
  </symbol>
  <symbol id="n" overflow="visible">
   <path d="m17.75-9.3281v9.3281h-4.9219v-7.1406c0-1.3203-0.03125-2.2344-0.09375-2.7344s-0.16797-0.86719-0.3125-1.1094c-0.1875-0.3125-0.44922-0.55469-0.78125-0.73438-0.32422-0.17578-0.69531-0.26562-1.1094-0.26562-1.0234 0-1.8242 0.39844-2.4062 1.1875-0.58594 0.78125-0.875 1.8711-0.875 3.2656v7.5312h-4.8906v-15.312h4.8906v2.2344c0.73828-0.88281 1.5195-1.5391 2.3438-1.9688 0.83203-0.42578 1.75-0.64062 2.75-0.64062 1.7695 0 3.1133 0.54688 4.0312 1.6406 0.91406 1.0859 1.375 2.6562 1.375 4.7188z"/>
  </symbol>
  <symbol id="m" overflow="visible">
   <path d="m14.719-14.828v3.9844c-0.65625-0.45703-1.3242-0.79688-2-1.0156-0.66797-0.21875-1.3594-0.32812-2.0781-0.32812-1.3672 0-2.4336 0.40234-3.2031 1.2031-0.76172 0.79297-1.1406 1.9062-1.1406 3.3438 0 1.4297 0.37891 2.543 1.1406 3.3438 0.76953 0.79297 1.8359 1.1875 3.2031 1.1875 0.75781 0 1.4844-0.10938 2.1719-0.32812 0.6875-0.22656 1.3203-0.56641 1.9062-1.0156v4c-0.76172 0.28125-1.5391 0.48828-2.3281 0.625-0.78125 0.14453-1.5742 0.21875-2.375 0.21875-2.7617 0-4.9219-0.70703-6.4844-2.125-1.5547-1.4141-2.3281-3.3828-2.3281-5.9062 0-2.5312 0.77344-4.5039 2.3281-5.9219 1.5625-1.4141 3.7227-2.125 6.4844-2.125 0.80078 0 1.5938 0.074219 2.375 0.21875 0.78125 0.13672 1.5547 0.35156 2.3281 0.64062z"/>
  </symbol>
 </defs>
 <g>
  <path d="m251.41 277.39c8.6953 0.28516 18.676 3.4375 26.602 7.0508 0.51562 0.23438 0.97266-0.51562 0.45312-0.77344-7.8242-3.8086-18.367-6.3008-27.055-6.3672-0.054687 0.003907-0.054687 0.089844 0 0.089844z"/>
  <path d="m545.18 341.36c-1.5977-9.7148-10.949-12.953-19.461-16.145-5.6016-2.6211-10.875-6.2344-16.379-8.9727-6.3008-3.1406-12.531-6.4297-18.945-9.3359 0-0.20703-0.11328-0.42578-0.37891-0.51562-8.6016-2.8281-15.949-7.9336-23.527-12.738-3.8477-2.4531-7.8398-6.4961-12.555-7.0273-3.8477-4.1602-10.938-4.9609-13.961-10.309 1.0977-0.875 2.0391-1.8555 2.6758-2.9609 1.4219-2.5195-3.375-2.9727-4.6523-2.6211-2.9102 0.80078-2.8164 4.0195-1.9531 6.6016-1.8438 1.1719-3.7852 2.2461-5.8398 2.9336-5.0508 1.6875-9.5703 4.6719-14.645 6.3516-0.73828 0.24609-1.4844 0.46484-2.2227 0.67578 0.46875-1.0312 0.96875-2.0547 1.5352-3.0078 2.582-4.3516 5.4766-8.6133 6.9219-13.512 3.8516-1.3281 6.8945-3.5625 7.6992-9.25 0.074219-0.51562-0.28516-0.96484-0.83594-0.83594-5.3203 1.25-6.707 5.1875-8.1641 9.5078-1.3594 0.39844-2.75 0.69922-3.9922 0.96484-5.0117 1.1016-9.7656 2.8164-14.559 4.5977 0.55469-2.8008 0.97266-5.7109 2.1914-8.3906 0.98438-2.1406 2.7734-5.4336 4.8906-8.1094 3.9102-0.16406 7.8633-0.039063 11.711-0.074219 0.56641 0 0.83594-0.57812 0.60547-1.0547-3.5156-7.3242-8.8359-5.2852-13.16-0.09375-2.6953 0.15625-5.3945 0.42188-8.0625 0.90625-4.4258 0.79688-8.5117 2.9453-12.617 4.6719-0.45312 0.18359-1.2031 0.46484-2.1289 0.82422 0.50391-1.7305 1.0312-3.4492 1.7578-5.1055 1.1211-2.5664 3.1289-5.0898 4.5469-7.5547 0.37109-0.64844 0.77344-1.3047 1.2031-1.9414 1.0703-0.14453 2.1406-0.26953 3.1914-0.46484 2.3867 0.41016 4.9375 0.21875 7.1289-0.63672 0.41016-0.15234 0.55469-0.60547 0.25781-0.94531-4.1484-4.7109-7.8398-3.4883-11.02 0.42969-4.0781 0.76172-8.1523 2.2969-11.781 3.5898-2.0898 0.74609-4.207 1.4375-6.3164 2.1406 0.42969-1.4297 0.78516-2.8906 1.0938-4.3398 0.75-3.4883 2.0781-6.4023 4.0664-9.3516 0.65625-0.98047 1.4062-1.9023 2.1914-2.8008 3.3828 1.7188 6.4609 1.9766 7.9336-1.6055 0.69922-1.6953 0.42578-3.9102-1.5117-4.6719-2.5664-1.0078-5.1016 1.7969-7.0039 4.3633-4.3242-2.4922-9.2305-6.7578-11.328-8.1719 0.37109-0.29688 0.73438-0.63672 1.082-1.043 1.0312-1.1797 1.5117-2.6328 1.5859-4.1484 0.14453 0.26953 0.41406 0.44141 0.73828 0.30859 5.7617-2.3867 10.199 6.6875 16.18 6.5625 4.0547-0.085938 6.9336-1.7461 5.2734-5.9648-3.4258-8.6953-16.547-8.9648-25.168-9.9414 0.64844-0.47656 1.2773-0.98047 1.832-1.5859 3.3555-3.6289 7.2109-7.8633 12.523-4.9883 4.3516 2.3633 7.0508 6.8945 12.594 5.0859 0.41406-0.14453 0.49219-0.53906 0.35938-0.83594 0.40234 0.11328 0.8125 0.09375 1.1641-0.21875 1.793-1.5859 5.1641-0.73828 7.2109-0.34766 4.1445 0.79688 8.0547 2.4297 12.152 3.4258 0.69922 0.16406 0.99609-0.91797 0.29687-1.082-4.9883-1.2266-17.227-7.6758-21.547-2.2969-0.039063 0.050781-0.039063 0.125 0.023437 0.17188-6.9883 1.5117-10.297-8.0742-17.031-6.3516-3.3672 0.86328-5.6055 2.9297-7.9336 5.4531-0.48047 0.53125-1.0078 1.0078-1.5586 1.4609-2.0781-3.2031-3.6406-6.6875-5.3594-10.098-1.707-3.375-1.2539-7.8906-1.6289-11.562-0.46875-4.6719-1.4883-10.078-6.625-11.43-3.1602-0.83594-6.9766 0.62891-9.8047 1.832-5.9062 2.5195-11.363 5.8633-16.844 9.1914-6.4922 3.9219-10.348 5.4336-8.4297 13.676 0.023438 0.085937 0.0625 0.13281 0.11719 0.17188-3.9297 2.9336-7.1406 6.418-8.9102 11.391-2.375 6.6484-4.9062 14.312 0.23438 20.113-0.59375 0.34766-1.1914 0.6875-1.7695 0.98438-2.3203 1.2383-7.5 3.3945-8.3086 6.3516-0.29297 1.043 0 2.1055 0.56641 3.1602-1.8438-0.60547-2.9609-1.2305-5.3867-0.84375-2.9336 0.47656-5.7109 2.3594-8.1211 3.9531-6.6602 4.4297-11.945 10.293-19.938 12.473-6.6484 1.8203-11.598-2.9844-14.34-8.5-2.582-5.2188-2.2109-10.824-2.7266-16.426-0.32031-3.4453-1.0195-4.3164-2.9414-5.0742 0.67188 0.027344 1.3281 0.09375 1.9648 0.15234 0.67187 0.074218 0.63672-0.94531 0-1.0195-3.6953-0.48047-9.2109-0.92969-11.77 2.5664-3.9414 5.3555-3.5859 14.855-4.207 21.219-0.49219 5-1.5469 9.0273-3.7578 13.535-1.2148 2.4805-2.2227 4.9062-2.3125 7.6992-0.0625 1.7969 0.64844 3.2812 1.7578 4.4727-1.3477 2.2227-1.3047 5.0742-1.2773 7.6328 0.074219 6.3398 0.81641 11.441-2.5547 17.277-0.21875 0.023438-0.42969 0.035156-0.64844 0.0625-9.5742 1.2656-10.641 13.688-9.7773 21.348-0.17187-0.63672-1.0977-0.34766-0.99609 0.28516 0.57812 3.5-1.082 6.8047-2.7383 10.098-1.9336 3.8789-3.8594 7.7266-2.0547 11.844 0.125 0.28516 0.25781 0.57812 0.39844 0.85156 3.4062 6.7578 10.852 10.711 17.484 13.715 0.10156 0.050781 0.23047 0.074219 0.33984 0.0625 0.039063 0.09375 0.085938 0.19531 0.13281 0.27344 0.69922 1.1523 2.0391 1.8711 3.1875 2.4531 3.2656 1.6367 7.2852 1.7812 10.852 1.6875 3.0195-0.085938 6.3047-0.46484 9.043-1.8086-0.41016 0.20703 3.0977 4.2188 5.4648 3.0625 2.1523-1.043 2.6562-1.7422 4.3242 0.23438 0.61719 0.73828 1.9336 1.2148 2.8828 0.94531 2.2227-0.62891 5.2734-3.4492 7.6562-1.7812 1.3477 0.93359 3.2695 1.9766 4.9727 1.5 3.168-0.86328 5.1758-1.2422 8.4062-0.90625 4.0273 0.42187 7.8516 1.1719 11.93 1.043 3.5742-0.125 7.0273-0.66797 10.641-0.58203 3.7344 0.09375 7.375 0.33203 11.07 0.125 3.4883 0.49219 7.3242 0.41016 10.504 0.72656 8.6367 0.84375 17.215 1.9648 25.766 3.3438-0.085938 0.074218-0.13281 0.20703-0.039063 0.30859 1.3281 1.4492 1.9805 1.7422 3.8711 1.1094 0.039062-0.003906 0.074219-0.027344 0.10547-0.050781 1.5625 0.33203 3.2305 0.56641 4.4727-0.24609 0.53125-0.34766 0.63672-1.1211 0.77344-1.6641 0.93359-3.8789 3.375-0.11719 3.832 2.1172 0.050782 0.21875 0.28516 0.40234 0.51563 0.39062 6.1758-0.37109 12.312-1.2383 18.492-1.6367 0.29688-0.015624 0.55469-0.23437 0.55469-0.54297 1.6289-0.84375 3.2539-1.6875 4.8789-2.5195 0.11719 0.57813 0.20703 1.1523 0.29688 1.7422 0.023437 0.11719 0.26953 0.85156 0.48047 1.1016 0.96875 1.0859 1.8203 1.6172 3.2656 1.707 2.3203 0.13281 4.8047-0.71875 7.1016-0.875 3.3867-0.23438 7.2227-0.074219 10.562 0.50391 0.29688 0.050781 0.6875-0.074219 0.75-0.42188 0.050781-2.7734 2.0625-3.832 6.0195-3.168 0.55469 0.75 0.86328 1.7695 1.3281 2.582 0.44141 0.76172 1.0195 0.98437 1.8438 1.0547 4.5859 0.33984 9.1055-1.0703 13.676-1.1094 1.1094-0.023438 3.5 0.48047 4.4727-0.085938 1.5977-0.93359 2.7539-2.0664 4.8281-0.90625 4.1172 2.3281 7.1914 1.2266 11.609 0.30859 0.10156-0.015625 0.17188-0.0625 0.23438-0.10156 11.301 2.2109 22.855 0.78516 34.172-1.2031 12.273-2.1523 25.727-4.0664 37.363-8.6523 4.7422-1.8711 8.9102-5.1172 11.426-9.25 0.20703-0.32031 0.39062-0.64844 0.56641-0.97266 1.6172-3.125 2.3516-6.7695 1.6992-10.68zm-121.54-75.762c1.5352-3.0859 5.8359-5.1367 3.2422 0.125-0.95703 1.9336-2.7422 3.1211-4.7422 3.9102 0.41016-1.3789 0.83984-2.707 1.5-4.0352zm-4.0742-7.7773c-3.1484 0.015625-6.3008 0.015625-9.4375 0.15234 3.0703-3.332 6.6211-4.9219 9.4375-0.15234zm-17.965-10.332c0.57812 0.49219-0.6875 0.77344-2.3867 0.88672 0.10547-0.20703-0.085937-0.51562-0.33984-0.53125-1.4727-0.13281-2.9727-0.085937-4.4961 0.10156 1.8906-2.0195 4.2695-2.9883 7.2227-0.45703zm-18.078-12.039c0.37109-0.39062 0.73828-0.77344 1.1094-1.1641 1.1016-1.8828 2.4922-1.668 4.1484 0.66016-0.53906 3.1094-3.0469 2.9414-6.1328 1.4609 0.28906-0.32031 0.58594-0.64062 0.875-0.95703zm108.18 72.922c1.7422 0.78516 3.4609 1.6289 5.1641 2.457 3.4648 1.6953 6.8828 3.4883 10.258 5.332 3.3555 1.832 6.8086 3.4648 10.125 5.3711 0.039063 0.023438 0.085938 0.039063 0.125 0.074219-0.23438 0-0.39062 0.33984-0.14453 0.48047 1.1758 0.6875 2.3984 1.3047 3.6719 1.9023 1.5117 1.0703 3.0625 2.1016 4.6523 2.6133 3.1875 1.043 7.5547 1.9531 9.6211 4.8789 2.5195 3.5508 1.4102 8.3438-0.61719 11.75-0.14062 0.24609-0.30859 0.49219-0.46875 0.72266-0.56641 0.78516-1.2227 1.4609-1.9531 2.0508-5.1367 4.0781-13.973 3.6953-19.941 3.7422-7.0898 0.0625-14.016-1.5117-21.086-1.5625-7.875-0.0625-15.457 1.5625-23.285-0.085938-2.2969-4.793-5.4805-9.0117-8.9414-13.074-0.42188-0.49219-0.82422-0.98438-1.2148-1.5-0.24609-0.30859-0.48047-0.61719-0.69922-0.92969-0.46484-0.60547-0.89453-1.2227-1.3047-1.8555-2.5703-3.9102-0.32031-7.7188 3.7578-8.7461 3.2422-0.82812 6.8828-0.46875 10.176-0.19531 7.6172 0.63672 15.262 0.91797 22.883 1.5 8.0352 0.60547 16.574 2.2852 24.586 0.8125 0.11328-0.015625 0.10156-0.15234 0.027343-0.20703-8.4062-6.082-19.797-7.8281-26.898-15.68-0.58203-1.1055-0.078125-1.0508 1.5078 0.14844zm-50.598-34.809c-0.98438 1.25-2.4961 2.1211-3.8203 2.9961-0.085938 0.050781-0.16406 0.10547-0.24609 0.16797-0.085938-0.24609-0.15625-0.49219-0.21875-0.76172-1.2891-5.0703 5.7148-4.1992 4.2852-2.4023zm-60.832-36.855c-0.39844 0.57812-0.77344 1.1016-1.0859 1.5234-3.8516 5.1016-4.8281 9.793-6.3711 15.805-0.015626 0.09375-0.050782 0.17188-0.074219 0.26953-1.8203-1.2148-3.6953-2.3594-5.6055-3.4141-4.1367-2.2969-8.3203-1.6953-12.707-0.96484 0.089843-0.73828 0.16406-1.4727 0.21875-2.1289 0.65625-7.5312 2.8906-14.375 7.8633-20.172 0.003906-0.015625 0.015625-0.039062 0.027344-0.050781 1.8828 1.3047 4.3164 1.6797 6.5508 0.32031 1.8477 1.2461 6.6133 6.043 11.184 8.8125zm-12.531 25.805c-1.3398 0.94531-2.9609 1.4609-4.5195 1.8945-3.1992 0.89453-5.2461-1.7188-2.0781-3.7539 0.27344-0.18359 0.56641-0.35938 0.86328-0.51562 3.0352-1.7812 6.6094-2.9336 10.152-3.9805-0.76172 2.0781-1.8555 3.9531-3.4648 5.5664-0.29297 0.29688-0.61328 0.5625-0.95312 0.78906zm-14.98-11.5c-0.89453 3.6406-2.7383 6.5742-7.6289 5.3594-4.5859-1.1406-8.7852-6.1094-10.371-10.383-4.3633-11.738 16.379-18.973 24.586-24.18 0.035156 1.8633 0.89453 3.6406 2.207 4.9375-4.8594 5.7305-6.9883 12.137-7.9727 19.5-0.17187 1.2891-0.34766 2.6641-0.62891 3.9922-0.25781 0.17187-0.29688 0.49219-0.19141 0.77344zm10.656-24.379c-5.1367-2.2344-1.4883-8.4883 1.5078-10.543 0.59375-0.41406 1.2031-0.78516 1.8086-1.1523 2.1211 0.91797 3.9922 3.0859 4.0781 6.4961 0.10938 4.3047-3.3672 6.9492-7.3945 5.1992zm-2.8789-8.6016c0.050781-2.5547 2.0273-3.7461 4.2383-3.5898-0.92578 0.61719-1.8555 1.2539-2.7266 1.9766-0.625 0.5-1.1172 1.043-1.5117 1.6133zm30.84 2.3984c0.70703 0.64844 1.293 1.3906 1.7695 2.2305 3.3945 5.3711-4.0195 5.3711-5.9883 4.9297-2.5938-0.57812-4.6914-3.207-6.793-4.7031-2.5195-1.8047-4.7539-2.8906-7.7188-1.5977-0.09375 0.050781-0.16406 0.10547-0.21875 0.17188-0.11328-2.8633-1.6289-5.8359-3.7578-7.582 7.7031 1.168 16.641 1.4141 22.707 6.5508zm-78.094-5.8359c2.2734-6.3906 7.1289-10.176 12.695-13.578 0.68359-0.42578 0.0625-1.4961-0.62891-1.082-1.3594 0.82812-2.6641 1.6875-3.9102 2.582-1.0078-4.6406-0.77344-7.6562 3.5508-10.09 3.5625-2.0156 7.2969-3.7305 10.848-5.7852 5.3945-3.1211 20.816-13.074 24.668-3.4609 1.7344 4.375 0.69922 9.6328 1.3438 14.234 0.76172 5.3711 4.3438 9.5859 7.4648 13.871-0.69922 0.57813-1.4297 1.1016-2.1719 1.5977-0.035156 0-0.050781 0-0.085937-0.011719-1.8828-0.86328-4.043-0.77344-6.1055 0.95703-1.293 1.0938-1.8203 2.3477-1.9531 4.0195-0.015625 0.34766 0.125 0.77344 0.19531 1.1211-0.14453 0.085938-0.23438 0.26953-0.14453 0.46484 0.023438 0.050781 0.039063 0.10156 0.050782 0.16406-0.085938 0.039063-0.18359 0.074219-0.35938 0.050782-1.9766-0.23047-3.9297 0.015625-5.875 0.34766-7.4766 1.2812-13.641 6.5234-20.445 9.8242-0.039062-0.09375-0.10547-0.19531-0.23047-0.25781-6.2656-3.5898-13.098 0.78516-18.848 4.1992-4.8281-5.7383-2.3086-12.805-0.058593-19.168zm-9.0547 25.816c2.0898-2.1836 5.3945-3.5156 8.0352-4.8789 0.26953-0.14453 0.55469-0.29688 0.83594-0.45312 0.25781 0.035157 0.49219-0.11328 0.60547-0.33984 5.3086-2.9844 11.637-7.4805 17.617-4.3945-0.89453 0.39062-1.7852 0.76172-2.7031 1.0703-0.66016 0.23047-0.37891 1.2539 0.28516 1.0547 10-3.1289 18.391-12.164 29.281-11.508-5.2422 4.3398-30.867 13.402-24.562 26.578 1.5234 3.1797 4.6211 6.9492 8.2422 8.9922-0.050781 0-0.09375 0.011719-0.14453 0.042969-6.2539 3-13.637 2.5938-20.383 0.015625-1.082-0.46875-2.1523-0.97266-3.2188-1.5117-1.3164-0.67188-2.6055-1.3984-3.8711-2.1523-4.5625-3.0352-8.3945-7.043-10.723-11.512 0.16797-0.33984 0.38672-0.67578 0.70312-1.0039zm5.7617 9.9297c-0.44141-0.28125-0.89453-0.54297-1.3398-0.82422 0.125 0 0.23438-0.074219 0.30859-0.16406 0.33203 0.32422 0.6875 0.66406 1.0312 0.98828zm-6.6211-8.5195c0.91797 1.7812 2.0664 3.5039 3.4062 5.1367-0.34766-0.29688-0.69922-0.58203-1.043-0.89453-0.19531-0.16406-0.34766-0.34766-0.51953-0.52734-0.035156-0.28125-0.20703-0.42969-0.42969-0.46484-0.63672-0.75-1.1328-1.5859-1.5586-2.4805 0.019531-0.25781 0.058594-0.51172 0.14453-0.76953zm4.7422 7.375c-0.72266-0.42969-1.4375-0.85156-2.1719-1.2656-0.29297-0.33203-0.57813-0.68359-0.86328-1.043 0.027344-0.14062 0.039063-0.29688 0.0625-0.44141 0.89453 0.96875 1.9023 1.8555 2.9727 2.75zm-3.9805-3.9297c-0.015625-0.011719-0.027344-0.023437-0.0625-0.027343-0.039063-0.011719-0.085938-0.023438-0.125-0.035157-0.13281-0.23438-0.24609-0.46484-0.33984-0.69922 0.16797 0.25781 0.33984 0.51563 0.52734 0.76172zm-0.44531 1c0.050781 0.074219 0.10156 0.13281 0.16406 0.20703-0.023438 0.10547-0.027344 0.21875-0.050782 0.32031-0.92969-0.46875-1.8633-0.89453-2.8164-1.293 0.86328 0.23047 1.7461 0.53906 2.7031 0.76562zm-54.945-15.84c0.73828 0.30859 1.3984 0.72266 1.8086 1.3828 0.76172 1.2539 0.46484 3.7734 0.50391 5.1641 0.13281 3.7852 0.23438 7.3359 1.0938 11.043 1.5234 6.5742 6.1836 13.035 13.195 13.984 5.8398 0.78516 12.191-3.3945 16.535-6.7812 3.0234-2.3594 5.9453-4.8281 9.1562-6.957 1.7422-1.1523 3.6016-2.0781 5.5781-2.7773 1.082-0.39062 2.0508-0.42188 2.9844-0.28516 1.3711 0.75 2.7031 1.5625 4.0312 2.3984-1.7812 7.0625-9.1289 11.66-15.262 14.766-8.0625 4.0938-16.586 4.543-25.395 3.0977-7.8281-1.2812-12.777-7.3594-14.59-14.734-1.6055-6.5352-0.93359-13.16-3.7344-19.355 0.085937-0.0625 0.125-0.17188 0.0625-0.26953-0.050781-0.0625-0.089844-0.125-0.12891-0.18359-0.050781-0.074219-0.125-0.10156-0.19531-0.125-0.011719-0.015625-0.015625-0.039063-0.027344-0.0625 1.375-0.3125 2.8867-0.36328 4.3828-0.30469zm-16.824 38.309c1.707-3.8984 3.5742-7.2227 4.082-11.512 0.83594-6.9062 1.6758-13.738 2.6953-20.613 0.46875-3.2422 2.3203-4.8555 4.6523-5.6172 0.11328 0.14453 0.21875 0.29688 0.32031 0.44141 0.14453 0.19531 0.44141 0.29297 0.62891 0.085938 0.011719-0.011719 0.027344-0.015626 0.039063-0.015626 0.42969 3.0586 2.1953 15.047 2.3672 16.441 0.46484 3.7578 1.5273 7.2109 3.4883 10.457 3.6719 6.0977 10.422 7.9648 17.031 8.8086 3.5273 0.45312 6.9648 0.34766 10.32-0.20703 0.39062 2.375 0.76172 4.7305 1.0312 7.1016 0.35938 3.2422 0.53906 6.5 0.29688 9.8164-0.17188 1.7305-0.46875 3.4375-0.90625 5.125-0.46484 2.0703-1.7461 1.0938-3.0352 0.6875-2.4688-0.78516-4.8047-2.0508-7.1523-3.1211-2.9609-1.3594-9.5938-4.3516-11.441 0.13281-1.5234 3.6953 5.6406 9.4766 7.7383 11.473 6.8555 6.4844 10.977 15.199 18.637 20.914-4.6641 1.9414-9.5469 3.2539-13.746 1.8438-5.5547-4.1875-10.477-9.582-17.02-12.203-1.6562-0.67188-3.4062-1.2148-5.1953-1.6875-1.4844-5.4648-7-14.438-8.7695-21.746-1.5234-6.2148-0.33203-11.223 8.3789-11.809 0.37109-0.015625 0.72656-0.039062 1.0859-0.050781 9.1797-0.27344 17.801 3.7344 26.879 4.1289 0.69922 0.023438 0.69922-1.0703 0-1.0977-7.8398-0.33203-15.625-3.5391-23.469-4.1758-2.9414-0.23438-5.8867-0.125-8.8594 0.63672-4.5469 1.1641-6.1836 4.1484-6.1836 7.9414-0.57812-0.27344-1.1719-0.56641-1.7695-0.78906-0.69922-0.26953-1.2656-0.61719-1.7305-1.0078 0.074219-0.10547 0.13281-0.19531 0.21875-0.29297 0.46875-0.52734-0.29688-1.293-0.77344-0.77344-0.085938 0.085937-0.13281 0.16406-0.19531 0.25781-1.9609-2.6172-0.88281-6.7617 0.35547-9.5742zm-0.77344 24.449c-0.15625-3.8203-1.4492-9.7344 0.65625-13.355 1.1797 0.99609 2.6484 1.7578 4.0547 2.2852 0.16406 1.9531 0.6875 4.0938 1.4375 6.2773 2.3867 6.9648 6.9648 14.461 8.7539 18.512-3.0352-0.76172-6.1445-1.3281-9.0938-1.9023-0.52734-0.10547-1.0547-0.20703-1.5625-0.29688-2.5039-0.48047-4.9766-0.90625-7.5195-0.78516 1.9375-3.1914 3.4141-7.0156 3.2734-10.734zm-14.078 28.086c-0.023438-2.6758 0.34766-5.332 1.0312-7.9258 1.8945-7.1953 7.9023-9.5586 14.777-8.2422 0.79688 0.15625 1.5977 0.30859 2.3984 0.45312 3.6953 0.69922 7.5312 1.4062 11.223 2.4531 0.011719 0.015625 0.023437 0.050781 0.023437 0.074219 0.074219 0.19531 0.29688 0.18359 0.39063 0.0625 2.5664 0.73828 5.0508 1.6367 7.3633 2.8125 4.0938 2.0781 7.2617 5.5156 10.797 8.4297 0.89453 0.90625 1.8438 1.5859 2.8516 2.0781 0.33203 0.21875 0.64844 0.45312 0.99609 0.64844 0.21875 0.125 0.40234 0.074218 0.52734-0.050782 2.8711 0.84375 6.0703 0.39062 9.4141-0.59375 7.8867-2.3242 14.914-6.9648 22.926-8.832 10.012-2.3203 20.066 4.4961 28.738 8.5117 4.5312 2.0898 9.8438 3.3047 12.863 6.9141 0.53906 0.64844 1.0078 1.3789 1.3789 2.1992 0.13281 1.4375 0.33203 2.8711 0.42969 4.3125 0.40234 5.2812-4.6797 5.4648-8.1875 5.4414-4.8398-0.035156-9.6445-0.53906-14.488-0.53906-6.3398 0.011719-12.68-0.99609-18.984-1.6055-6.4609-0.62891-12.953-0.32031-19.438-0.64844-13.453-0.6875-26.859-2.7891-40.191-4.6211-0.37109-0.050781-0.72656-0.10156-1.1016-0.15234-5.1875-0.73828-10.309-1.6953-15.371-3.0195-0.37109-0.09375-0.75-0.19531-1.1211-0.29688-3.0742-0.83594-5.8867-2.1992-8.8203-3.3672 0.085937-0.125 0.15625-0.24609 0.23047-0.37891 0.085937-0.125-0.10547-0.26953-0.20703-0.15625-0.60547 0.6875-0.44922-3.1602-0.44922-3.9609zm202.22 8.6016c2.418-0.58203 4.7422-1.293 6.6875-1.7812 5.7734-1.418 10.949 0.15625 15.578 3.207 6.4609 4.25 11.832 11.379 16.207 17.203-7.9258-0.77344-16.066-0.55469-23.996-0.69922-9.5273-0.18359-19.059-0.6875-28.543-1.5234-20.016-1.7422-39.199-5.957-58.453-11.465-0.011718-0.83594-0.10547-1.6875-0.21875-2.5312 0.023438-0.85547-0.09375-1.6445-0.33984-2.3906-0.050781-0.45312-0.09375-0.88672-0.11328-1.2773-0.011719-0.28125-0.15625-0.46875-0.33984-0.57813-0.15234-0.09375-0.34766-0.125-0.52734-0.10547-0.72656-1.0469-1.7188-1.9531-2.8164-2.7383 1.3477 0.13281 2.7031-0.71875 4.543-1.5234 6.832-3 13.367-6.2031 20.445-8.6875 7.1406-2.4883 15.004-4.5078 22.617-4.207 9.2188 0.37109 10.434 7.9531 13.48 14.719 0.77344 1.6953 1.8047 2.9102 3.0352 3.7344 3.3906 2.3281 8.2461 1.7227 12.754 0.64453zm-134.78 36.578c-4.5195-0.46875-7.8008 2.0508-11.832-0.76172-4.082-2.8398-7 6.1719-11.07-0.56641-0.17188-0.30859-0.56641-0.40234-0.86719-0.23047-2.8281 1.5625-5.6016 2.4961-7.707-1.1406-0.17188-0.28516-0.57812-0.40234-0.85156-0.21875-4.2383 2.6562-11.055 2.2734-15.773 1.5352-2.5938-0.41406-5.3086-1.2656-6.6484-3.5273-0.011719-0.023438-0.011719-0.027344-0.011719-0.050781-3.3438-11.895 13.469-6.875 19.594-5.3828 13.809 3.3438 27.254 2.3984 41.281 1.2148 5.2812-0.44141 11.547-1.3164 16.781-0.56641 2.375 0.33984 3.0469 5.1562 3.9102 6.8438 0.99609 1.9336 1.9648 2.9102 3.9688 3.7539 0.15234 0.074219 0.33203 0.11719 0.49219 0.17188-10.449-0.003906-20.883 0.027344-31.266-1.0742zm72.758 6.6562c-0.011718 0.039063-0.011718 0.074219-0.011718 0.11328-0.27344-0.14453-0.59375-0.33203-0.96484-0.59375 0.37109 0.0625 0.73828 0.11328 1.1094 0.17188-0.050781 0.10156-0.078125 0.19141-0.13281 0.30859zm91.383-2.1367c-0.77344-0.44141-3.2539-2.1055-4.3008-1.4844-1.7422 1.0547-1.5625 2.418-4.1875 2.2227-2.3281-0.17188-4.7422 0.27344-7.0273 0.59375-3.0352 0.42578-8.0859 2.0625-9.7539-1.5859-0.72656-1.6055-1.4727-2.3594-3.1602-2.8164-1.5117-0.41406-2.8711 0.58203-3.9219 1.4766-2.0273 1.707-1.043 3.2695-4.3516 2.9727-2.7148-0.23437-5.7109-0.17187-8.4336 0.011719-2.8633 0.20703-7.9844 2.4883-8.7852-1.9766-0.41406-2.2969-3.375-4.7812-5.543-2.5312-0.99219 1.0312-1.5078 3.9688-3.0078 4.0547-4.3242 0.26953-8.625 0.875-12.938 1.2891-3.6953 0.35938-3.3281-1.4961-5.1289-3.7969-0.92578-1.1797-2.4453-0.86328-3.6641-0.60547-0.19531 0.039063-0.37891 0.26953-0.35938 0.46484 0.41406 3.3359-2.0625 4.2109-3.9297 3.9531-0.41406-4.3281 1.5117-8.8594 6.6875-6.6641 1.7578 0.75 3.2695 1.6445 5.1367 2.0781 3.8398 0.875 8.0859 1.2539 11.969 0.54297 2.75-0.50391 4.0781-2.9297 5.125-5.2266 2.1172-4.6523 10.039 4.2773 13.492 5.1016 3.832 0.90625 7.2969-0.66797 10.516-2.5078 3.7344-2.1172 6.8828-3.1406 10.652-0.59375 1.5742 1.0586 3.0469 2.5078 4.8906 3.1094 4.8438 1.5625 9.3125-2.8633 14.043-3.207 4.7031-0.33984 9.1523 2.7617 13.586 4.8398-0.085938-0.011719-0.16797-0.023438-0.24609-0.039062-0.37109-0.074219-0.52734 0.46484-0.15234 0.56641 0.51562 0.14062 1.0312 0.26953 1.5391 0.40234-2.9922 0.63672-5.6367 1.1016-8.7461-0.64453zm94.203-19.863c-0.18359 0.34766-0.37891 0.6875-0.59766 1.0195-3.9102 6.082-12.57 9.7109-19.098 11.355-19.77 4.9727-41.883 10.602-62.48 7.9023-0.0625-0.13281-0.16406-0.24609-0.33203-0.30859-5.125-1.8555-10.742-6.1953-16.34-6.4414-2.6445-0.11719-4.7305 0.51562-7.1289 1.5625-1.4375 0.63672-2.6641 1.418-4.1758 1.9414-3.1094 1.082-5.4258-0.78516-7.582-2.3867-3.4766-2.5664-6.1562-3.2305-10.137-1.3711-3.6523 1.707-6.3555 3.8398-10.629 3.8398-5.4102 0-5.3984-3.8984-9.2305-5.8633-1.8555-0.95703-4.9297-2.5547-6.4844-0.20703-1.2539 1.8945-1.6367 3.9805-3.7578 5.2266-2.7656 1.6445-7.3984 0.76172-10.398 0.34766-4.0273-0.56641-7.6992-3.6953-11.781-3.1094-1.832 0.26953-2.8828 2.6445-3.5156 4.043-0.25781 0.56641-0.10156 1.8438-0.125 2.9414-0.015625-0.011718-0.027344-0.015624-0.050781-0.015624-8.8594-1.6562-17.832-2.7148-26.797-3.6523-3.4141-0.35938-6.7969-0.80469-10.23-1.0312-5.7109-0.37109-8.5586-1.6641-10.68-7.1641-1.8555-4.7773-4.4844-4.6641-9.1562-4.375-7.6445 0.46875-15.27 1.2656-22.914 1.6172-9.6094 0.45312-18.445 0.66797-27.938-1.5742-3.8711-0.91797-7.7188-1.9414-11.66-2.5312-5.9648-0.88672-11.512 0.30859-11.523 5.8633-0.23438-0.10156-0.51562-0.19531-0.875-0.26953v0.011719c0.40234 0.20703 0.67578 0.54688 0.89453 0.94531 0.035156 0.35938 0.074218 0.72266 0.14453 1.1133-5.4336-2.5938-13.957-7.1289-16.109-13.199-0.50391-1.3711-0.67188-2.8125-0.40234-4.3359 0.44141-2.5078 1.707-4.9766 2.8828-7.4688 1.4297-3.0117 2.7266-6.0703 2.2617-9.2695 0.027344 0.015625 0.074219 0.027344 0.11328 0.027344 2.9414 1.8633 6.2539 3.1992 9.7227 4.207 3.7188 1.082 7.6172 1.793 11.453 2.3594 3.1094 0.46484 6.1836 0.83984 9.0664 1.2539 14.855 2.1172 29.727 4.3125 44.75 4.5859 7.707 0.14453 15.203 0.86719 22.871 1.6367 6.3906 0.63672 12.824 0.45312 19.227 0.90625 3.8086 0.26953 8.4336 0.85156 11.336-2.0781 0.91797-0.92969 1.2539-2.2227 1.3164-3.625 17.316 6.8086 36.23 9.8281 54.652 11.781 19.129 2.0273 38.32 1.3789 57.469 2.6055 0.26953 0.23438 0.63672 0.21875 0.88672 0.050781 0.09375 0.011719 0.17969 0.011719 0.25781 0.015626 0.82812 0.050781 0.78906-1.1719 0-1.2656-0.125-0.023437-0.24609-0.035156-0.37109-0.042968-3.832-6.0195-9.0898-12.57-15.227-17.18-2.5664-1.9414-5.2812-3.5391-8.1211-4.6211-4.5195-1.7305-8.9219-0.78906-13.461 0.41406-3.0508 0.8125-6.0312 1.6953-9.1914 2.0039-5.8398 0.57812-8.5781-3.3047-10.289-8.2422-1.5742-4.5469-3.0352-7.7266-7.4102-10.137-4.7656-2.6133-10.797-1.418-15.859-0.68359-7.6758 1.1328-15.055 4.0664-22.215 6.8945-2.5703 1.0195-4.9609 2.1055-7.3867 3.4453-1.6367 0.90625-7.6875 4.6328-9.9609 3.0703-0.15234-0.11719-0.33203 0.027343-0.33984 0.19531-0.70703-0.37109-1.4375-0.70703-2.1523-1.0078-7.3711-3.0859-14.488-6.7695-21.906-9.6875-8.0742-3.1914-15.223-2.25-23.051 1.1328-2.8711 1.2305-6.3047 3.0977-9.9023 4.6328-8.1797-6.793-13.5-16.477-20.961-24.035-1.4297-1.4375-2.7383-2.9961-3.8477-4.6914-3.0078-4.5469 2.2305-4.9883 5.4102-4.0078 4.8281 1.4844 8.9805 4.6914 14.055 5.4219 0.32031 0.039063 0.62891-0.085937 0.72266-0.41406 1.6367-5.6797 1.793-11.172 1.293-16.762-0.23047-2.5312-0.58203-5.0742-1.0078-7.6758 1.1523-0.23047 2.2852-0.51562 3.4141-0.84375 0 0.050781 0 0.10547 0.015625 0.15625 1.1914 3.3047 2.418 6.5625 3.4258 9.9102 0.41406 1.293 0.77344 2.6055 1.0938 3.9297 0.99219 4.1289 2.2227 12.051-2.1602 14.734-4.543 2.7773-12.434-0.90625-17.227-1.6172-0.28516-0.039062-0.66797 0.125-0.62891 0.46875 0.42969 4.0156 3.7109 7.2227 6.3398 10.023 4.2734 4.5586 9.0117 8.7344 13.074 13.434 0.20703 0.23438 0.62891-0.074218 0.44141-0.33203-4.4336-6.043-10.59-10.98-15.477-16.723 0.10547 0.11328-3.9297-5.918-3.207-5.8125 1.2305 0.18359 2.4531 0.50391 3.6641 0.78516 2.7031 0.62891 5.3867 1.2422 8.1719 1.4883 11.07 0.98438 9.9023-10.477 7.2539-20.066-1.2031-4.3633-2.7148-8.332-3.5273-10.578-0.035156-0.0625-0.074218-0.11719-0.10547-0.16797 3.0742-1.0078 6.0664-2.3633 8.9531-4.0078 5.1758-2.9414 10.734-7.3359 12.387-13.254 0.58203 0.37891 1.1719 0.76172 1.7461 1.1406 0.26172 0.27344 0.51562 0.54297 0.71875 0.78906 0.11328 0.13281 0.30859 0.0625 0.39062-0.074219 4.2734 2.8047 8.5273 5.6406 13.234 7.6055 7.9023 3.3047 13.418 3.2539 21.32 0.39062 0.57812-0.21875 0.50391-0.96875 0.09375-1.1641 0.023437-0.09375 0-0.19531-0.0625-0.28125 2.7266 1.4375 5.7305 1.8945 8.5742 0.39062 2.043-1.0938 2.9531-3.3672 3.3945-5.6797 5.125-0.89453 8.9336-1.5117 13.809 1.082 1.3398 0.71094 2.6484 1.4727 3.9219 2.2852-2.75 0.91406-5.4805 1.8555-8.1758 2.9102-1.0312 0.39844-2.6484 0.99609-4.0039 1.8555-1.2383 0.77344-2.25 1.7578-2.3789 3.0078-0.27344 2.9023 1.2539 3.7734 4.0039 3.6836 3.332-0.125 5.8516-1.2383 7.7891-2.9609 2.1016-1.8828 3.5039-4.4727 4.5469-7.3242 3.3281 2.25 6.4727 4.793 9.4258 7.5 0.23047 0.20703 0.55469-0.11328 0.33984-0.33984-2.7422-2.8398-5.7734-5.3711-8.9922-7.6445 1.668-0.48047 3.3047-0.98047 4.8477-1.5469 3.4062-1.2227 6.8086-2.4453 10.289-3.4453 0.48047-0.13281 0.96875-0.23438 1.4492-0.33203-1.9922 3.0352-4.6914 6.7539-5.875 10.125-0.58984 1.6562-1.043 3.2812-1.5352 4.8555-2.2109 0.875-4.9062 2.0391-7.1836 3.3672-3.0352 1.7812-5.2969 3.8711-4.6328 6.0195 1.6758 5.3203 6.6602 1.9922 9.6562-1.4727 1.0195-1.1719 1.7969-2.375 2.1602-3.2539 0.46875-1.1719 0.85156-2.375 1.2148-3.5781 1.8828-0.83594 3.7969-1.6172 5.6992-2.4062 3.2812-1.3711 6.418-2.75 9.918-3.5156 2.1914-0.48047 4.4414-0.75 6.707-0.90625-1.9648 2.6641-3.6016 5.6289-4.918 8.6523-1.2305 2.8633-1.5508 5.7188-2.1523 8.418-0.14453 0.050781-0.29297 0.11328-0.42969 0.16406-3.0078 1.1211-7.6055 2.5195-9.6211 5.4336-0.26953 0.41016-0.50391 0.84375-0.66797 1.3164-1.2656 3.5039 2.3125 3.9414 4.8906 3.3438 0.67578-0.15625 1.2891-0.39062 1.7188-0.64844 3.5273-2.1406 4.8047-5.2461 5.6016-8.6367 2.8008-1.0195 5.668-1.8945 8.3789-3.1484 3.2812-1.5234 6.9141-2.0781 10.152-2.9844-0.37891 1.1211-0.79687 2.25-1.3047 3.3555-2.0039 4.3867-5.0508 8.2031-7.1523 12.531-0.10547 0.23047-0.21875 0.45312-0.33203 0.67578-3.7852 1.0312-7.5078 1.9531-11.133 3.8906-0.30078 0.15234-0.45313 0.54297-0.35938 0.875 0.015626 0.0625 0.039063 0.11328 0.0625 0.17188 0.71094 2.207 2.0703 3.3672 3.625 3.6719 2.0898 0.42188 4.5586-0.67578 6.3281-2.8516 1.2383-1.5117 2.1094-3.332 2.9531-5.1641 6.7305-2.2383 13.48-4.4961 19.77-7.8125 1.2031-0.63672 2.5938-1.3164 3.9688-2.0898 0.19531 0.42578 0.40234 0.80469 0.60547 1.1211 2.7148 4.1758-14.879 12.441-11.352 16.547 0.45312 0.51953 1.2148-0.23438 0.76172-0.75-1.043-1.2031 9.0234-10.246 10.051-11.352 3.168-3.3672 2.0703-3.5391 0.90625-6.1328 0.69922-0.41016 1.3906-0.86328 2.0273-1.3398 1.4062 3.2422 4.3008 4.9609 7.3477 6.6211 1.8711 1.0195 3.7969 1.9648 5.4102 3.332-0.16406 0.011719-0.33984 0.011719-0.50391 0.027344-0.16406 0.023438-0.17188 0.25781 0 0.25781 0.29688 0 0.59375 0.035156 0.90625 0.074219 0.45312 0.42187 0.88672 0.875 1.2773 1.3906 3.4062 4.5195-3.7422 7.0039-6.7383 7.8906-5.4023 1.6055-11.094 1.4844-16.633 2.3477-6.2031 0.98047-10.523 4.9883-15.824 7.8867-0.23047 0.13281-0.46484 0.25781-0.69922 0.37891-8.8945 4.6094-16-1.8086-18.883-9.8516-1.4062-3.9297-3.332-6.6875-7.3359-8.2539-3.6133-1.4062-14.957-2.4961-9.1562-8.8594 1.5078-1.6445 3.625-2.8008 5.9453-3.6406 3.1406-1.1641 6.6484-1.7695 9.4883-2.2617 0.26953-0.039062 0.52734-0.37109 0.49219-0.64844-0.46484-3.8086-4.1875-5.7891-7.0781-7.8125-0.72266-0.50391-1.3906 0.67188-0.68359 1.1641 1.8086 1.2656 3.6016 2.5039 5.207 4.043 2.7031 2.6133-0.6875 2.3984-2.1797 2.7266-2.0898 0.46875-4.1367 1.0859-6.1211 1.8828-1.1016 0.44141-2.1836 0.94531-3.2422 1.5078-2.6328 1.3789-7.3633 6.0469-4.0156 9.1289 4.6406 4.2578 12.027 2.4883 15.773 8.1875 2.1602 3.293 2.7617 7.375 5.0508 10.703 1.6758 2.4375 4.5078 3.7617 7.2422 4.5742 4.1367 1.2383 7.8945 0.011719 11.414-1.9141 2.6055-1.4297 5.0742-3.2422 7.4688-4.7422 7.6328-4.7812 17.879-2.9414 26.32-5.8359 3.6641-1.2539 7.7773-3.9531 5.6172-8.2109-0.25781-0.51563-0.57812-0.98047-0.91797-1.4219 5.4766 1.5625 11.176 7.0898 15.52 9.918 5.75 3.7344 11.66 7.6445 18.246 9.7344 5.3945 7.8281 15.164 10.188 23.367 14.004 2.0156 0.93359 6.7812 2.8672 1.793 3.1367-3.7461 0.19531-7.375-0.54297-11.07-1.0312-7.8516-1.0078-15.754-1.4609-23.66-1.8633-6.5859-0.33984-21.391-4.082-25.352 3.457-1.2422 2.3867 0.48047 5.5664 2.0781 7.7617 0.15625 0.23047 0.32031 0.44141 0.46875 0.64844 0.18359 0.23047 0.34766 0.44141 0.51562 0.63672 3.8203 4.6914 7.7617 9.2305 10.785 14.461-0.49219 0.33203-0.56641 1.2266 0.17188 1.3789 0.21875 0.042969 0.42969 0.074219 0.64844 0.11719 0.09375 0.16406 0.18359 0.32031 0.28125 0.49219 0.10547 0.20703 0.46875 0.0625 0.37891-0.16406-0.027344-0.085937-0.074219-0.15234-0.10156-0.23437 5.6992 0.98437 11.328 0.52734 17.102 0.027343 6.5742-0.56641 12.828 0.32031 19.363 0.80078 5.957 0.44141 12.113 0.40234 18.016-0.53125 3.6133-0.58984 7.3203-1.2539 10.023-3.6836 0.54688-0.48047 1.0547-1.0547 1.5078-1.6875 0.09375-0.13281 0.18359-0.25781 0.26953-0.40234 1.7969-2.6953 3.1094-6.1445 2.3633-9.4258-0.37891-1.668-0.95703-2.9727-1.7422-4.0312 3.9531 2.4961 7.1172 5.7773 8.4062 10.863 0.94141 3.6367 0.42578 6.7656-1.0156 9.4375zm-159.86-84.035c-0.63672 1.7578-1.3984 3.4375-2.5664 4.9766-0.52734 0.71094-1.1328 1.3906-1.8438 2.0391-0.98438 0.92969-2.1602 1.5117-3.5 1.7578-4.4453 0.58203-0.84375-3.5039-0.45312-3.8906 0.93359-0.88672 2.0898-1.5977 3.2422-2.2305 0.41016-0.23437 0.8125-0.46484 1.2148-0.6875 1.2773-0.71094 2.582-1.3477 3.9062-1.9648zm8.1094 16.113c0.09375-0.17188 0.23047-0.35938 0.39062-0.56641 0.60547-0.75 1.5117-1.2422 2.3203-1.7461 1.832-1.1406 3.8867-1.9414 5.8984-2.7383-0.70703 2.4531-1.8633 4.7031-4.4648 6.6367-0.52734 0.39062-1.3594 0.61719-2.1523 0.63672-1.5078 0.03125-2.9141-0.64453-1.9922-2.2227zm19.613 5.9805c-0.42188 0.86328-0.85547 1.7188-1.3398 2.5547-0.98047 1.8711-2.5547 3.0234-4.7266 3.457-0.66797-0.99609-1.3281-1.9805-1.9805-2.9844 1.5508-0.75 3.1484-1.3906 4.7812-1.9141 1.0859-0.38672 2.1797-0.74609 3.2656-1.1133z"/>
  <use x="70" y="644" xlink:href="#v"/>
  <use x="90.550781" y="644" xlink:href="#b"/>
  <use x="104.359375" y="644" xlink:href="#d"/>
  <use x="123.347656" y="644" xlink:href="#c"/>
  <use x="142.242188" y="644" xlink:href="#e"/>
  <use x="155.628906" y="644" xlink:href="#d"/>
  <use x="174.617188" y="644" xlink:href="#l"/>
  <use x="204.410156" y="644" xlink:href="#k"/>
  <use x="224.453125" y="644" xlink:href="#f"/>
  <use x="252.453125" y="644" xlink:href="#j"/>
  <use x="275.433594" y="644" xlink:href="#c"/>
  <use x="294.328125" y="644" xlink:href="#u"/>
  <use x="314.371094" y="644" xlink:href="#c"/>
  <use x="333.265625" y="644" xlink:href="#i"/>
  <use x="359.679688" y="644" xlink:href="#t"/>
  <use x="381.351562" y="644" xlink:href="#b"/>
  <use x="395.15625" y="644" xlink:href="#f"/>
  <use x="413.410156" y="644" xlink:href="#a"/>
  <use x="442.394531" y="644" xlink:href="#h"/>
  <use x="462.914062" y="644" xlink:href="#b"/>
  <use x="476.726562" y="644" xlink:href="#c"/>
  <use x="495.617187" y="644" xlink:href="#i"/>
  <use x="512.285156" y="644" xlink:href="#a"/>
  <use x="531.523437" y="644" xlink:href="#g"/>
  <use x="541.117187" y="644" xlink:href="#a"/>
  <use x="70" y="672" xlink:href="#s"/>
  <use x="82.183594" y="672" xlink:href="#b"/>
  <use x="95.992188" y="672" xlink:href="#a"/>
  <use x="115.226562" y="672" xlink:href="#r"/>
  <use x="154.152344" y="672" xlink:href="#e"/>
  <use x="167.535156" y="672" xlink:href="#q"/>
  <use x="187.46875" y="672" xlink:href="#d"/>
  <use x="216.207031" y="672" xlink:href="#p"/>
  <use x="239.640625" y="672" xlink:href="#a"/>
  <use x="258.878906" y="672" xlink:href="#o"/>
  <use x="278.8125" y="672" xlink:href="#n"/>
  <use x="308.492188" y="672" xlink:href="#h"/>
  <use x="329.015625" y="672" xlink:href="#b"/>
  <use x="342.820312" y="672" xlink:href="#a"/>
  <use x="362.058594" y="672" xlink:href="#g"/>
  <use x="371.65625" y="672" xlink:href="#d"/>
  <use x="390.648438" y="672" xlink:href="#m"/>
  <use x="407.242188" y="672" xlink:href="#e"/>
 </g>
</svg>
